<svg xmlns="http://www.w3.org/2000/svg" xmlns:xlink="http://www.w3.org/1999/xlink" width="168" height="56"><g fill-rule="nonzero"><path d="M154.19 0L11.816.003 10.53.02a18.5 18.5 0 0 0-2.805.247 9.33 9.33 0 0 0-2.661.878c-.837.428-1.6.985-2.266 1.65a8.76 8.76 0 0 0-1.65 2.27A9.24 9.24 0 0 0 .272 7.73a18.19 18.19 0 0 0-.251 2.803L0 11.822v32.36l.02 1.29a18.19 18.19 0 0 0 .251 2.803c.154.928.45 1.827.875 2.666a8.69 8.69 0 0 0 1.65 2.26c.662.668 1.427 1.225 2.266 1.65a9.38 9.38 0 0 0 2.661.883c.928.152 1.865.235 2.805.248l1.287.015L13.35 56l143.648-.018a18.59 18.59 0 0 0 2.8-.248c.93-.16 1.83-.458 2.67-.883a8.79 8.79 0 0 0 2.264-1.65c.667-.662 1.225-1.425 1.654-2.26.423-.84.715-1.738.867-2.666a18.91 18.91 0 0 0 .26-2.803l.005-1.29.01-1.53-.016-32.118a18.91 18.91 0 0 0-.26-2.803c-.152-.927-.444-1.826-.867-2.665-.864-1.684-2.235-3.055-3.918-3.92-.842-.424-1.742-.72-2.67-.878a18.26 18.26 0 0 0-2.8-.247l-1.29-.018L154.19 0z" fill="#a6a6a6"/><path d="M11.823 54.775a55.9 55.9 0 0 1-1.266-.015 17.76 17.76 0 0 1-2.617-.228c-.807-.14-1.59-.398-2.32-.767a7.57 7.57 0 0 1-1.956-1.423 7.45 7.45 0 0 1-1.429-1.955 8.01 8.01 0 0 1-.76-2.32 17.38 17.38 0 0 1-.233-2.625l-.02-1.278v-32.34l.02-1.252a17.32 17.32 0 0 1 .232-2.621 8.06 8.06 0 0 1 .761-2.327c.365-.725.845-1.386 1.42-1.957A7.79 7.79 0 0 1 5.62 2.233a8.15 8.15 0 0 1 2.315-.762 17.62 17.62 0 0 1 2.626-.23l1.263-.017 145.154.018a17.34 17.34 0 0 1 2.602.228c.813.138 1.602.397 2.34.767a7.83 7.83 0 0 1 3.381 3.388 8.07 8.07 0 0 1 .749 2.308c.145.874.227 1.757.243 2.642l.004 1.246.01 1.53-.017 32.107c-.016.87-.096 1.737-.24 2.595-.13.813-.386 1.602-.756 2.338a7.67 7.67 0 0 1-1.422 1.94 7.58 7.58 0 0 1-1.959 1.431c-.735.372-1.523.632-2.335.77a17.56 17.56 0 0 1-2.617.228l-1.256.015-1.518.003-142.366-.003z" fill="#000"/><g fill="#fff"><path d="M34.676 28.42a6.93 6.93 0 0 1 3.299-5.813 7.09 7.09 0 0 0-5.588-3.021c-2.35-.247-4.63 1.407-5.828 1.407-1.22 0-3.066-1.382-5.052-1.34a7.44 7.44 0 0 0-6.262 3.819c-2.708 4.688-.688 11.577 1.906 15.367 1.298 1.855 2.814 3.928 4.8 3.855 1.942-.08 2.667-1.238 5-1.238 2.322 0 3.003 1.238 5.027 1.192 2.084-.034 3.397-1.864 4.65-3.737a15.35 15.35 0 0 0 2.126-4.33c-2.475-1.047-4.084-3.472-4.087-6.16h0zm-3.824-11.325a6.82 6.82 0 0 0 1.56-4.887 6.94 6.94 0 0 0-4.491 2.323 6.49 6.49 0 0 0-1.601 4.706 5.74 5.74 0 0 0 4.531-2.143h0zm28.37 20.9h-6.627l-1.6 4.7H48.2l6.277-17.385h2.916l6.277 17.385h-2.855l-1.6-4.7zm-5.94-2.168h5.253l-2.6-7.626h-.072l-2.6 7.626zm23.94.53c0 3.94-2.108 6.47-5.3 6.47-1.644.086-3.193-.775-3.988-2.218h-.06v6.278h-2.602V30.02h2.518v2.108h.048c.83-1.433 2.38-2.294 4.036-2.24 3.217 0 5.338 2.543 5.338 6.47zm-2.674 0c0-2.566-1.326-4.253-3.35-4.253-1.988 0-3.325 1.723-3.325 4.253 0 2.554 1.337 4.264 3.325 4.264 2.023 0 3.35-1.675 3.35-4.264zm16.624 0c0 3.94-2.108 6.47-5.3 6.47-1.644.086-3.193-.775-3.988-2.218h-.06v6.278h-2.602V30.02h2.518v2.108h.048c.83-1.433 2.38-2.294 4.036-2.24 3.217 0 5.338 2.543 5.338 6.47zm-2.674 0c0-2.566-1.326-4.253-3.35-4.253-1.988 0-3.325 1.723-3.325 4.253 0 2.554 1.337 4.264 3.325 4.264 2.023 0 3.35-1.675 3.35-4.264h0zm11.895 1.492c.193 1.724 1.868 2.856 4.156 2.856 2.193 0 3.77-1.132 3.77-2.687 0-1.35-.952-2.157-3.205-2.7l-2.253-.543c-3.192-.77-4.674-2.264-4.674-4.687 0-3 2.614-5.06 6.326-5.06 3.674 0 6.192 2.06 6.277 5.06h-2.626c-.157-1.735-1.6-2.782-3.687-2.782s-3.53 1.06-3.53 2.602c0 1.23.916 1.952 3.157 2.506l1.915.47c3.567.844 5.05 2.276 5.05 4.82 0 3.253-2.6 5.3-6.712 5.3-3.855 0-6.46-2-6.627-5.134h2.663zm16.3-10.83v3h2.4v2.06h-2.4v6.988c0 1.086.483 1.6 1.542 1.6a8.13 8.13 0 0 0 .856-.06v2.048a7 7 0 0 1-1.445.12c-2.566 0-3.567-.964-3.567-3.422V32.08h-1.843v-2.06h1.843v-3h2.614zm3.805 9.338c0-3.988 2.35-6.494 6.012-6.494 3.675 0 6.013 2.506 6.013 6.494 0 4-2.326 6.494-6.013 6.494s-6.012-2.495-6.012-6.494zm9.373 0c0-2.736-1.254-4.35-3.362-4.35s-3.36 1.627-3.36 4.35c0 2.747 1.252 4.35 3.36 4.35s3.362-1.602 3.362-4.35h0zm4.797-6.338h2.48v2.157h.06c.346-1.4 1.62-2.345 3.05-2.3a4.02 4.02 0 0 1 .89.097v2.434c-.38-.116-.773-.17-1.17-.157a2.62 2.62 0 0 0-2.711 2.916v7.518h-2.602V30.02zm18.478 8.952c-.35 2.3-2.6 3.88-5.458 3.88-3.687 0-5.976-2.47-5.976-6.434 0-3.976 2.3-6.554 5.867-6.554 3.507 0 5.712 2.4 5.712 6.252v.9h-8.952v.157a3.3 3.3 0 0 0 3.41 3.59 2.87 2.87 0 0 0 2.927-1.783h2.47zm-8.795-3.783h6.337a3.05 3.05 0 0 0-3.109-3.217 3.21 3.21 0 0 0-3.228 3.217h0zM52.957 12.044a3.66 3.66 0 0 1 2.948 1.168 3.82 3.82 0 0 1 .983 3.067c0 2.723-1.442 4.3-3.93 4.3H49.94v-8.524h3.017zm-1.72 7.32h1.575a2.6 2.6 0 0 0 2.092-.864 2.72 2.72 0 0 0 .663-2.202c.107-.795-.14-1.597-.673-2.187a2.6 2.6 0 0 0-2.082-.86h-1.575v6.114zm7.116-2.014c-.108-1.153.434-2.27 1.398-2.88a2.94 2.94 0 0 1 3.15 0c.965.6 1.506 1.727 1.398 2.88.1 1.154-.43 2.272-1.397 2.884s-2.187.612-3.153 0-1.507-1.73-1.397-2.884zm4.666 0c0-1.394-.614-2.2-1.7-2.2s-1.7.815-1.7 2.2c0 1.406.608 2.215 1.7 2.215s1.7-.815 1.7-2.215h0zm9.184 3.218h-1.3L69.6 15.83h-.098l-1.297 4.738h-1.278L65.2 14.135h1.262l1.13 4.9h.093l1.296-4.9h1.194l1.296 4.9h.098l1.124-4.9h1.244z"/><use xlink:href="#B"/><path d="M82.73 11.624h1.244v8.944H82.73zm2.975 5.726c-.108-1.153.434-2.27 1.398-2.88a2.94 2.94 0 0 1 3.15 0c.965.6 1.506 1.727 1.398 2.88.1 1.154-.43 2.272-1.397 2.884s-2.188.612-3.153 0a3.07 3.07 0 0 1-1.397-2.884h0zm4.666 0c0-1.394-.614-2.2-1.7-2.2s-1.7.815-1.7 2.2c0 1.406.608 2.215 1.7 2.215s1.7-.815 1.7-2.215h0zm2.59 1.4c0-1.158.845-1.825 2.345-1.92l1.708-.1v-.555c0-.68-.44-1.063-1.3-1.063-.695 0-1.176.26-1.314.715h-1.204c.127-1.105 1.146-1.814 2.576-1.814 1.58 0 2.472.803 2.472 2.162v4.395h-1.198v-.904h-.098a2.11 2.11 0 0 1-1.894 1.01 1.88 1.88 0 0 1-1.469-.487 1.96 1.96 0 0 1-.632-1.438h0zm4.052-.55v-.538l-1.54.1c-.868.06-1.262.36-1.262.928 0 .58.492.916 1.17.916.4.04.8-.085 1.108-.35s.497-.646.524-1.056zm2.875-.85c0-2.033 1.024-3.32 2.617-3.32a2.07 2.07 0 0 1 1.933 1.129h.093v-3.533h1.244v8.944h-1.192v-1.016h-.098a2.18 2.18 0 0 1-1.98 1.122c-1.604 0-2.617-1.288-2.617-3.325zm1.285 0c0 1.364.63 2.185 1.684 2.185s1.697-.833 1.697-2.18c0-1.34-.655-2.185-1.697-2.185s-1.684.827-1.684 2.18h0zm9.75 0c-.108-1.153.434-2.27 1.398-2.88a2.94 2.94 0 0 1 3.15 0c.965.6 1.506 1.727 1.398 2.88.1 1.154-.43 2.272-1.397 2.884s-2.187.612-3.153 0-1.507-1.73-1.397-2.884h0zm4.666 0c0-1.394-.614-2.2-1.7-2.2s-1.7.815-1.7 2.2c0 1.406.608 2.215 1.7 2.215s1.7-.815 1.7-2.215z"/><use xlink:href="#B" x="43.142"/><path d="M130.92 12.534v1.63h1.366v1.07h-1.366v3.308c0 .674.272.97.9.97a4.07 4.07 0 0 0 .474-.029v1.057a4.15 4.15 0 0 1-.677.065c-1.384 0-1.935-.497-1.935-1.737v-3.633h-1v-1.07h1v-1.63h1.246zm3.066-.9h1.233v3.545h.098c.34-.76 1.108-1.22 1.922-1.152.618-.034 1.218.214 1.638.678a2.15 2.15 0 0 1 .533 1.72v4.153h-1.245v-3.84c0-1.027-.47-1.548-1.348-1.548a1.45 1.45 0 0 0-1.165.44 1.52 1.52 0 0 0-.422 1.192v3.757h-1.244v-8.944zm12.68 7.206c-.35 1.213-1.5 1.997-2.732 1.86a2.84 2.84 0 0 1-2.21-.972 2.96 2.96 0 0 1-.703-2.348c-.112-.852.144-1.712.702-2.357s1.362-1 2.205-1.004c1.754 0 2.812 1.223 2.812 3.243v.443h-4.452v.07a1.72 1.72 0 0 0 .44 1.3 1.65 1.65 0 0 0 1.239.543c.6.075 1.2-.234 1.5-.78h1.198zm-4.376-2.073h3.184a1.57 1.57 0 0 0-.414-1.184 1.51 1.51 0 0 0-1.138-.483 1.59 1.59 0 0 0-1.16.482c-.307.314-.477.74-.472 1.184h0z"/></g></g><defs ><path id="B" d="M75.395 14.135h1.198v1.022h.093c.323-.752 1.08-1.213 1.88-1.146a2.03 2.03 0 0 1 1.655.661 2.12 2.12 0 0 1 .527 1.732v4.164h-1.244v-3.845c0-1.034-.44-1.548-1.36-1.548a1.43 1.43 0 0 0-1.12.462c-.29.313-.43.74-.385 1.168v3.763h-1.244v-6.433z"/></defs></svg>