<?xml version="1.0" encoding="UTF-8"?>
<svg width="26" height="26" viewBox="0 0 26 26" fill="none" xmlns="http://www.w3.org/2000/svg">
  <path d="M24.7186 9.1399L21.9187 6.33529L22.1352 6.1184C22.4731 5.77998 22.6588 5.33078 22.6588 4.85306C22.6588 3.86584 21.8576 3.06325 20.872 3.06325C20.3951 3.06325 19.9462 3.24929 19.6088 3.58772L19.3923 3.80461L16.5924 1L13.1327 4.46556L14.0091 5.3434C14.1706 5.50513 14.2592 5.71968 14.2592 5.94779C14.2592 6.41943 13.8766 6.80273 13.4057 6.80273C13.178 6.80273 12.9638 6.71392 12.8024 6.55218L11.926 5.67434L6.32627 11.2836L6.10975 11.0667C5.7719 10.7282 5.32346 10.5422 4.84655 10.5422C3.86099 10.5422 3.05977 11.3448 3.05977 12.332C3.05977 12.8097 3.24549 13.2594 3.58334 13.5974L3.79986 13.8142L1 16.6188L9.12614 24.7587L24.7186 9.1399ZM11.926 6.99625L12.1425 7.21314C12.4804 7.55156 12.9288 7.7376 13.4057 7.7376C14.3913 7.7376 15.1925 6.93501 15.1925 5.94779C15.1925 5.47007 15.0068 5.0204 14.6689 4.68245L14.4524 4.46556L16.5924 2.3219L19.3923 5.12651L20.2687 4.24867C20.4301 4.08694 20.6443 3.99812 20.872 3.99812C21.3429 3.99812 21.7255 4.38142 21.7255 4.85306C21.7255 5.08117 21.6369 5.29572 21.4754 5.45745L20.599 6.33529L23.3989 9.1399L16.5924 15.9579L13.7926 13.1533L12.9162 14.0311C12.7548 14.1929 12.5406 14.2817 12.3128 14.2817C11.842 14.2817 11.4594 13.8984 11.4594 13.4267C11.4594 13.1986 11.548 12.9841 11.7095 12.8223L12.5858 11.9445L9.78597 9.1399L11.926 6.99625ZM9.12614 23.4368L2.31967 16.6188L5.11953 13.8142L4.24318 12.9364C4.08172 12.7747 3.99305 12.5601 3.99305 12.332C3.99305 11.8604 4.3757 11.4771 4.84655 11.4771C5.07427 11.4771 5.28846 11.5659 5.44992 11.7276L6.32627 12.6055L9.12614 9.80085L11.2662 11.9445L11.0496 12.1614C10.7118 12.4998 10.5261 12.949 10.5261 13.4267C10.5261 14.414 11.3273 15.2165 12.3128 15.2165C12.7898 15.2165 13.2387 15.0305 13.5761 14.6921L13.7926 14.4752L15.9326 16.6188L9.12614 23.4368Z" fill="#A46FE2" stroke="#A46FE2" stroke-width="0.7"/>
</svg>