<svg xmlns="http://www.w3.org/2000/svg" width="48" height="56"><path d="M46.994 43.64c-.862 1.956-1.882 3.757-3.064 5.413-1.61 2.257-2.93 3.82-3.947 4.687-1.576 1.424-3.264 2.154-5.072 2.195-1.298 0-2.863-.363-4.685-1.1-1.828-.733-3.508-1.096-5.044-1.096-1.61 0-3.34.363-5.187 1.096s-3.342 1.12-4.482 1.158c-1.734.073-3.462-.678-5.187-2.254-1.1-.944-2.478-2.56-4.128-4.853-1.77-2.447-3.225-5.285-4.365-8.52C.612 36.873 0 33.49 0 30.212c0-3.753.825-7 2.478-9.702 1.3-2.18 3.027-3.897 5.2-5.16s4.5-1.905 7.017-1.946c1.377 0 3.183.42 5.427 1.24 2.238.825 3.675 1.244 4.305 1.244.47 0 2.067-.49 4.773-1.465 2.56-.905 4.72-1.28 6.488-1.132 4.794.38 8.396 2.238 10.792 5.584-4.288 2.553-6.41 6.13-6.367 10.716.04 3.573 1.358 6.547 3.95 8.908 1.175 1.096 2.487 1.943 3.947 2.544-.317.902-.65 1.766-1.006 2.596zM35.998 1.12c0 2.8-1.04 5.416-3.117 7.836-2.504 2.877-5.534 4.54-8.82 4.278a8.57 8.57 0 0 1-.066-1.061c0-2.69 1.19-5.566 3.306-7.92 1.056-1.19 2.4-2.182 4.028-2.972C32.956.504 34.493.074 35.938 0c.042.374.06.75.06 1.12h0z" fill="#222" fill-rule="nonzero"/></svg>