<svg xmlns="http://www.w3.org/2000/svg" width="24" height="24"><path d="M23.544 13.535c.252 0 .456-.202.456-.452v-2.31c0-.25-.204-.452-.456-.452h-5.777c-.36-2.713-2.622-4.835-5.413-5.003v-1.32h4.507c.252 0 .456-.202.456-.452V.452c0-.25-.204-.452-.456-.452H11.9c-.252 0-.456.202-.456.452V5.33c-2.698.255-4.86 2.345-5.2 4.993H.456c-.252 0-.456.202-.456.452v2.31c0 .25.204.452.456.452H1.72v7.253H.456C.204 20.788 0 21 0 21.24v2.31c0 .25.204.452.456.452h23.09c.252 0 .456-.202.456-.452v-2.31c0-.25-.204-.452-.456-.452h-1.013v-7.253h1.013zM12.355.903h4.05v2.19h-4.05V.903zM12 6.207c2.45 0 4.48 1.788 4.847 4.116H7.154C7.52 7.995 9.55 6.207 12 6.207zM.91 11.226H23.09v1.405H.91v-1.405zM15.9 20.788v-7.253h2.405v7.253H15.9zm-3.317 0v-7.253h2.405v7.253h-2.405zm-3.316 0v-7.253h2.405v7.253H9.266zm-3.316 0v-7.253h2.405v7.253H5.95zm-3.317-7.253h2.405v7.253H2.633v-7.253zm20.456 9.562H.91V21.69H23.09v1.405zm-1.468-2.31h-2.405v-7.253h2.405v7.253z" fill="#abc1cf" fill-rule="nonzero"/></svg>