<svg xmlns="http://www.w3.org/2000/svg" width="20" height="13" fill="#a46fe2" fill-rule="nonzero" stroke="#a46fe2" stroke-width=".1"><path d="M17.882.013H2.08C.933.013 0 .923 0 2.04v8.92c0 1.117.933 2.027 2.08 2.027h15.802c1.146 0 2.08-.9 2.08-2.027V2.04c0-1.117-.933-2.027-2.08-2.027zM19.13 10.96c0 .67-.56 1.216-1.248 1.216H2.08c-.688 0-1.248-.546-1.248-1.216V2.04c0-.67.56-1.216 1.248-1.216h15.802c.688 0 1.248.546 1.248 1.216v8.92z"/><path d="M19.545 2.445H.416A.41.41 0 0 0 0 2.851v2.433a.41.41 0 0 0 .416.405h19.13a.41.41 0 0 0 .416-.405V2.85a.41.41 0 0 0-.416-.405zm-.416 2.433H.832V3.256H19.13v1.622zM7.9 8.122h-5a.41.41 0 0 0-.416.405.41.41 0 0 0 .416.405h5a.41.41 0 0 0 .416-.405.41.41 0 0 0-.416-.405z"/><path d="M7.9 9.744h-5a.41.41 0 0 0-.416.405.41.41 0 0 0 .416.405h5a.41.41 0 0 0 .416-.405.41.41 0 0 0-.416-.405zM16.218 7.3h-.832c-.688 0-1.248.546-1.248 1.216v.8c0 .67.56 1.216 1.248 1.216h.832c.688 0 1.248-.546 1.248-1.216v-.8c0-.67-.56-1.216-1.248-1.216zm.416 2.027a.41.41 0 0 1-.416.405h-.832a.41.41 0 0 1-.416-.405v-.8a.41.41 0 0 1 .416-.405h.832a.41.41 0 0 1 .416.405v.8z"/></svg>