<svg xmlns="http://www.w3.org/2000/svg" width="47" height="56" fill="#222" fill-rule="evenodd"><path d="M9.882 17H8v12.6h.03v13.205c0 1 .83 1.828 1.853 1.828h3.96v8.126c0 1.796 1.476 3.253 3.297 3.253s3.297-1.456 3.297-3.253v-8.126h6.13v8.126c0 1.796 1.476 3.253 3.297 3.253s3.297-1.456 3.297-3.253v-8.126h3.958a1.84 1.84 0 0 0 1.852-1.828V29.6H39V17H9.882zM44 16c-1.657 0-3 1.448-3 3.234v14.532C41 35.552 42.343 37 44 37s3-1.448 3-3.234V19.234C47 17.448 45.657 16 44 16M3 16c-1.657 0-3 1.448-3 3.234v14.532C0 35.552 1.343 37 3 37s3-1.448 3-3.234V19.234C6 17.448 4.657 16 3 16m26.584-5.602c-.997 0-1.806-.787-1.806-1.757s.808-1.757 1.806-1.757S31.4 7.67 31.4 8.64s-.8 1.757-1.806 1.757m-13.167 0c-.997 0-1.806-.787-1.806-1.757s.808-1.757 1.806-1.757 1.806.787 1.806 1.757-.8 1.757-1.806 1.757m13.876-6.43l2.6-3.555c.054-.074-.023-.216-.173-.32s-.312-.126-.366-.052l-2.672 3.67c-1.806-.7-4-1.116-6.672-1.124-2.688-.008-4.9.407-6.7 1.085L13.656.043c-.054-.073-.218-.05-.366.052s-.226.245-.173.32l2.558 3.512C8.22 7.132 8 15 8 15h30s-.306-7.798-7.708-11.03"/></svg>