<svg xmlns="http://www.w3.org/2000/svg" width="100%" height="100%" viewBox="0 0 89 102"><path d="M32.37.825c-2.02-.735-4.324.362-5.07 2.41L.62 76.532c-.746 2.05.315 4.37 2.334 5.106l53.676 19.537c2.02.735 4.324-.362 5.07-2.41L88.38 25.468c.746-2.05-.315-4.37-2.334-5.106L32.37.825zM31 4.584L84.677 24.12 58 97.416 4.323 77.88 31 4.584zm15.773 14.254c-1.022-.372-2.157.168-2.535 1.206s.145 2.18 1.167 2.553l16.658 6.063c1.022.372 2.157-.168 2.535-1.206s-.145-2.18-1.167-2.553l-16.658-6.063zm2.857 18.067c-5.6-2.038-11.873.945-13.942 6.63s.817 12.004 6.418 14.042 11.873-.945 13.942-6.63-.817-12.003-6.418-14.042zm-1.368 3.76c3.6 1.3 5.414 5.28 4.084 8.936s-5.273 5.53-8.872 4.22-5.414-5.28-4.084-8.936 5.273-5.53 8.872-4.22zm-7.524 20.673c-5.48-1.995-11.096-2.196-15.896-.598s-8.797 5.093-10.62 10.102c-.358.984.198 2.2 1.167 2.553l37.018 13.474c.97.353 2.177-.222 2.535-1.206 1.823-5.01 1.008-10.255-1.642-14.565s-7.08-7.765-12.562-9.76zm-1.368 3.76c4.742 1.726 8.45 4.695 10.565 8.135 1.756 2.855 2.393 5.976 1.786 9.13L18.8 70.382c1.563-2.806 4.057-4.788 7.237-5.846 3.832-1.276 8.58-1.167 13.323.56z" fill="#f2f7fa" fill-rule="nonzero"/></svg>