<?xml version="1.0" encoding="UTF-8"?>
<svg width="40px" height="40px" viewBox="0 0 40 40" version="1.1" xmlns="http://www.w3.org/2000/svg" xmlns:xlink="http://www.w3.org/1999/xlink">
    <!-- Generator: sketchtool 62 (101010) - https://sketch.com -->
    <title>20FE2C39-AD9E-4458-A532-AC7601C73B15</title>
    <desc>Created with sketchtool.</desc>
    <g id="new-text-19.12" stroke="none" stroke-width="1" fill="none" fill-rule="evenodd">
        <g id="Industries/Fintech&amp;Banking" transform="translate(-1424.000000, -5160.000000)" fill="#A46FE2" fill-rule="nonzero">
            <g id="6-Advantages" transform="translate(266.000000, 4802.000000)">
                <g id="Treat-your-customers-right" transform="translate(968.000000, 334.000000)">
                    <g id="Treat-your-customers" transform="translate(190.000000, 24.000000)">
                        <path d="M13.8257031,17.34375 L26.1742969,17.34375 C26.8452344,17.34375 27.466875,17.0405469 27.88,16.511875 C28.293125,15.9832031 28.436875,15.3065625 28.2745313,14.6555469 L27.3523438,10.9571875 C26.9103906,9.1846875 25.5858594,7.82585937 23.91625,7.29835938 C24.4117187,6.55375 24.70125,5.66078125 24.70125,4.70125 C24.70125,2.10898438 22.5922656,0 20,0 C17.4077344,0 15.29875,2.10898437 15.29875,4.70132812 C15.29875,5.66085938 15.5882813,6.55375 16.08375,7.2984375 C14.4141406,7.8259375 13.0896094,9.18476562 12.6476563,10.9572656 L11.7254688,14.655625 C11.563125,15.3066406 11.7069531,15.9832031 12.12,16.5119531 C12.5330469,17.0407031 13.1547656,17.34375 13.8257031,17.34375 L13.8257031,17.34375 Z M20,2.34375 C21.2999219,2.34375 22.3575,3.40132812 22.3575,4.70132812 C22.3575,6.00125 21.2999219,7.05882812 20,7.05882812 C18.7000781,7.05882812 17.6425,6.00125 17.6425,4.70132812 C17.6425,3.40132812 18.7000781,2.34375 20,2.34375 Z M14.9217187,11.5242187 C15.2332031,10.275 16.3499219,9.40257812 17.6372656,9.40257812 L22.3626563,9.40257812 C23.6500781,9.40257812 24.7667188,10.275 25.0782031,11.5242187 L25.9449219,15 L14.0550781,15 L14.9217187,11.5242187 Z" id="Shape"></path>
                        <path d="M39.9704688,11.8884375 C39.9663281,10.1035937 38.6286719,8.58367188 36.8589844,8.35289063 C35.8394531,8.21960938 34.8114844,8.53273438 34.0388281,9.21109375 C33.2661719,9.88960938 32.8230469,10.8683594 32.8230469,11.8965625 L32.823125,17.5911719 C32.7494531,17.5864844 32.6752344,17.5841406 32.6007812,17.5841406 C31.6754687,17.5841406 30.8055469,17.9444531 30.1513281,18.59875 L27.0792187,21.6707812 C27.0492187,21.7007031 27.0075781,21.7149219 26.9657031,21.7103125 C26.9444531,21.7078906 26.9232031,21.7060156 26.9017969,21.7047656 L25.5239844,21.6224219 C24.3802344,21.5014063 23.2592969,21.8971875 22.4444531,22.711875 L20.544375,24.6120312 C20.3465625,24.8097656 20.1654687,25.0196875 20.0000781,25.2391406 C19.8346875,25.0196094 19.6535156,24.8097656 19.4557812,24.6120312 L17.555625,22.7117969 C16.7408594,21.8971875 15.6203906,21.5014844 14.4761719,21.6224219 L13.0983594,21.7047656 C13.0770312,21.7060937 13.0557031,21.7078906 13.0344531,21.7103125 C12.991875,21.7150781 12.9509375,21.7007031 12.9209375,21.6708594 L9.84882812,18.59875 C9.19453125,17.9444531 8.3246875,17.5841406 7.399375,17.5841406 C7.32492187,17.5841406 7.25070312,17.5864844 7.17703125,17.5911719 L7.17710937,11.8965625 C7.17710937,10.8683594 6.7340625,9.88960938 5.96132812,9.21109375 C5.18867187,8.53257813 4.16078125,8.21953125 3.14117187,8.35289063 C1.37140625,8.58367188 0.03375,10.1035938 0.029609375,11.8884375 L-1.27164312e-05,24.8051563 C-0.003046875,26.1523438 0.5415625,27.4714063 1.49414062,28.4239844 L8.984375,35.9141406 L8.984375,38.046875 C8.984375,39.1238281 9.86054687,40 10.9375,40 L19.21875,40 C19.4964844,40 19.7605469,39.9413281 20,39.8364062 C20.2394531,39.9413281 20.5035156,40 20.78125,40 L29.0625,40 C30.1394531,40 31.015625,39.1238281 31.015625,38.046875 L31.015625,35.9141406 L38.5058594,28.4239844 C39.4584375,27.4714063 40.0030469,26.1523438 40.0000127,24.8051562 L39.9704688,11.8884375 Z M36.8485938,26.7667188 L29.0151563,34.6001563 C28.7953906,34.8199219 28.671875,35.1179688 28.671875,35.42875 L28.671875,37.65625 L21.171875,37.65625 L21.171875,28.7553906 C21.171875,27.81625 21.5375781,26.9334375 22.2016406,26.2694531 L24.1017188,24.369375 C24.4160156,24.0550781 24.8494531,23.90375 25.2908594,23.9547656 C25.3121875,23.9571875 25.3335156,23.9591406 25.355,23.9603906 L26.735,24.0428125 C27.4789844,24.1179688 28.2065625,23.858125 28.7365625,23.3282813 L31.8086719,20.2561719 C32.2455469,19.8195313 32.9561719,19.819375 33.3930469,20.2561719 C33.8298438,20.6930469 33.8298438,21.4036719 33.3930469,21.8405469 L29.0152344,26.2183594 C28.5575781,26.6759375 28.5575781,27.4179688 29.0152344,27.875625 C29.4728125,28.3332031 30.2148438,28.3332031 30.6725,27.875625 L35.0503125,23.4978125 C35.7046094,22.8435156 36.0649219,21.9735938 36.0649219,21.0482813 C36.0649219,20.1796094 35.7473438,19.3596875 35.1670313,18.72125 L35.1669531,11.8967188 C35.1669531,11.5375781 35.3155469,11.209375 35.5853125,10.9725 C35.8551563,10.7355469 36.1997656,10.6309375 36.5560156,10.6771094 C37.1650781,10.7565625 37.6253906,11.2796875 37.626875,11.8939063 L37.6562568,24.8104688 C37.6578906,25.53875 37.3635156,26.2517969 36.8485938,26.7667188 L36.8485938,26.7667188 Z M3.15148438,26.7667188 C2.6365625,26.2517188 2.3421875,25.5386719 2.3438213,24.8104688 L2.37335938,11.8938281 C2.37476563,11.2795313 2.83515625,10.7563281 3.44421875,10.6769531 C3.80039063,10.6307031 4.145,10.7353906 4.41484375,10.9723438 C4.6846875,11.2092188 4.83320313,11.5374219 4.83320313,11.8965625 L4.833125,18.7210938 C4.2528125,19.3595313 3.93523438,20.1794531 3.93523438,21.048125 C3.93523438,21.9734375 4.29554688,22.8433594 4.94984375,23.4976563 L9.32765625,27.8754688 C9.78523438,28.3330469 10.5272656,28.3330469 10.9849219,27.8754688 C11.4425781,27.4178906 11.4425781,26.6758594 10.9849219,26.2182031 L6.60703125,21.8404687 C6.17023438,21.4035938 6.17023438,20.6929688 6.60703125,20.2560938 C7.04390625,19.819375 7.75453125,19.8194531 8.19140625,20.2560938 L11.2635938,23.3282813 C11.7934375,23.858125 12.5208594,24.1179688 13.2650781,24.0428125 L14.6450781,23.9603906 C14.6664844,23.9590625 14.6878906,23.9571875 14.7092188,23.9547656 C15.1503906,23.9042188 15.5840625,24.0550781 15.8982813,24.3692969 L17.7984375,26.2694531 C18.4625,26.9334375 18.828125,27.8163281 18.828125,28.7553906 L18.828125,37.65625 L11.328125,37.65625 L11.328125,35.42875 C11.328125,35.1178906 11.2046094,34.8198438 10.9848438,34.6001563 L3.15148438,26.7667188 Z" id="Shape"></path>
                    </g>
                </g>
            </g>
        </g>
    </g>
</svg>