<svg xmlns="http://www.w3.org/2000/svg" width="16" height="20" fill="#a46fe2" fill-rule="evenodd"><path d="M10 0v1.25H1.25v17.5h13.5V6H16v13a1 1 0 0 1-1 1H1a1 1 0 0 1-1-1V1a1 1 0 0 1 1-1h9zM5.733 13c.473 0 .88-.08 1.218-.24a1.73 1.73 0 0 0 .777-.691c.18-.3.268-.66.268-1.076s-.1-.768-.27-1.067-.44-.53-.78-.688S6.202 9 5.733 9h0H4v4h1.733zm-.077-.843H5.12V9.843h.536c.822 0 1.233.384 1.233 1.152 0 .4-.102.68-.307.874s-.513.3-.926.3h0zm5.08.843V9.854H12V9H8.343v.854h1.263V13h1.132z" fill-rule="nonzero"/><path d="M10 0l6 6.002h-5.5a.5.5 0 0 1-.5-.5V0z"/></svg>