<?xml version="1.0" encoding="UTF-8"?>
<svg width="40px" height="40px" viewBox="0 0 40 40" version="1.1" xmlns="http://www.w3.org/2000/svg" xmlns:xlink="http://www.w3.org/1999/xlink">
    <!-- Generator: sketchtool 62 (101010) - https://sketch.com -->
    <title>00147E5B-CB32-4F86-8A7E-A8277E2EC347</title>
    <desc>Created with sketchtool.</desc>
    <g id="new-text-19.12" stroke="none" stroke-width="1" fill="none" fill-rule="evenodd">
        <g id="Industries/Fintech&amp;Banking" transform="translate(-940.000000, -5160.000000)" fill="#A46FE2" fill-rule="nonzero">
            <g id="6-Advantages" transform="translate(266.000000, 4802.000000)">
                <g id="Optimise-your-business-processes" transform="translate(484.000000, 334.000000)">
                    <g id="optimise-process" transform="translate(190.000000, 24.000000)">
                        <path d="M38.0866406,11.6373437 L35.9598437,12.6222656 C37.0854687,15.0528125 37.65625,17.5350781 37.65625,20 C37.65625,29.7357031 29.7357031,37.65625 20,37.65625 C16.4475781,37.65625 13.0232031,36.5625 10.0353125,34.4846875 C10.4982812,33.2355469 10.2297656,31.774375 9.22765625,30.7722656 C7.85695312,29.4015625 5.62648437,29.4016406 4.25578125,30.7722656 C2.885,32.1429687 2.885,34.3733594 4.25578125,35.7441406 C5.40867187,36.8971094 7.17453125,37.0829687 8.52515625,36.2882812 C11.9471094,38.719375 15.8949219,40 20,40 C31.0124219,40 40,31.0117969 40,20 C40,17.1924219 39.35625,14.3788281 38.0866406,11.6373437 Z M7.57039062,34.0869531 C7.1134375,34.5439062 6.37015625,34.5439844 5.91304688,34.0869531 C5.45609375,33.63 5.45609375,32.8865625 5.91304688,32.4296875 C6.36984375,31.9728125 7.11335937,31.9726562 7.57039062,32.4296875 C8.02734375,32.8864844 8.02734375,33.63 7.57039062,34.0869531 Z" id="Shape"></path>
                        <path d="M25.859375,15.3125 L25.859375,11.796875 L28.203125,11.796875 L28.203125,9.453125 L11.796875,9.453125 L11.796875,11.796875 L14.140625,11.796875 L14.140625,15.3125 C14.140625,17.2271875 15.0639063,18.9300781 16.4884375,20 C15.0639062,21.0699219 14.140625,22.7728125 14.140625,24.6875 L14.140625,28.203125 L11.796875,28.203125 L11.796875,30.546875 L28.203125,30.546875 L28.203125,28.203125 L25.859375,28.203125 L25.859375,24.6875 C25.859375,22.7728125 24.9360938,21.0699219 23.5115625,20 C24.9360937,18.9300781 25.859375,17.2271875 25.859375,15.3125 Z M23.515625,24.6875 L23.515625,28.203125 L16.484375,28.203125 L16.484375,24.6875 C16.484375,22.7489844 18.0614844,21.171875 20,21.171875 C21.9385156,21.171875 23.515625,22.7489844 23.515625,24.6875 Z M23.515625,15.3125 C23.515625,17.2510156 21.9385156,18.828125 20,18.828125 C18.0614844,18.828125 16.484375,17.2510156 16.484375,15.3125 L16.484375,11.796875 L23.515625,11.796875 L23.515625,15.3125 Z" id="Shape"></path>
                        <path d="M30.7723438,9.22773438 C32.1429687,10.5983594 34.3734375,10.5984375 35.7442187,9.22773438 C37.115,7.85703125 37.115,5.6265625 35.7442187,4.25585938 C34.5886719,3.1003125 32.8221875,2.91890625 31.4748437,3.71171875 C28.0528906,1.280625 24.1050781,0 20,0 C8.98757812,0 0,8.98820313 0,20 C0,22.8075781 0.64375,25.6211719 1.91335937,28.3626563 L4.04015625,27.3777344 C2.91453125,24.9471875 2.34375,22.4649219 2.34375,20 C2.34375,10.2642969 10.2642969,2.34375 20,2.34375 C23.5524219,2.34375 26.9767969,3.4375 29.9646875,5.5153125 C29.5017187,6.76445313 29.7702344,8.225625 30.7723438,9.22773438 Z M32.4296094,5.913125 C32.8865625,5.45625 33.6299219,5.45617188 34.0869531,5.913125 C34.5439063,6.37007813 34.5439063,7.11351563 34.0869531,7.57039062 C33.63,8.02734375 32.8865625,8.02742187 32.4296094,7.57039062 C31.9726563,7.11351563 31.9726563,6.37 32.4296094,5.913125 Z" id="Shape"></path>
                    </g>
                </g>
            </g>
        </g>
    </g>
</svg>