<svg xmlns="http://www.w3.org/2000/svg" width="19" height="24" fill="#abc1cf" fill-rule="nonzero"><path d="M18.613 3.982L9.737.05a.58.58 0 0 0-.473 0L.387 3.982a.6.6 0 0 0-.355.549v9.402a6.62 6.62 0 0 0 2.698 5.334l6.134 4.477a1.07 1.07 0 0 0 1.27 0l6.134-4.477a6.62 6.62 0 0 0 2.698-5.334V4.53a.6.6 0 0 0-.355-.549zm-.828 9.95c-.003 1.728-.823 3.35-2.207 4.363L9.5 22.732l-6.077-4.436C2.04 17.283 1.22 15.66 1.216 13.933v-9L9.5 1.253l8.284 3.67v9zM9.263 2.665L2.754 5.55a.6.6 0 0 0-.355.549v7.836a4.21 4.21 0 0 0 1.716 3.392l5.04 3.678a.59.59 0 0 0 .692 0l5.04-3.678a4.21 4.21 0 0 0 1.716-3.392V6.097a.6.6 0 0 0-.355-.549l-6.5-2.884a.58.58 0 0 0-.473 0zm6.154 3.824v7.445a3 3 0 0 1-1.225 2.42L9.5 19.78l-4.692-3.425c-.768-.562-1.223-1.462-1.225-2.42V6.488L9.5 3.867l5.917 2.62zm-9.112 6.206c-.26-.198-.632-.145-.828.12s-.143.64.118.838l2.367 1.796c.102.078.227.12.355.12.034 0 .067-.003.1-.008a.59.59 0 0 0 .392-.258l4.734-7.186c.117-.178.132-.406.038-.598a.59.59 0 0 0-1.023-.067l-4.387 6.66-1.866-1.417z"/></svg>