<?xml version="1.0" encoding="UTF-8"?>
<svg width="40px" height="40px" viewBox="0 0 40 40" version="1.1" xmlns="http://www.w3.org/2000/svg" xmlns:xlink="http://www.w3.org/1999/xlink">
    <!-- Generator: sketchtool 60 (101010) - https://sketch.com -->
    <title>C9A7667D-B384-45B3-9B69-CCC2A0EF9A08</title>
    <desc>Created with sketchtool.</desc>
    <g id="Asset-Artboard-Page" stroke="none" stroke-width="1" fill="none" fill-rule="evenodd">
        <g id="Productivity" fill="#A46FE2" fill-rule="nonzero">
            <g id="Combined-Shape">
                <path d="M0,40 L0,12 C0,11.4477153 0.44771525,11 1,11 L13,11 L13,7 C13,6.44771525 13.4477153,6 14,6 L25,6 L25,1 C25,0.44771525 25.4477153,0 26,0 L39,0 C39.5522847,0 40,0.44771525 40,1 L40,40 L0,40 Z M13,13 L2,13 L2,38 L13,38 L13,13 Z M25,8 L15,8 L15,38 L25,38 L25,8 Z M38,2 L27,2 L27,38 L38,38 L38,2 Z"></path>
            </g>
        </g>
    </g>
</svg>