<?xml version="1.0" encoding="UTF-8"?>
<svg width="88" height="88" viewBox="0 0 88 88" fill="none" xmlns="http://www.w3.org/2000/svg">
<rect width="88" height="88" rx="4" fill="#F6EFFF"/>
<path d="M30.6667 28H25.3333C24.5973 28 24 28.5973 24 29.3333V34.6667C24 35.4027 24.5973 36 25.3333 36C26.0693 36 26.6667 35.4027 26.6667 34.6667V30.6667H30.6667C31.4027 30.6667 32 30.0693 32 29.3333C32 28.5973 31.4027 28 30.6667 28Z" fill="#A46FE2"/>
<path d="M62.6667 52C61.9307 52 61.3333 52.5973 61.3333 53.3333V57.3333H57.3333C56.5973 57.3333 56 57.9307 56 58.6667C56 59.4027 56.5973 60 57.3333 60H62.6667C63.4027 60 64 59.4027 64 58.6667V53.3333C64 52.5973 63.4027 52 62.6667 52Z" fill="#A46FE2"/>
<path d="M62.6667 28H57.3333C56.5973 28 56 28.5973 56 29.3333C56 30.0693 56.5973 30.6667 57.3333 30.6667H61.3333V34.6667C61.3333 35.4027 61.9307 36 62.6667 36C63.4027 36 64 35.4027 64 34.6667V29.3333C64 28.5973 63.4027 28 62.6667 28Z" fill="#A46FE2"/>
<path d="M30.6667 57.3333H26.6667V53.3333C26.6667 52.5973 26.0693 52 25.3333 52C24.5973 52 24 52.5973 24 53.3333V58.6667C24 59.4027 24.5973 60 25.3333 60H30.6667C31.4027 60 32 59.4027 32 58.6667C32 57.9307 31.4027 57.3333 30.6667 57.3333Z" fill="#A46FE2"/>
<path d="M31.9999 33.3333H29.3333V54.6666H31.9999V33.3333Z" fill="#A46FE2"/>
<path d="M37.3334 33.3333H34.6667V49.3333H37.3334V33.3333Z" fill="#A46FE2"/>
<path d="M42.6667 33.3333H40V49.3333H42.6667V33.3333Z" fill="#A46FE2"/>
<path d="M48.0002 33.3333H45.3335V54.6666H48.0002V33.3333Z" fill="#A46FE2"/>
<path d="M53.3332 33.3333H50.6665V49.3333H53.3332V33.3333Z" fill="#A46FE2"/>
<path d="M58.6667 33.3333H56V54.6666H58.6667V33.3333Z" fill="#A46FE2"/>
<path d="M37.3334 52H34.6667V54.6667H37.3334V52Z" fill="#A46FE2"/>
<path d="M42.6667 52H40V54.6667H42.6667V52Z" fill="#A46FE2"/>
<path d="M53.3332 52H50.6665V54.6667H53.3332V52Z" fill="#A46FE2"/>
</svg>