<?xml version="1.0" encoding="UTF-8"?>
<svg width="40px" height="40px" viewBox="0 0 40 40" version="1.1" xmlns="http://www.w3.org/2000/svg" xmlns:xlink="http://www.w3.org/1999/xlink">
    <!-- Generator: sketchtool 60 (101010) - https://sketch.com -->
    <title>45DF837D-3FD8-41D7-B48F-093E89E8CF53</title>
    <desc>Created with sketchtool.</desc>
    <g id="Asset-Artboard-Page" stroke="none" stroke-width="1" fill="none" fill-rule="evenodd">
        <g id="Hardware-assisted--Complete--Authentication-gear-purple" fill="#A46FE2" fill-rule="nonzero">
            <g id="gear" transform="translate(20.000000, 20.000000) scale(1, -1) translate(-20.000000, -20.000000) ">
                <path d="M37.9523468,15.8011281 L35.1447756,15.3248381 C34.8523202,14.3806142 34.4763062,13.4698141 34.0167336,12.6007938 L35.6711952,10.2861918 C36.373088,9.30018801 36.2644617,7.95487779 35.4038074,7.10256946 L32.9137592,4.61249217 C32.4458306,4.14455818 31.8274965,3.88552329 31.167383,3.88552329 C30.6493193,3.88552329 30.1563231,4.04428661 29.7385298,4.34510132 L27.4155988,5.9995822 C26.5131652,5.52329225 25.5689523,5.13056194 24.5913159,4.8381032 L24.1233873,2.06392313 C23.9228465,0.869020263 22.8950749,0 21.6834742,0 L18.1656543,0 C16.9540536,0 15.926282,0.869020263 15.7257412,2.06392313 L15.241101,4.90495091 C14.3052439,5.19740965 13.3944544,5.581784 12.5254443,6.04971799 L10.2275809,4.3952371 C9.80978757,4.09442239 9.30843557,3.93565908 8.79037183,3.93565908 C8.13025835,3.93565908 7.50356835,4.19469396 7.04399567,4.66262795 L4.54559152,7.15270524 C3.69329311,8.00501358 3.57631097,9.35032379 4.27820378,10.3363276 L5.94937713,12.6843535 C5.48980446,13.5617297 5.12214632,14.4725298 4.83804685,15.4167537 L2.06389909,15.8846877 C0.869010143,16.0852308 0,17.1130144 0,18.3246292 L0,21.8424901 C0,23.0541049 0.869010143,24.0818884 2.06389909,24.2824316 L4.90489379,24.7670775 C5.19734912,25.7029455 5.58171899,26.6137456 6.04964753,27.4827658 L4.40354178,29.7723 C3.70164897,30.7583037 3.81027524,32.103614 4.67092952,32.9559223 L7.16097781,35.4459996 C7.62890635,35.9139336 8.24724049,36.1729685 8.90735396,36.1729685 C9.4254177,36.1729685 9.91841384,36.0142051 10.3362072,35.7133904 L12.6842057,34.0421976 C13.5281483,34.4850637 14.4138702,34.8443702 15.3246596,35.1284729 L15.7925882,37.9360769 C15.993129,39.1309797 17.0209006,40 18.2325013,40 L21.758677,40 C22.9702777,40 23.9980493,39.1309797 24.1985901,37.9360769 L24.6748745,35.1284729 C25.6190875,34.8360142 26.5298769,34.4599958 27.3988871,34.0004178 L29.7134622,35.6548987 C30.1312555,35.9557134 30.6326075,36.1144767 31.1506713,36.1144767 L31.1506713,36.1144767 C31.8107847,36.1144767 32.4291189,35.8554418 32.8970474,35.3875078 L35.3870957,32.8974305 C36.2393941,32.0451222 36.3563763,30.699812 35.6544834,29.7138082 L34.0000218,27.3908502 C34.4595945,26.513474 34.8439644,25.6026739 35.1280638,24.6668059 L37.9356351,24.1988719 C39.130524,23.9983288 39.9997711,22.9705452 39.9997711,21.7589304 L39.9997711,18.2410696 C40.0162459,17.0294548 39.1472358,16.0016712 37.9523468,15.8011281 Z M37.7601618,21.7589307 C37.7601618,21.8675582 37.684959,21.9594739 37.5763327,21.9761858 L34.0668687,22.5611033 C33.6240078,22.636307 33.2730614,22.9621896 33.1644351,23.3883437 C32.8469122,24.6166705 32.3622719,25.7948614 31.7105143,26.8894927 C31.4849059,27.2738671 31.5016176,27.7501571 31.7606495,28.1178195 L33.8245486,31.025695 C33.8830396,31.1092547 33.8746838,31.2345941 33.799481,31.3097978 L31.3094327,33.7998751 C31.2509416,33.8583669 31.1924505,33.8667229 31.1506712,33.8667229 C31.100536,33.8667229 31.0587567,33.8500109 31.0253332,33.824943 L28.1258474,31.7610199 C27.7665452,31.501985 27.2819049,31.4852731 26.897535,31.7108841 C25.8029165,32.3626493 24.6247393,32.8472952 23.3964268,33.1648219 C22.9619218,33.2734494 22.636043,33.6327559 22.569196,34.067266 L21.9759295,37.576771 C21.9592178,37.6853985 21.8673032,37.7606022 21.758677,37.7606022 L18.2408571,37.7606022 C18.1322308,37.7606022 18.0403163,37.6853985 18.0236045,37.576771 L17.4386938,34.067266 C17.363491,33.6243999 17.0376122,33.2734494 16.611463,33.1648219 C15.4165741,32.8556512 14.2634645,32.3793612 13.1855577,31.7610199 C13.0100845,31.6607483 12.8095437,31.6106125 12.6173587,31.6106125 C12.3917503,31.6106125 12.1577861,31.6774602 11.9656011,31.8195116 L9.04104775,33.9001467 C8.99926842,33.9252146 8.95748908,33.9419265 8.91570975,33.9419265 C8.88228628,33.9419265 8.81543935,33.9335706 8.75694828,33.8750788 L6.26689999,31.3850015 C6.19169719,31.3097978 6.18334132,31.1928143 6.24183239,31.1008987 L8.29737561,28.218091 C8.55640748,27.8504286 8.57311921,27.3657827 8.34751081,26.9814083 C7.6957532,25.895133 7.1944012,24.716942 6.87687826,23.4886153 C6.75989613,23.0624611 6.40894972,22.7365785 5.97444465,22.6613748 L2.43991301,22.0597454 C2.33128674,22.0430335 2.25608394,21.9511179 2.25608394,21.8424904 L2.25608394,18.3246294 C2.25608394,18.2160019 2.33128674,18.1240863 2.43991301,18.1073744 L5.92430945,17.5224569 C6.36717039,17.4472532 6.72647266,17.1213706 6.83509893,16.6868604 C7.144266,15.4585337 7.6205504,14.2719868 8.26395214,13.1773555 C8.48956055,12.7929811 8.46449295,12.3166912 8.20546108,11.9573847 L6.12485025,9.03279722 C6.06635919,8.94923758 6.07471505,8.82389811 6.14991785,8.74869444 L8.63996615,6.2586171 C8.69845722,6.20012535 8.75694828,6.19176939 8.79872762,6.19176939 C8.84886282,6.19176939 8.89064215,6.20848132 8.92406562,6.23354921 L11.8068397,8.2891164 C12.1744978,8.54815129 12.6591381,8.56486322 13.0435079,8.33925219 C14.1297706,7.68748698 15.3079478,7.18612913 16.5362602,6.86860249 C16.9624094,6.75161899 17.2882882,6.40066849 17.363491,5.96615835 L17.9651135,2.43158549 C17.9818252,2.32295796 18.0737397,2.24775428 18.182366,2.24775428 L21.7001859,2.24775428 C21.8088122,2.24775428 21.9007267,2.32295796 21.9174384,2.43158549 L22.5023491,5.91602257 C22.5775519,6.35888867 22.9034307,6.71819513 23.3379358,6.82682267 C24.5996717,7.14434931 25.8029165,7.6373512 26.9226026,8.29747237 C27.3069725,8.5230834 27.7832569,8.50637147 28.150915,8.24733658 L31.0336891,6.17505746 C31.0754684,6.14998957 31.1172477,6.13327764 31.1590271,6.13327764 C31.1924505,6.13327764 31.2592975,6.1416336 31.3177885,6.20012535 L33.8078368,8.69020269 C33.8830396,8.76540636 33.8913955,8.88238986 33.8329044,8.97430547 L31.7690053,11.8738251 C31.5099735,12.2331315 31.4932617,12.7177774 31.7188701,13.1021518 C32.3706277,14.1967831 32.855268,15.3749741 33.172791,16.6033008 C33.2814172,17.0378109 33.6407195,17.3636935 34.0752246,17.4305413 L37.5846886,18.0238147 C37.6933149,18.0405266 37.7685177,18.1324422 37.7685177,18.2410698 L37.7685177,21.7589307 L37.7601618,21.7589307 L37.7601618,21.7589307 Z" id="Shape"></path>
                <path d="M20,11.4285714 C15.2703637,11.4285714 11.4285714,15.2703637 11.4285714,20 C11.4285714,24.7296363 15.2703637,28.5714286 20,28.5714286 C24.7296363,28.5714286 28.5714286,24.7296363 28.5714286,20 C28.5714286,15.2703637 24.7296363,11.4285714 20,11.4285714 Z M20,26.3310746 C16.5067072,26.3310746 13.6689254,23.4932928 13.6689254,20 C13.6689254,16.5067072 16.5067072,13.6689254 20,13.6689254 C23.4932928,13.6689254 26.3310746,16.5067072 26.3310746,20 C26.3310746,23.4932928 23.4932928,26.3310746 20,26.3310746 Z" id="Shape"></path>
            </g>
        </g>
    </g>
</svg>