<svg xmlns="http://www.w3.org/2000/svg" width="20" height="16" fill="#a46fe2" fill-rule="nonzero"><path d="M3.333 0H.667A.67.67 0 0 0 0 .667v2.667A.67.67 0 0 0 .667 4a.67.67 0 0 0 .667-.667v-2h2a.67.67 0 0 0 .667-.667A.67.67 0 0 0 3.333 0zm16 12a.67.67 0 0 0-.667.667v2h-2a.67.67 0 0 0-.667.667.67.67 0 0 0 .667.667h2.667a.67.67 0 0 0 .667-.667v-2.667a.67.67 0 0 0-.667-.667zm0-12h-2.667A.67.67 0 0 0 16 .667a.67.67 0 0 0 .667.667h2v2a.67.67 0 0 0 .667.667.67.67 0 0 0 .666-.668V.667A.67.67 0 0 0 19.333 0zm-16 14.667h-2v-2A.67.67 0 0 0 .666 12a.67.67 0 0 0-.666.667v2.667A.67.67 0 0 0 .667 16h2.667A.67.67 0 0 0 4 15.333a.67.67 0 0 0-.667-.667zm-.666-12H4v10.667H2.667zm2.666 0h1.333v8H5.333zm2.667 0h1.333v8H8zm2.667 0H12v10.667h-1.333zm2.666 0h1.333v8h-1.333zm2.667 0h1.333v10.667H16zM5.333 12h1.333v1.333H5.333zM8 12h1.333v1.333H8zm5.333 0h1.333v1.333h-1.333z"/></svg>