<svg xmlns="http://www.w3.org/2000/svg" width="63" height="56" fill="#222" fill-rule="nonzero"><path d="M63 28.006c0-4.166-5.226-8.114-13.24-10.562C51.6 9.293 50.788 2.807 47.167.73 46.332.244 45.356.013 44.3.013V2.87c.59 0 1.066.115 1.464.333 1.746 1 2.504 4.807 1.913 9.703-.14 1.205-.372 2.474-.655 3.768-2.517-.615-5.265-1.09-8.154-1.397-1.734-2.37-3.53-4.525-5.342-6.41 4.186-3.884 8.116-6.01 10.787-6.01V0c-3.53 0-8.154 2.512-12.83 6.87C26.8 2.538 22.177.05 18.646.05V2.9c2.658 0 6.6 2.115 10.787 5.973-1.798 1.884-3.596 4.025-5.304 6.396-2.902.308-5.65.782-8.167 1.4-.295-1.282-.514-2.525-.668-3.717-.604-4.896.14-8.703 1.875-9.716.385-.23.886-.333 1.477-.333V.064c-1.08 0-2.055.23-2.902.718-3.608 2.076-4.417 8.55-2.555 16.676C5.2 19.92 0 23.854 0 28.006c0 4.166 5.226 8.114 13.24 10.562-1.85 8.152-1.027 14.638 2.594 16.714.835.487 1.81.718 2.89.718 3.53 0 8.154-2.512 12.83-6.87 4.674 4.332 9.297 6.82 12.83 6.82 1.08 0 2.055-.23 2.902-.718 3.608-2.076 4.417-8.55 2.555-16.676C57.8 36.107 63 32.16 63 28.006zm-16.72-8.55c-.475 1.653-1.066 3.358-1.734 5.063-.526-1.025-1.08-2.05-1.682-3.076a69.33 69.33 0 0 0-1.849-2.999 58.04 58.04 0 0 1 5.265 1.013zm-5.88 13.65c-1.002 1.73-2.03 3.37-3.095 4.896a66.94 66.94 0 0 1-5.804.256 71.83 71.83 0 0 1-5.779-.244 70.64 70.64 0 0 1-3.108-4.871 66.72 66.72 0 0 1-2.671-5.101c.796-1.718 1.695-3.435 2.658-5.114 1.002-1.73 2.03-3.37 3.095-4.896a66.94 66.94 0 0 1 5.804-.256 71.83 71.83 0 0 1 5.779.244 70.64 70.64 0 0 1 3.108 4.871 66.72 66.72 0 0 1 2.671 5.101c-.81 1.718-1.695 3.435-2.658 5.114zm4.148-1.666a54.86 54.86 0 0 1 1.772 5.101 57.73 57.73 0 0 1-5.291 1.025c.63-.987 1.258-2 1.85-3.038.59-1.025 1.143-2.064 1.67-3.09zm-13.02 13.676c-1.194-1.23-2.39-2.602-3.57-4.102a79.64 79.64 0 0 0 3.531.09 65.37 65.37 0 0 0 3.57-.09c-1.156 1.5-2.35 2.87-3.53 4.102zm-9.554-7.55a58.04 58.04 0 0 1-5.265-1.013c.475-1.653 1.066-3.358 1.734-5.063.526 1.025 1.08 2.05 1.682 3.076s1.22 2.025 1.85 3zm9.5-26.673c1.194 1.23 2.39 2.602 3.57 4.102a79.64 79.64 0 0 0-3.531-.09 65.37 65.37 0 0 0-3.57.09c1.156-1.5 2.35-2.87 3.53-4.102zm-9.503 7.55c-.63.987-1.258 2-1.85 3.038-.59 1.025-1.143 2.05-1.67 3.076a54.86 54.86 0 0 1-1.772-5.101 62.47 62.47 0 0 1 5.291-1.013zm-11.62 16.048C5.79 32.557 2.85 30.02 2.85 28.006s2.94-4.563 7.487-6.486c1.104-.474 2.31-.897 3.557-1.295.732 2.512 1.695 5.127 2.89 7.806-1.18 2.666-2.132 5.268-2.85 7.767-1.27-.397-2.478-.833-3.596-1.307zm6.91 18.316c-1.746-1-2.504-4.807-1.913-9.703.14-1.205.372-2.474.655-3.768 2.517.615 5.265 1.09 8.154 1.397 1.734 2.37 3.53 4.525 5.342 6.41-4.186 3.884-8.116 6.01-10.787 6.01-.578-.013-1.066-.128-1.45-.346zm30.46-9.767c.604 4.896-.14 8.703-1.875 9.716-.385.23-.886.333-1.477.333-2.658 0-6.6-2.115-10.787-5.973 1.798-1.884 3.596-4.025 5.304-6.396 2.902-.308 5.65-.782 8.167-1.4.295 1.295.526 2.538.668 3.73zm4.944-8.55c-1.104.474-2.31.897-3.557 1.295-.732-2.512-1.695-5.127-2.89-7.806 1.18-2.666 2.132-5.268 2.85-7.767 1.27.397 2.478.833 3.608 1.307 4.546 1.935 7.487 4.473 7.487 6.486-.013 2.012-2.954 4.563-7.5 6.486z"/><circle cx="31" cy="28" r="6"/></svg>