<svg xmlns="http://www.w3.org/2000/svg" width="100" height="104" fill-rule="evenodd"><path d="M60.377 21.874l.014.093c.02.147 1.642 15.2-5.534 23.3-2.896 3.283-6.748 4.9-11.773 4.947h-.223c-5.043-.046-8.887-1.665-11.763-4.95-6.75-7.62-5.7-21.734-5.56-23.205.002-.078.013-.156.026-.228C26.35 5.588 37.902 3.836 42.84 3.836h.257c6.165.138 16.574 2.664 17.28 18.038M31.832 2.818c-4.287 2.442-9.502 7.684-10.017 18.798-.173 1.782-1.438 17.22 6.478 26.192 3.54 4.03 8.365 6.125 14.342 6.23h.677c5.956-.102 10.792-2.2 14.354-6.23 7.906-8.96 6.65-24.408 6.482-26.14-.52-11.113-5.667-16.333-9.894-18.764C51.058 1.06 47.34.082 43.206-.001h-.345c-2.28 0-6.745.367-11.03 2.82m54.163 78.815v-.084l-.01-.193-.012-.346c-.132-4.388-.407-13.52-9.03-16.477l-.206-.062c-9.85-2.523-18-8.234-18.065-8.3-.388-.274-.885-.385-1.376-.302a1.89 1.89 0 0 0-1.234.786 1.92 1.92 0 0 0 .467 2.658c.086.062 8.66 6.098 19.233 8.83 5.652 2.02 6.3 7.767 6.448 13 0 .178-.003.312.013.444l.008.113c.023 2.054-.114 5.076-.47 6.86l-.1.448-.396.225c-3.682 2.103-17.325 8.962-38.266 8.962-20.84 0-34.573-6.875-38.285-8.98L4.325 89l-.1-.448c-.363-1.825-.513-4.903-.47-6.872 0-.08.006-.186.012-.292a3.13 3.13 0 0 0 .01-.224c.16-5.26.796-11.008 6.36-13.002 9.394-2.43 17.1-7.352 19.24-8.802l.112-.076c.826-.585 1.035-1.78.433-2.636a1.89 1.89 0 0 0-1.232-.786 1.87 1.87 0 0 0-1.399.317c-.046.037-8.098 5.74-18.112 8.294-.06.016-.103.03-.145.044C.437 67.488.15 76.947.028 80.986c-.001.22-.003.415-.022.607-.042 2.498.126 7.108 1.023 9.4a1.78 1.78 0 0 0 .716.876c.176.117 15.432 10.14 41.287 10.14 24.643 0 39.644-9.095 41.273-10.132.336-.22.595-.532.726-.877.858-2.3 1-6.96.963-9.357" fill="#a46fe2"/><g fill-rule="nonzero"><path d="M79 104c11.598 0 21-9.402 21-21s-9.402-21-21-21-21 9.402-21 21 9.402 21 21 21z" fill="#fbfbfb"/><path d="M79 104c11.598 0 21-9.402 21-21s-9.402-21-21-21-21 9.402-21 21 9.402 21 21 21zm0-4c-9.4 0-17-7.6-17-17s7.6-17 17-17 17 7.6 17 17-7.6 17-17 17zm-1.873-15.852L74.1 81.185c-.708-.693-1.826-.693-2.534 0a1.9 1.9 0 0 0 0 2.703l4.98 4.872a.83.83 0 0 0 1.167 0l8.725-8.537a1.9 1.9 0 0 0 0-2.703c-.708-.693-1.826-.693-2.534 0l-6.774 6.628z" fill="#a46fe2"/></g></svg>