<?xml version="1.0" encoding="UTF-8"?>
<svg width="25" height="25" viewBox="0 0 25 25" fill="none" xmlns="http://www.w3.org/2000/svg">
<g clip-path="url(#clip0)">
<path fill-rule="evenodd" clip-rule="evenodd" d="M15.9367 17.9367L9.12614 24.7587L1 16.6188L3.79986 13.8142L3.58334 13.5974C3.24549 13.2594 3.05977 12.8097 3.05977 12.332C3.05977 11.3448 3.86099 10.5422 4.84655 10.5422C5.32346 10.5422 5.7719 10.7282 6.10975 11.0667L6.32627 11.2836L7.37712 10.2309L8.09749 10.8312L6.32627 12.6055L5.44992 11.7276C5.28846 11.5659 5.07427 11.4771 4.84655 11.4771C4.3757 11.4771 3.99305 11.8604 3.99305 12.332C3.99305 12.5601 4.08172 12.7747 4.24318 12.9364L5.11953 13.8142L2.31967 16.6188L9.12614 23.4368L15.2763 17.2763L15.9367 17.9367ZM18.4063 15.4629L20.0521 13.8142L21.2589 12.6055L24.7186 9.1399L21.9187 6.33529L22.1352 6.1184C22.4731 5.77998 22.6588 5.33078 22.6588 4.85306C22.6588 3.86584 21.8576 3.06325 20.872 3.06325C20.3951 3.06325 19.9462 3.24929 19.6088 3.58772L19.3923 3.80461L16.5924 1L13.1327 4.46556L14.0091 5.3434C14.1706 5.50513 14.2592 5.71968 14.2592 5.94779C14.2592 6.41943 13.8766 6.80273 13.4057 6.80273C13.178 6.80273 12.9638 6.71392 12.8024 6.55218L11.926 5.67434L9.86701 7.73682L10.5604 8.36417L11.926 6.99625L12.1425 7.21314C12.4804 7.55156 12.9288 7.7376 13.4057 7.7376C14.3913 7.7376 15.1925 6.93501 15.1925 5.94779C15.1925 5.47007 15.0068 5.0204 14.6689 4.68245L14.4524 4.46556L16.5924 2.3219L19.3923 5.12651L20.2687 4.24867C20.4301 4.08694 20.6443 3.99812 20.872 3.99812C21.3429 3.99812 21.7255 4.38142 21.7255 4.85306C21.7255 5.08117 21.6369 5.29572 21.4754 5.45745L20.599 6.33529L21.999 7.7376L23.3989 9.1399L21.2589 11.2836L18.7325 13.8142L17.7129 14.8355L18.4063 15.4629Z" fill="#A46FE2"/>
<path d="M9.12614 24.7587L8.87844 25.006L9.12614 25.2541L9.37383 25.006L9.12614 24.7587ZM15.9367 17.9367L16.1844 18.184L16.4314 17.9365L16.1842 17.6892L15.9367 17.9367ZM1 16.6188L0.752303 16.3716L0.505444 16.6188L0.752303 16.8661L1 16.6188ZM3.79986 13.8142L4.04756 14.0615L4.29442 13.8142L4.04756 13.567L3.79986 13.8142ZM3.58334 13.5974L3.83104 13.3501L3.83087 13.3499L3.58334 13.5974ZM6.10975 11.0667L6.35745 10.8194L6.10975 11.0667ZM6.32627 11.2836L6.07858 11.5308L6.32627 11.7789L6.57397 11.5308L6.32627 11.2836ZM7.37712 10.2309L7.60118 9.96205L7.35543 9.75726L7.12942 9.98365L7.37712 10.2309ZM8.09749 10.8312L8.34519 11.0785L8.61573 10.8075L8.32155 10.5624L8.09749 10.8312ZM6.32627 12.6055L6.07858 12.8527L6.32627 13.1009L6.57397 12.8527L6.32627 12.6055ZM5.44992 11.7276L5.20222 11.9749L5.20222 11.9749L5.44992 11.7276ZM4.24318 12.9364L3.99548 13.1837L3.99548 13.1837L4.24318 12.9364ZM5.11953 13.8142L5.36723 14.0615L5.61409 13.8142L5.36723 13.567L5.11953 13.8142ZM2.31967 16.6188L2.07197 16.3716L1.82511 16.6188L2.07197 16.8661L2.31967 16.6188ZM9.12614 23.4368L8.87844 23.6841L9.12614 23.9322L9.37383 23.6841L9.12614 23.4368ZM15.2763 17.2763L15.5238 17.0288L15.2761 16.7811L15.0286 17.029L15.2763 17.2763ZM18.4063 15.4629L18.1715 15.7224L18.4186 15.946L18.654 15.7101L18.4063 15.4629ZM20.0521 13.8142L19.8044 13.567L20.0521 13.8142ZM21.2589 12.6055L21.5066 12.8527L21.2589 12.6055ZM24.7186 9.1399L24.9663 9.38718L25.2131 9.1399L24.9663 8.89262L24.7186 9.1399ZM21.9187 6.33529L21.671 6.08802L21.4242 6.33529L21.671 6.58257L21.9187 6.33529ZM22.1352 6.1184L21.8875 5.87113L21.8875 5.87113L22.1352 6.1184ZM19.6088 3.58772L19.8565 3.83499L19.8567 3.83482L19.6088 3.58772ZM19.3923 3.80461L19.1446 4.05188L19.3923 4.3L19.64 4.05188L19.3923 3.80461ZM16.5924 1L16.8401 0.752722L16.5924 0.504606L16.3447 0.752722L16.5924 1ZM13.1327 4.46556L12.885 4.21828L12.6382 4.46556L12.885 4.71284L13.1327 4.46556ZM14.0091 5.3434L14.2568 5.09612L14.0091 5.3434ZM12.8024 6.55218L12.5547 6.79946V6.79946L12.8024 6.55218ZM11.926 5.67434L12.1737 5.42706L11.926 5.17895L11.6783 5.42706L11.926 5.67434ZM9.86701 7.73682L9.61931 7.48954L9.35958 7.74971L9.63219 7.99636L9.86701 7.73682ZM10.5604 8.36417L10.3256 8.6237L10.5727 8.84726L10.8081 8.61144L10.5604 8.36417ZM11.926 6.99625L12.1737 6.74897L11.926 6.50085L11.6783 6.74897L11.926 6.99625ZM12.1425 7.21314L11.8948 7.46041V7.46041L12.1425 7.21314ZM14.6689 4.68245L14.4212 4.92972L14.4214 4.9299L14.6689 4.68245ZM14.4524 4.46556L14.2047 4.21828L13.9579 4.46556L14.2047 4.71283L14.4524 4.46556ZM16.5924 2.3219L16.8401 2.07463L16.5924 1.82651L16.3447 2.07463L16.5924 2.3219ZM19.3923 5.12651L19.1446 5.37379L19.3923 5.6219L19.64 5.37379L19.3923 5.12651ZM20.2687 4.24867L20.021 4.00139V4.00139L20.2687 4.24867ZM21.4754 5.45745L21.2277 5.21017V5.21017L21.4754 5.45745ZM20.599 6.33529L20.3513 6.08802L20.1045 6.33529L20.3513 6.58257L20.599 6.33529ZM21.999 7.7376L22.2467 7.49032V7.49032L21.999 7.7376ZM23.3989 9.1399L23.6466 9.38718L23.8935 9.1399L23.6466 8.89262L23.3989 9.1399ZM21.2589 11.2836L21.5066 11.5308L21.2589 11.2836ZM18.7325 13.8142L18.9802 14.0615L18.7325 13.8142ZM17.7129 14.8355L17.4652 14.5882L17.2055 14.8484L17.4781 15.095L17.7129 14.8355ZM9.37383 25.006L16.1844 18.184L15.689 17.6894L8.87844 24.5115L9.37383 25.006ZM0.752303 16.8661L8.87844 25.006L9.37383 24.5115L1.2477 16.3716L0.752303 16.8661ZM3.55217 13.567L0.752303 16.3716L1.2477 16.8661L4.04756 14.0615L3.55217 13.567ZM3.33564 13.8446L3.55217 14.0615L4.04756 13.567L3.83104 13.3501L3.33564 13.8446ZM2.70977 12.332C2.70977 12.9023 2.93219 13.441 3.33581 13.8448L3.83087 13.3499C3.5588 13.0777 3.40977 12.7172 3.40977 12.332H2.70977ZM4.84655 10.1922C3.66714 10.1922 2.70977 11.152 2.70977 12.332H3.40977C3.40977 11.5375 4.05485 10.8922 4.84655 10.8922V10.1922ZM6.35745 10.8194C5.95406 10.4153 5.41655 10.1922 4.84655 10.1922V10.8922C5.23036 10.8922 5.58974 11.0412 5.86205 11.3139L6.35745 10.8194ZM6.57397 11.0363L6.35745 10.8194L5.86205 11.3139L6.07858 11.5308L6.57397 11.0363ZM7.12942 9.98365L6.07858 11.0363L6.57397 11.5308L7.62481 10.4782L7.12942 9.98365ZM8.32155 10.5624L7.60118 9.96205L7.15305 10.4998L7.87342 11.1001L8.32155 10.5624ZM6.57397 12.8527L8.34519 11.0785L7.84979 10.584L6.07858 12.3582L6.57397 12.8527ZM5.20222 11.9749L6.07858 12.8527L6.57397 12.3582L5.69761 11.4803L5.20222 11.9749ZM4.84655 11.8271C4.98118 11.8271 5.1063 11.8788 5.20222 11.9749L5.69761 11.4803C5.47061 11.253 5.16736 11.1271 4.84655 11.1271V11.8271ZM4.34305 12.332C4.34305 12.0531 4.56956 11.8271 4.84655 11.8271V11.1271C4.18184 11.1271 3.64305 11.6676 3.64305 12.332H4.34305ZM4.49087 12.6891C4.39493 12.593 4.34305 12.4674 4.34305 12.332H3.64305C3.64305 12.6528 3.7685 12.9563 3.99548 13.1837L4.49087 12.6891ZM5.36723 13.567L4.49087 12.6891L3.99548 13.1837L4.87184 14.0615L5.36723 13.567ZM2.56737 16.8661L5.36723 14.0615L4.87184 13.567L2.07197 16.3716L2.56737 16.8661ZM9.37383 23.1896L2.56737 16.3716L2.07197 16.8661L8.87844 23.6841L9.37383 23.1896ZM15.0286 17.029L8.87844 23.1896L9.37383 23.6841L15.524 17.5236L15.0286 17.029ZM16.1842 17.6892L15.5238 17.0288L15.0288 17.5238L15.6892 18.1842L16.1842 17.6892ZM18.654 15.7101L20.2998 14.0615L19.8044 13.567L18.1586 15.2156L18.654 15.7101ZM20.2998 14.0615L21.5066 12.8527L21.0112 12.3582L19.8044 13.567L20.2998 14.0615ZM21.5066 12.8527L24.9663 9.38718L24.4709 8.89262L21.0112 12.3582L21.5066 12.8527ZM24.9663 8.89262L22.1664 6.08802L21.671 6.58257L24.4709 9.38718L24.9663 8.89262ZM22.1664 6.58257L22.3829 6.36568L21.8875 5.87113L21.671 6.08802L22.1664 6.58257ZM22.3829 6.36568C22.7863 5.96163 23.0088 5.42349 23.0088 4.85306H22.3088C22.3088 5.23807 22.1599 5.59833 21.8875 5.87113L22.3829 6.36568ZM23.0088 4.85306C23.0088 3.6731 22.0514 2.71325 20.872 2.71325V3.41325C21.6637 3.41325 22.3088 4.05858 22.3088 4.85306H23.0088ZM20.872 2.71325C20.3022 2.71325 19.7641 2.93628 19.361 3.34061L19.8567 3.83482C20.1284 3.56231 20.4881 3.41325 20.872 3.41325V2.71325ZM19.3611 3.34044L19.1446 3.55733L19.64 4.05188L19.8565 3.83499L19.3611 3.34044ZM19.64 3.55733L16.8401 0.752722L16.3447 1.24728L19.1446 4.05188L19.64 3.55733ZM16.3447 0.752722L12.885 4.21828L13.3804 4.71284L16.8401 1.24728L16.3447 0.752722ZM12.885 4.71284L13.7614 5.59068L14.2568 5.09612L13.3804 4.21828L12.885 4.71284ZM13.7614 5.59068C13.8573 5.68678 13.9092 5.81239 13.9092 5.94779H14.6092C14.6092 5.62698 14.4838 5.32348 14.2568 5.09612L13.7614 5.59068ZM13.9092 5.94779C13.9092 6.22669 13.6827 6.45273 13.4057 6.45273V7.15273C14.0704 7.15273 14.6092 6.61217 14.6092 5.94779H13.9092ZM13.4057 6.45273C13.2711 6.45273 13.146 6.40099 13.0501 6.30491L12.5547 6.79946C12.7817 7.02685 13.0849 7.15273 13.4057 7.15273V6.45273ZM13.0501 6.30491L12.1737 5.42706L11.6783 5.92162L12.5547 6.79946L13.0501 6.30491ZM11.6783 5.42706L9.61931 7.48954L10.1147 7.9841L12.1737 5.92162L11.6783 5.42706ZM9.63219 7.99636L10.3256 8.6237L10.7952 8.10463L10.1018 7.47728L9.63219 7.99636ZM10.8081 8.61144L12.1737 7.24352L11.6783 6.74897L10.3127 8.11689L10.8081 8.61144ZM11.6783 7.24352L11.8948 7.46041L12.3902 6.96586L12.1737 6.74897L11.6783 7.24352ZM11.8948 7.46041C12.2982 7.86448 12.8357 8.0876 13.4057 8.0876V7.3876C13.0219 7.3876 12.6625 7.23863 12.3902 6.96586L11.8948 7.46041ZM13.4057 8.0876C14.5851 8.0876 15.5425 7.12775 15.5425 5.94779H14.8425C14.8425 6.74227 14.1974 7.3876 13.4057 7.3876V8.0876ZM15.5425 5.94779C15.5425 5.3775 15.3201 4.83875 14.9165 4.435L14.4214 4.9299C14.6935 5.20205 14.8425 5.56265 14.8425 5.94779H15.5425ZM14.9166 4.43517L14.7001 4.21828L14.2047 4.71283L14.4212 4.92972L14.9166 4.43517ZM14.7001 4.71284L16.8401 2.56918L16.3447 2.07463L14.2047 4.21828L14.7001 4.71284ZM16.3447 2.56918L19.1446 5.37379L19.64 4.87923L16.8401 2.07463L16.3447 2.56918ZM19.64 5.37379L20.5164 4.49595L20.021 4.00139L19.1446 4.87923L19.64 5.37379ZM20.5164 4.49595C20.6123 4.39986 20.7374 4.34812 20.872 4.34812V3.64812C20.5512 3.64812 20.248 3.77401 20.021 4.00139L20.5164 4.49595ZM20.872 4.34812C21.149 4.34812 21.3755 4.57416 21.3755 4.85306H22.0755C22.0755 4.18868 21.5367 3.64812 20.872 3.64812V4.34812ZM21.3755 4.85306C21.3755 4.98846 21.3236 5.11407 21.2277 5.21017L21.7231 5.70473C21.9501 5.47737 22.0755 5.17388 22.0755 4.85306H21.3755ZM21.2277 5.21017L20.3513 6.08802L20.8467 6.58257L21.7231 5.70473L21.2277 5.21017ZM20.3513 6.58257L21.7513 7.98487L22.2467 7.49032L20.8467 6.08802L20.3513 6.58257ZM21.7513 7.98487L23.1512 9.38718L23.6466 8.89262L22.2467 7.49032L21.7513 7.98487ZM23.1512 8.89262L21.0112 11.0363L21.5066 11.5308L23.6466 9.38718L23.1512 8.89262ZM21.0112 11.0363L18.4848 13.567L18.9802 14.0615L21.5066 11.5308L21.0112 11.0363ZM18.4848 13.567L17.4652 14.5882L17.9606 15.0828L18.9802 14.0615L18.4848 13.567ZM17.4781 15.095L18.1715 15.7224L18.6411 15.2033L17.9477 14.576L17.4781 15.095Z" fill="#A46FE2"/>
<path d="M10 15.5L8 11L7.5 11.5L9.5 17L13 16L14.5 18.5L15.5 18L13 14.5L10 15.5Z" fill="#A46FE2" stroke="#A46FE2" stroke-width="0.7"/>
<path d="M13 11.5L11.5 7.5L10 8L12 13L15.5 12L17 15L18.5 16L19 14.5L15.5 10.5L13 11.5Z" fill="#A46FE2"/>
</g>
<defs>
<clipPath id="clip0">
<path d="M0 0H25V25H0V0Z" fill="white"/>
</clipPath>
</defs>
</svg>