<?xml version="1.0" encoding="UTF-8"?>
<svg width="88" height="88" viewBox="0 0 88 88" fill="none" xmlns="http://www.w3.org/2000/svg">
  <rect width="88" height="88" rx="4" fill="#F6EFFF"/>
  <path d="M57.0798 39.2797L47.4258 29.6257C47.7007 29.0955 47.857 28.4944 47.857 27.8571C47.857 25.7302 46.1267 24 43.9999 24C41.873 24 40.1428 25.7302 40.1428 27.8571C40.1428 28.4945 40.2991 29.0955 40.5739 29.6258L30.92 39.2797H24.9268V64H63.073V39.2797H57.0798ZM43.9999 26.3438C44.8343 26.3438 45.5132 27.0226 45.5132 27.8571C45.5132 28.6916 44.8343 29.3704 43.9999 29.3704C43.1654 29.3704 42.4865 28.6916 42.4865 27.8571C42.4865 27.0226 43.1654 26.3438 43.9999 26.3438ZM42.2313 31.283C42.7615 31.5578 43.3626 31.7141 44 31.7141C44.6372 31.7141 45.2384 31.5578 45.7686 31.283L53.7653 39.2797H34.2346L42.2313 31.283ZM60.7293 61.6562H27.2705V41.6234H60.7293V61.6562Z" fill="#A46FE2"/>
  <path d="M33.9083 44.8374V47.1825H31.7781V44.8374H30.0327V51.1924H31.7781V48.7041H33.9083V51.1924H35.6537V44.8374H33.9083Z" fill="#A46FE2"/>
  <path d="M42.2859 46.8512C42.1427 46.4634 41.9382 46.1172 41.6728 45.8129C41.4071 45.5086 41.0879 45.264 40.7151 45.079C40.3421 44.8941 39.9289 44.8015 39.4754 44.8015C39.0279 44.8015 38.6175 44.8896 38.2447 45.0655C37.8717 45.2416 37.5479 45.4772 37.2736 45.7726C36.999 46.0679 36.7857 46.4096 36.6336 46.7975C36.4814 47.1854 36.4053 47.5882 36.4053 48.0058C36.4053 48.4175 36.4783 48.8174 36.6246 49.2052C36.7709 49.5932 36.9768 49.9378 37.2423 50.239C37.5078 50.5404 37.827 50.7836 38.2 50.9685C38.5729 51.1535 38.9861 51.246 39.4397 51.246C39.8872 51.246 40.2989 51.1564 40.6749 50.9775C41.0508 50.7985 41.373 50.5613 41.6415 50.2659C41.91 49.9706 42.1204 49.6304 42.2725 49.2455C42.4246 48.8607 42.5007 48.4594 42.5007 48.0416C42.5007 47.6359 42.4292 47.2392 42.2859 46.8512ZM40.6525 48.6235C40.6017 48.8264 40.5257 49.007 40.4243 49.165C40.3227 49.3232 40.1915 49.4514 40.0304 49.5499C39.8693 49.6483 39.6782 49.6975 39.4575 49.6975C39.2427 49.6975 39.0547 49.6499 38.8936 49.5543C38.7325 49.4589 38.5982 49.3336 38.4908 49.1784C38.3834 49.0233 38.3043 48.8458 38.2536 48.6458C38.2029 48.446 38.1775 48.2385 38.1775 48.0238C38.1777 47.815 38.203 47.6106 38.2538 47.4107C38.3044 47.2108 38.382 47.0317 38.4864 46.8736C38.5908 46.7156 38.7221 46.5888 38.8803 46.4932C39.0383 46.3978 39.2278 46.35 39.4486 46.35C39.6635 46.35 39.8514 46.3963 40.0125 46.4888C40.1736 46.5814 40.3064 46.7036 40.4108 46.8557C40.5152 47.0079 40.5943 47.184 40.648 47.3839C40.7017 47.5839 40.7286 47.7911 40.7286 48.0059C40.7286 48.2149 40.7031 48.4207 40.6525 48.6235Z" fill="#A46FE2"/>
  <path d="M42.6619 44.8374V46.359H44.4968V51.1924H46.2421V46.359H48.0681V44.8374H42.6619Z" fill="#A46FE2"/>
  <path d="M50.4489 49.6708V48.6683H52.7581V47.2541H50.4489V46.359H53.1521V44.8374H48.7036V51.1924H53.2326V49.6708H50.4489Z" fill="#A46FE2"/>
  <path d="M55.7923 49.6708V44.8374H54.0469V51.1924H58.6744V49.6708H55.7923Z" fill="#A46FE2"/>
  <path d="M46.6919 55.8332H44.6354L44 53.8774L43.3645 55.8332H41.3081L42.9718 57.042L42.3363 58.9978L44 57.789L45.6637 58.9978L45.0282 57.042L46.6919 55.8332Z" fill="#A46FE2"/>
  <path d="M52.9506 55.8332H50.8942L50.2588 53.8774L49.6233 55.8332H47.5669L49.2306 57.042L48.5951 58.9978L50.2588 57.789L51.9224 58.9978L51.287 57.042L52.9506 55.8332Z" fill="#A46FE2"/>
  <path d="M59.2295 55.8332H57.173L56.5376 53.8774L55.9021 55.8332H53.8457L55.5094 57.042L54.8739 58.9978L56.5376 57.789L58.2013 58.9978L57.5659 57.042L59.2295 55.8332Z" fill="#A46FE2"/>
  <path d="M34.1677 55.8332H32.1113L31.4758 53.8774L30.8403 55.8332H28.7839L30.4476 57.042L29.8121 58.9978L31.4758 57.789L33.1395 58.9978L32.504 57.042L34.1677 55.8332Z" fill="#A46FE2"/>
  <path d="M40.4466 55.8332H38.3902L37.7547 53.8774L37.1192 55.8332H35.0627L36.7264 57.042L36.0909 58.9978L37.7547 57.789L39.4184 58.9978L38.7829 57.042L40.4466 55.8332Z" fill="#A46FE2"/>
</svg>