<svg xmlns="http://www.w3.org/2000/svg" width="20" height="15" fill-rule="evenodd"><path d="M1 0h18a1 1 0 0 1 1 1v11a1 1 0 0 1-1 1H1a1 1 0 0 1-1-1V1a1 1 0 0 1 1-1zm.2 1.2v10.6h17.6V1.2H1.2zM6 7.5a2.5 2.5 0 1 0 0-5 2.5 2.5 0 1 0 0 5zm0-1a1.5 1.5 0 1 1 0-3 1.5 1.5 0 1 1 0 3z" fill="#a46fe2" fill-rule="nonzero"/><rect fill="#f6efff" x="2" y="6" width="16" height="9" rx="1"/><g fill="#a46fe2"><path d="M3 6h14a1 1 0 0 1 1 1v7a1 1 0 0 1-1 1H3a1 1 0 0 1-1-1V7a1 1 0 0 1 1-1zm.2 1.2v6.6h13.6V7.2H3.2z" fill-rule="nonzero"/><rect x="5" y="9" width="10" height="1" rx=".5"/><rect x="10" y="4" width="7" height="1" rx=".5"/><rect x="5" y="11" width="10" height="1" rx=".5"/></g></svg>