<svg xmlns="http://www.w3.org/2000/svg" width="40" height="33" fill="#a46fe2" fill-rule="nonzero"><path d="M13.065 14.956a11.15 11.15 0 0 0-2.99-.422c-1.5 0-2.77.334-3.748.743.942-3.338 3.205-9.1 7.713-9.747a1.06 1.06 0 0 0 .874-.746l.985-3.4a1.01 1.01 0 0 0-.136-.848c-.17-.25-.443-.417-.75-.458A7.34 7.34 0 0 0 14.007 0C8.596 0 3.237 5.467.976 13.296-.352 17.888-.74 24.793 2.53 29.14c1.83 2.432 4.5 3.73 7.934 3.86h.042c4.238 0 7.997-2.763 9.14-6.72.683-2.365.374-4.845-.87-6.985-1.23-2.116-3.26-3.658-5.7-4.34zm25.7 4.34c-1.23-2.116-3.26-3.66-5.7-4.34-1.005-.28-2-.422-2.988-.422a9.66 9.66 0 0 0-3.748.743c.942-3.338 3.205-9.1 7.714-9.747a1.06 1.06 0 0 0 .874-.746l.985-3.4a1.01 1.01 0 0 0-.136-.848c-.17-.25-.443-.417-.75-.458A7.72 7.72 0 0 0 34.007 0c-5.4 0-10.77 5.467-13.032 13.295-1.327 4.593-1.716 11.497 1.554 15.844 1.83 2.43 4.5 3.73 7.934 3.86h.042c4.238 0 7.997-2.763 9.14-6.72a8.88 8.88 0 0 0-.871-6.985z"/></svg>