<svg xmlns="http://www.w3.org/2000/svg" width="100%" height="100%" viewBox="0 0 72 97" fill="#f2f7fa" fill-rule="nonzero"><path d="M36.5 46A10.5 10.5 0 0 0 47 35.49c-.005-5.8-4.7-10.496-10.5-10.5S25.994 29.7 26 35.5A10.54 10.54 0 0 0 36.5 46zm0-16.934c3.56 0 6.444 2.885 6.444 6.444s-2.885 6.444-6.444 6.444-6.444-2.885-6.444-6.444a6.45 6.45 0 0 1 6.444-6.444zM22.952 67h27.096c1.078-.003 1.95-.923 1.952-2.06 0-4.657-1.6-8.944-4.528-12.097C44.575 49.744 40.624 48 36.5 48s-8.075 1.744-10.97 4.843C22.6 55.996 21 60.282 21 64.94c.003 1.137.875 2.058 1.952 2.06zm5.368-11.272c2.16-2.307 5.106-3.606 8.18-3.606s6.02 1.3 8.18 3.606c1.792 1.95 2.942 4.458 3.28 7.15H25.04c.334-2.694 1.485-5.203 3.28-7.15zM62 6.9H44V2.03C43.997.9 43.103.003 42 0H30c-1.103.003-1.997.9-2 2.03V6.9H10C4.478 6.902.003 11.443 0 17.046v69.808C.003 92.456 4.478 96.997 10 97h52c5.522-.003 9.998-4.544 10-10.146V17.046C71.998 11.443 67.522 6.902 62 6.9zM32 4.06h8v8.117h-8V4.06zm36 82.795c-.01 3.358-2.7 6.078-6 6.088H10c-3.3-.01-6-2.73-6-6.088v-69.81c.01-3.358 2.7-6.078 6-6.088h18v3.247c.003 1.12.897 2.026 2 2.03h12c1.103-.003 1.997-.9 2-2.03v-3.247h18c3.3.01 6 2.73 6 6.088v69.808zM55.96 82H12.03c-1.12 0-2.03.895-2.03 2s.9 2 2.03 2h43.95c1.122-.006 2.026-.906 2.02-2s-.92-1.996-2.04-2zM24.978 72A1.99 1.99 0 0 0 23 74a1.99 1.99 0 0 0 1.978 2h23.044C49.115 76 50 75.105 50 74s-.885-2-1.978-2H24.978z"/></svg>