<svg xmlns="http://www.w3.org/2000/svg" width="16" height="12"><path d="M16 1.42c-.59.24-1.22.404-1.885.477.678-.375 1.197-.97 1.443-1.676a6.96 6.96 0 0 1-2.086.736c-.6-.6-1.45-.957-2.396-.957-1.813 0-3.282 1.357-3.282 3.03 0 .237.03.47.085.69C5.152 3.594 2.733 2.387 1.115.554.832 1 .67 1.52.67 2.077c0 1.05.58 1.98 1.46 2.522-.538-.017-1.044-.153-1.487-.38v.038c0 1.468 1.132 2.693 2.633 2.972-.275.068-.565.106-.865.106-.212 0-.417-.02-.618-.056.418 1.205 1.63 2.08 3.065 2.105-1.123.812-2.54 1.295-4.076 1.295A7.55 7.55 0 0 1 0 10.637C1.453 11.498 3.177 12 5.03 12c6.038 0 9.338-4.618 9.338-8.622l-.01-.392C15.003 2.56 15.56 2.027 16 1.42z" fill="#fff" fill-rule="nonzero"/></svg>