<svg xmlns="http://www.w3.org/2000/svg" width="63" height="56"><path d="M18.178 0c-1.7.004-3.367.968-4.224 2.44L.632 25.56a5.03 5.03 0 0 0 0 4.881l13.322 23.12A5 5 0 0 0 18.178 56h26.644c1.7-.004 3.367-.968 4.224-2.44l13.322-23.12a5.03 5.03 0 0 0 0-4.881L49.046 2.44A5 5 0 0 0 44.822 0H18.178zm.242 13.525a.58.58 0 0 1 .112 0h4.596c.203.004.4.122.502.298l7.796 13.88a.6.6 0 0 1 .074.224c.01-.078.035-.155.074-.224l7.777-13.88a.61.61 0 0 1 .521-.298h4.596c.407.004.712.516.52.876L37.38 28l7.6 13.58c.21.362-.104.898-.52.894h-4.596a.61.61 0 0 1-.521-.317l-7.777-13.88a.6.6 0 0 1-.074-.224c-.01.078-.035.155-.074.224l-7.796 13.88a.61.61 0 0 1-.502.317h-4.596c-.418.004-.73-.532-.52-.894L25.62 28l-7.6-13.6a.63.63 0 0 1 .409-.876h0z" fill="#222" fill-rule="nonzero"/></svg>