<svg xmlns="http://www.w3.org/2000/svg" width="24" height="22" fill="#abc1cf" fill-rule="nonzero"><path d="M1.1 11.55v-5.5h17.455V7.7h1.1V1.65C19.636.74 18.904 0 18 0H1.636C.733 0 0 .74 0 1.65v9.9c0 .9.733 1.65 1.636 1.65h1.636v-1.1H1.636a.55.55 0 0 1-.545-.55zm0-6.6v-1.1h17.455v1.1H1.1zm.545-3.85H18a.55.55 0 0 1 .545.55v1.1H1.1v-1.1a.55.55 0 0 1 .545-.55zm20.73 7.7H6c-.904 0-1.636.74-1.636 1.65v9.9c0 .9.733 1.65 1.636 1.65h16.364c.904 0 1.636-.74 1.636-1.65v-9.9c0-.9-.733-1.65-1.636-1.65zm.545 11.55a.55.55 0 0 1-.545.55H6a.55.55 0 0 1-.545-.55v-9.9A.55.55 0 0 1 6 9.9h16.364a.55.55 0 0 1 .545.55v9.9zM19.636 11c-1.205 0-2.182.985-2.182 2.2s.977 2.2 2.182 2.2 2.182-.985 2.182-2.2-.977-2.2-2.182-2.2zm0 3.3c-.602 0-1.1-.492-1.1-1.1s.488-1.1 1.1-1.1 1.1.492 1.1 1.1-.488 1.1-1.1 1.1zm1.09 2.2H7.636a.55.55 0 0 0-.545.55v2.2a.55.55 0 0 0 .545.55h13.1a.55.55 0 0 0 .545-.55v-2.2a.55.55 0 0 0-.545-.55zm-.545 2.2h-12v-1.1h12v1.1zm-12-3.85h3.273A.55.55 0 0 0 12 14.3v-2.2a.55.55 0 0 0-.545-.55H8.182a.55.55 0 0 0-.545.55v2.2a.55.55 0 0 0 .545.55zm.545-2.2h2.182v1.1H8.727v-1.1z"/></svg>