<svg xmlns="http://www.w3.org/2000/svg" width="20" height="20" fill="#fd8f82" fill-rule="nonzero"><path d="M15 13a3 3 0 1 0 0-6 3 3 0 1 0 0 6zm0-1a2 2 0 1 1 0-4 2 2 0 1 1 0 4z"/><path d="M10 16.695C10 14.083 12.256 12 15 12s5 2.083 5 4.695V20H10v-3.305zm1 0V19h8v-2.305C19 14.654 17.2 13 15 13s-4 1.654-4 3.695zM1 0h10a1 1 0 0 1 1 1v6a1 1 0 0 1-1 1H1a1 1 0 0 1-1-1V1a1 1 0 0 1 1-1zm0 7h10V1H1v6zm4-1a2 2 0 1 0 0-4 2 2 0 1 0 0 4zm0-1a1 1 0 1 1 0-2 1 1 0 1 1 0 2z"/><path d="M2 7.847C2 6.256 3.36 5 5 5s3 1.256 3 2.847H2zm1 0h4C7 6.827 6.105 6 5 6s-2 .827-2 1.847z"/></svg>