<svg xmlns="http://www.w3.org/2000/svg" width="100%" height="100%" viewBox="0 0 368 368" fill="#a46fe2"><path d="M261.336 226.04a8 8 0 0 0-11.296.624C233.352 245.312 209.288 256 184 256c-25.28 0-49.352-10.688-66.04-29.336a8 8 0 0 0-11.92 10.672C125.76 259.368 154.176 272 184 272c29.832 0 58.248-12.64 77.96-34.664 2.944-3.296 2.664-8.352-.624-11.296zM184 0C82.544 0 0 82.544 0 184s82.544 184 184 184 184-82.544 184-184S285.456 0 184 0zm0 352c-92.64 0-168-75.36-168-168S91.36 16 184 16s168 75.36 168 168-75.36 168-168 168zm64-224c-22.056 0-40 17.944-40 40 0 4.416 3.584 8 8 8s8-3.584 8-8c0-13.232 10.768-24 24-24s24 10.768 24 24c0 4.416 3.584 8 8 8s8-3.584 8-8c0-22.056-17.944-40-40-40zm-104 40c0 4.416 3.584 8 8 8s8-3.584 8-8c0-22.056-17.944-40-40-40s-40 17.944-40 40c0 4.416 3.584 8 8 8s8-3.584 8-8c0-13.232 10.768-24 24-24s24 10.768 24 24z"/></svg>