<svg width="850" height="92" viewBox="0 0 850 92" fill="none" xmlns="http://www.w3.org/2000/svg">
<rect width="850" height="92" rx="10" fill="#F4F4F9"/>
<rect width="70" height="92" fill="#EBEDF2"/>
<path d="M46.688 38.594C46.688 38.762 46.604 38.846 46.436 38.846H45.698C45.53 38.846 45.446 38.762 45.446 38.594V27.974C45.074 28.286 44.726 28.58 44.402 28.856C44.078 29.132 43.736 29.426 43.376 29.738C43.244 29.846 43.124 29.834 43.016 29.702L42.656 29.27C42.62 29.21 42.602 29.15 42.602 29.09C42.602 29.018 42.632 28.958 42.692 28.91L45.482 26.57C45.53 26.522 45.602 26.498 45.698 26.498H46.184C46.436 26.498 46.58 26.522 46.616 26.57C46.664 26.606 46.688 26.75 46.688 27.002V38.594ZM42.242 64.846C42.122 64.846 42.026 64.84 41.954 64.828C41.894 64.828 41.846 64.81 41.81 64.774C41.786 64.75 41.768 64.702 41.756 64.63C41.756 64.57 41.756 64.474 41.756 64.342V63.946C41.756 63.79 41.804 63.67 41.9 63.586L44.618 60.778C46.55 58.714 47.51 57.112 47.498 55.972C47.51 55.18 47.336 54.574 46.976 54.154C46.568 53.698 46.004 53.458 45.284 53.434C44.432 53.434 43.568 53.704 42.692 54.244C42.536 54.328 42.44 54.292 42.404 54.136L42.296 53.542C42.26 53.338 42.32 53.206 42.476 53.146C42.956 52.882 43.418 52.684 43.862 52.552C44.306 52.42 44.768 52.354 45.248 52.354C46.208 52.354 47.03 52.642 47.714 53.218C48.47 53.842 48.848 54.73 48.848 55.882C48.848 56.326 48.746 56.818 48.542 57.358C48.338 57.886 48.014 58.45 47.57 59.05C47.15 59.578 46.808 60.004 46.544 60.328C46.28 60.64 45.932 61.03 45.5 61.498C45.032 61.99 44.66 62.374 44.384 62.65C44.12 62.926 43.766 63.286 43.322 63.73H48.884C49.064 63.742 49.148 63.826 49.136 63.982V64.612C49.136 64.768 49.058 64.846 48.902 64.846H42.242Z" fill="#303A66"/>
<path d="M97.056 31.16L96.714 33.752H97.722C97.902 33.752 98.01 33.77 98.046 33.806C98.094 33.83 98.118 33.926 98.118 34.094V35.084C98.118 35.252 98.1 35.354 98.064 35.39C98.028 35.414 97.914 35.426 97.722 35.426H96.48L96.066 38.432C96.042 38.564 96.012 38.642 95.976 38.666C95.952 38.69 95.862 38.702 95.706 38.702H94.572C94.428 38.702 94.344 38.684 94.32 38.648C94.296 38.624 94.29 38.552 94.302 38.432L94.716 35.426H93.6L93.204 38.396C93.18 38.552 93.144 38.642 93.096 38.666C93.048 38.69 92.94 38.702 92.772 38.702H91.872C91.632 38.702 91.488 38.69 91.44 38.666C91.404 38.642 91.398 38.552 91.422 38.396L91.836 35.426H90.63C90.45 35.426 90.342 35.414 90.306 35.39C90.27 35.366 90.252 35.276 90.252 35.12V34.076C90.252 33.92 90.27 33.83 90.306 33.806C90.342 33.77 90.45 33.752 90.63 33.752H92.07L92.448 31.16H91.242C91.05 31.16 90.936 31.142 90.9 31.106C90.876 31.07 90.864 30.968 90.864 30.8V29.828C90.864 29.66 90.876 29.558 90.9 29.522C90.936 29.486 91.05 29.468 91.242 29.468H92.664L93.096 26.48C93.12 26.348 93.144 26.27 93.168 26.246C93.204 26.222 93.294 26.21 93.438 26.21H94.554C94.698 26.21 94.782 26.234 94.806 26.282C94.842 26.33 94.848 26.414 94.824 26.534L94.428 29.468H95.544L95.958 26.516C95.982 26.36 96.012 26.27 96.048 26.246C96.096 26.222 96.21 26.21 96.39 26.21H97.272C97.512 26.21 97.65 26.234 97.686 26.282C97.722 26.318 97.728 26.414 97.704 26.57L97.308 29.468H98.37C98.538 29.468 98.64 29.486 98.676 29.522C98.724 29.546 98.748 29.636 98.748 29.792V30.818C98.748 30.974 98.724 31.07 98.676 31.106C98.64 31.142 98.538 31.16 98.37 31.16H97.056ZM93.834 33.752H94.95L95.292 31.16H94.194L93.834 33.752ZM100.206 38.9C100.146 38.9 100.092 38.876 100.044 38.828C100.008 38.792 99.99 38.738 99.99 38.666V37.262C99.99 37.202 100.008 37.154 100.044 37.118C100.092 37.07 100.146 37.046 100.206 37.046H102.654V31.502H100.53C100.47 31.502 100.416 31.484 100.368 31.448C100.332 31.4 100.314 31.34 100.314 31.268V29.864C100.314 29.804 100.332 29.756 100.368 29.72C100.416 29.672 100.47 29.648 100.53 29.648H104.382C104.442 29.648 104.49 29.672 104.526 29.72C104.574 29.756 104.598 29.804 104.598 29.864V37.046H106.812C106.872 37.046 106.92 37.07 106.956 37.118C107.004 37.154 107.028 37.202 107.028 37.262V38.666C107.028 38.822 106.956 38.9 106.812 38.9H100.206ZM103.374 28.226C102.99 28.226 102.666 28.094 102.402 27.83C102.138 27.566 102.006 27.248 102.006 26.876C102.006 26.48 102.138 26.15 102.402 25.886C102.666 25.61 102.99 25.472 103.374 25.472C103.77 25.472 104.1 25.61 104.364 25.886C104.64 26.15 104.778 26.48 104.778 26.876C104.778 27.248 104.64 27.566 104.364 27.83C104.1 28.094 103.77 28.226 103.374 28.226ZM114.318 38.9C114.258 38.9 114.204 38.87 114.156 38.81C114.12 38.762 114.102 38.708 114.102 38.648V33.626C114.102 32.762 113.988 32.138 113.76 31.754C113.544 31.37 113.214 31.178 112.77 31.178C112.254 31.178 111.822 31.4 111.474 31.844C111.138 32.276 110.97 32.906 110.97 33.734V38.666C110.97 38.822 110.898 38.9 110.754 38.9H109.278C109.218 38.9 109.164 38.87 109.116 38.81C109.08 38.762 109.062 38.708 109.062 38.648V32.186C109.062 31.73 109.056 31.292 109.044 30.872C109.044 30.452 109.032 30.122 109.008 29.882C108.984 29.726 109.068 29.648 109.26 29.648H110.664C110.796 29.648 110.85 29.696 110.826 29.792L110.808 30.44C111.012 30.152 111.294 29.906 111.654 29.702C112.026 29.498 112.416 29.396 112.824 29.396C113.688 29.396 114.432 29.72 115.056 30.368C115.692 31.004 116.01 32 116.01 33.356V38.666C116.01 38.822 115.938 38.9 115.794 38.9H114.318ZM124.578 38.864C124.458 38.912 124.308 38.954 124.128 38.99C123.948 39.026 123.744 39.056 123.516 39.08C123.288 39.104 123.084 39.116 122.904 39.116C122.724 39.128 122.526 39.128 122.31 39.116C121.614 39.068 121.02 38.912 120.528 38.648C120.048 38.384 119.622 38.042 119.25 37.622C118.89 37.202 118.614 36.704 118.422 36.128C118.242 35.552 118.152 34.928 118.152 34.256C118.152 33.56 118.266 32.918 118.494 32.33C118.722 31.73 119.034 31.214 119.43 30.782C119.838 30.35 120.294 30.02 120.798 29.792C121.314 29.552 121.926 29.432 122.634 29.432C122.922 29.432 123.24 29.462 123.588 29.522C123.948 29.57 124.296 29.654 124.632 29.774C124.68 29.786 124.716 29.81 124.74 29.846C124.764 29.87 124.77 29.936 124.758 30.044L124.596 31.304C124.584 31.388 124.56 31.448 124.524 31.484C124.488 31.52 124.422 31.526 124.326 31.502C124.074 31.406 123.798 31.334 123.498 31.286C123.198 31.238 122.898 31.214 122.598 31.214C121.722 31.214 121.086 31.502 120.69 32.078C120.306 32.654 120.114 33.38 120.114 34.256C120.114 35.096 120.306 35.792 120.69 36.344C121.086 36.896 121.662 37.226 122.418 37.334C123.102 37.418 123.762 37.364 124.398 37.172C124.506 37.124 124.572 37.118 124.596 37.154C124.632 37.19 124.656 37.244 124.668 37.316L124.758 38.576C124.77 38.66 124.764 38.72 124.74 38.756C124.728 38.804 124.674 38.84 124.578 38.864ZM127.26 38.9C127.2 38.9 127.146 38.876 127.098 38.828C127.062 38.792 127.044 38.738 127.044 38.666V37.262C127.044 37.202 127.062 37.154 127.098 37.118C127.146 37.07 127.2 37.046 127.26 37.046H129.708V27.236H127.836C127.776 27.236 127.722 27.218 127.674 27.182C127.638 27.134 127.62 27.074 127.62 27.002V25.598C127.62 25.538 127.638 25.49 127.674 25.454C127.722 25.406 127.776 25.382 127.836 25.382H131.436C131.496 25.382 131.544 25.406 131.58 25.454C131.628 25.49 131.652 25.538 131.652 25.598V37.046H133.866C133.926 37.046 133.974 37.07 134.01 37.118C134.058 37.154 134.082 37.202 134.082 37.262V38.666C134.082 38.822 134.01 38.9 133.866 38.9H127.26ZM141.372 38.9C141.324 38.9 141.276 38.882 141.228 38.846C141.192 38.822 141.174 38.78 141.174 38.72V37.982C140.946 38.378 140.652 38.678 140.292 38.882C139.944 39.086 139.536 39.188 139.068 39.188C138.168 39.188 137.424 38.846 136.836 38.162C136.26 37.478 135.972 36.5 135.972 35.228V29.9C135.972 29.84 135.99 29.786 136.026 29.738C136.074 29.678 136.122 29.648 136.17 29.648H137.7C137.748 29.648 137.79 29.678 137.826 29.738C137.874 29.798 137.898 29.858 137.898 29.918V34.94C137.898 35.84 138.024 36.476 138.276 36.848C138.528 37.22 138.864 37.406 139.284 37.406C139.8 37.406 140.226 37.16 140.562 36.668C140.898 36.176 141.066 35.444 141.066 34.472V29.9C141.066 29.84 141.084 29.786 141.12 29.738C141.168 29.678 141.228 29.648 141.3 29.648H142.794C142.842 29.648 142.884 29.684 142.92 29.756C142.968 29.816 142.992 29.876 142.992 29.936V36.578C142.992 36.95 142.998 37.316 143.01 37.676C143.022 38.036 143.028 38.366 143.028 38.666C143.028 38.822 142.962 38.9 142.83 38.9H141.372ZM147.924 39.116C147.372 39.116 146.886 38.996 146.466 38.756C146.058 38.528 145.704 38.204 145.404 37.784C145.116 37.352 144.894 36.83 144.738 36.218C144.582 35.594 144.504 34.934 144.504 34.238C144.504 33.71 144.582 33.128 144.738 32.492C144.906 31.844 145.134 31.292 145.422 30.836C145.722 30.38 146.076 30.032 146.484 29.792C146.904 29.54 147.384 29.414 147.924 29.414C148.32 29.414 148.692 29.51 149.04 29.702C149.4 29.882 149.712 30.158 149.976 30.53V25.508C149.976 25.412 149.988 25.352 150.012 25.328C150.036 25.304 150.084 25.292 150.156 25.292H151.704C151.836 25.292 151.902 25.364 151.902 25.508V38.63C151.902 38.81 151.818 38.9 151.65 38.9H150.21C150.054 38.9 149.976 38.81 149.976 38.63V37.928C149.772 38.288 149.478 38.576 149.094 38.792C148.71 39.008 148.32 39.116 147.924 39.116ZM148.338 31.25C147.762 31.25 147.318 31.55 147.006 32.15C146.694 32.75 146.538 33.446 146.538 34.238C146.538 35.09 146.7 35.816 147.024 36.416C147.348 37.004 147.786 37.298 148.338 37.298C148.566 37.298 148.788 37.22 149.004 37.064C149.22 36.908 149.406 36.686 149.562 36.398C149.73 36.11 149.856 35.768 149.94 35.372C150.024 34.964 150.066 34.586 150.066 34.238C150.066 33.386 149.91 32.678 149.598 32.114C149.298 31.538 148.878 31.25 148.338 31.25ZM161.082 34.814C161.082 34.91 161.058 34.982 161.01 35.03C160.974 35.066 160.92 35.084 160.848 35.084H155.916C155.928 35.72 156.09 36.266 156.402 36.722C156.726 37.166 157.242 37.388 157.95 37.388C158.382 37.388 158.76 37.34 159.084 37.244C159.42 37.136 159.762 36.956 160.11 36.704C160.206 36.656 160.26 36.662 160.272 36.722C160.296 36.782 160.308 36.854 160.308 36.938V38.216C160.308 38.324 160.29 38.402 160.254 38.45C160.218 38.51 160.158 38.57 160.074 38.63C159.762 38.798 159.444 38.93 159.12 39.026C158.808 39.122 158.418 39.17 157.95 39.17C156.582 39.17 155.562 38.732 154.89 37.856C154.218 36.98 153.882 35.822 153.882 34.382C153.882 33.77 153.954 33.176 154.098 32.6C154.242 32.012 154.464 31.484 154.764 31.016C155.076 30.548 155.466 30.164 155.934 29.864C156.402 29.564 156.942 29.414 157.554 29.414C158.202 29.414 158.748 29.552 159.192 29.828C159.648 30.104 160.014 30.47 160.29 30.926C160.578 31.37 160.782 31.88 160.902 32.456C161.034 33.032 161.1 33.656 161.1 34.328C161.1 34.412 161.094 34.508 161.082 34.616C161.082 34.712 161.082 34.778 161.082 34.814ZM157.518 31.142C157.23 31.142 156.972 31.226 156.744 31.394C156.528 31.55 156.354 31.766 156.222 32.042C156.102 32.306 156.018 32.552 155.97 32.78C155.934 32.996 155.916 33.17 155.916 33.302H159.138C159.138 33.17 159.114 32.996 159.066 32.78C159.03 32.552 158.946 32.306 158.814 32.042C158.694 31.766 158.52 31.55 158.292 31.394C158.064 31.226 157.806 31.142 157.518 31.142ZM96.372 64.9C96.324 64.9 96.276 64.882 96.228 64.846C96.192 64.822 96.174 64.78 96.174 64.72V63.982C95.946 64.378 95.652 64.678 95.292 64.882C94.944 65.086 94.536 65.188 94.068 65.188C93.168 65.188 92.424 64.846 91.836 64.162C91.26 63.478 90.972 62.5 90.972 61.228V55.9C90.972 55.84 90.99 55.786 91.026 55.738C91.074 55.678 91.122 55.648 91.17 55.648H92.7C92.748 55.648 92.79 55.678 92.826 55.738C92.874 55.798 92.898 55.858 92.898 55.918V60.94C92.898 61.84 93.024 62.476 93.276 62.848C93.528 63.22 93.864 63.406 94.284 63.406C94.8 63.406 95.226 63.16 95.562 62.668C95.898 62.176 96.066 61.444 96.066 60.472V55.9C96.066 55.84 96.084 55.786 96.12 55.738C96.168 55.678 96.228 55.648 96.3 55.648H97.794C97.842 55.648 97.884 55.684 97.92 55.756C97.968 55.816 97.992 55.876 97.992 55.936V62.578C97.992 62.95 97.998 63.316 98.01 63.676C98.022 64.036 98.028 64.366 98.028 64.666C98.028 64.822 97.962 64.9 97.83 64.9H96.372ZM105.48 64.522C104.868 64.942 104.1 65.158 103.176 65.17C102.936 65.17 102.684 65.158 102.42 65.134C102.168 65.11 101.928 65.08 101.7 65.044C101.484 65.02 101.262 64.978 101.034 64.918C100.818 64.87 100.656 64.822 100.548 64.774C100.5 64.762 100.446 64.732 100.386 64.684C100.338 64.636 100.32 64.57 100.332 64.486L100.44 63.28C100.452 63.172 100.47 63.106 100.494 63.082C100.518 63.058 100.596 63.064 100.728 63.1C101.148 63.22 101.562 63.31 101.97 63.37C102.39 63.418 102.768 63.442 103.104 63.442C103.632 63.442 104.022 63.352 104.274 63.172C104.538 62.98 104.67 62.722 104.67 62.398C104.67 62.23 104.604 62.056 104.472 61.876C104.34 61.684 104.118 61.492 103.806 61.3C103.482 61.108 103.146 60.916 102.798 60.724C102.45 60.52 102.108 60.328 101.772 60.148C101.388 59.932 101.064 59.632 100.8 59.248C100.548 58.864 100.422 58.492 100.422 58.132C100.422 57.688 100.512 57.292 100.692 56.944C100.872 56.584 101.112 56.284 101.412 56.044C101.712 55.804 102.054 55.63 102.438 55.522C102.834 55.414 103.248 55.36 103.68 55.36C103.908 55.36 104.142 55.372 104.382 55.396C104.634 55.42 104.874 55.456 105.102 55.504C105.342 55.54 105.552 55.588 105.732 55.648C105.924 55.696 106.068 55.75 106.164 55.81C106.224 55.834 106.254 55.864 106.254 55.9C106.266 55.924 106.266 55.966 106.254 56.026L106.146 57.214C106.134 57.334 106.098 57.412 106.038 57.448C105.978 57.472 105.894 57.46 105.786 57.412C105.558 57.328 105.3 57.25 105.012 57.178C104.784 57.13 104.562 57.1 104.346 57.088C104.142 57.064 103.956 57.052 103.788 57.052C103.296 57.052 102.948 57.142 102.744 57.322C102.54 57.502 102.438 57.7 102.438 57.916C102.438 58.12 102.552 58.33 102.78 58.546C103.008 58.75 103.296 58.942 103.644 59.122C104.028 59.314 104.376 59.506 104.688 59.698C105 59.878 105.234 60.028 105.39 60.148C105.822 60.448 106.146 60.778 106.362 61.138C106.578 61.486 106.686 61.852 106.686 62.236C106.686 63.172 106.284 63.934 105.48 64.522ZM109.206 64.9C109.146 64.9 109.092 64.876 109.044 64.828C109.008 64.792 108.99 64.738 108.99 64.666V63.262C108.99 63.202 109.008 63.154 109.044 63.118C109.092 63.07 109.146 63.046 109.206 63.046H111.654V57.502H109.53C109.47 57.502 109.416 57.484 109.368 57.448C109.332 57.4 109.314 57.34 109.314 57.268V55.864C109.314 55.804 109.332 55.756 109.368 55.72C109.416 55.672 109.47 55.648 109.53 55.648H113.382C113.442 55.648 113.49 55.672 113.526 55.72C113.574 55.756 113.598 55.804 113.598 55.864V63.046H115.812C115.872 63.046 115.92 63.07 115.956 63.118C116.004 63.154 116.028 63.202 116.028 63.262V64.666C116.028 64.822 115.956 64.9 115.812 64.9H109.206ZM112.374 54.226C111.99 54.226 111.666 54.094 111.402 53.83C111.138 53.566 111.006 53.248 111.006 52.876C111.006 52.48 111.138 52.15 111.402 51.886C111.666 51.61 111.99 51.472 112.374 51.472C112.77 51.472 113.1 51.61 113.364 51.886C113.64 52.15 113.778 52.48 113.778 52.876C113.778 53.248 113.64 53.566 113.364 53.83C113.1 54.094 112.77 54.226 112.374 54.226ZM123.318 64.9C123.258 64.9 123.204 64.87 123.156 64.81C123.12 64.762 123.102 64.708 123.102 64.648V59.626C123.102 58.762 122.988 58.138 122.76 57.754C122.544 57.37 122.214 57.178 121.77 57.178C121.254 57.178 120.822 57.4 120.474 57.844C120.138 58.276 119.97 58.906 119.97 59.734V64.666C119.97 64.822 119.898 64.9 119.754 64.9H118.278C118.218 64.9 118.164 64.87 118.116 64.81C118.08 64.762 118.062 64.708 118.062 64.648V58.186C118.062 57.73 118.056 57.292 118.044 56.872C118.044 56.452 118.032 56.122 118.008 55.882C117.984 55.726 118.068 55.648 118.26 55.648H119.664C119.796 55.648 119.85 55.696 119.826 55.792L119.808 56.44C120.012 56.152 120.294 55.906 120.654 55.702C121.026 55.498 121.416 55.396 121.824 55.396C122.688 55.396 123.432 55.72 124.056 56.368C124.692 57.004 125.01 58 125.01 59.356V64.666C125.01 64.822 124.938 64.9 124.794 64.9H123.318ZM129.996 67.582C129.6 67.582 129.198 67.552 128.79 67.492C128.394 67.432 128.004 67.318 127.62 67.15C127.524 67.102 127.458 67.06 127.422 67.024C127.398 66.988 127.386 66.934 127.386 66.862L127.458 65.368C127.47 65.164 127.572 65.11 127.764 65.206C128.112 65.398 128.484 65.542 128.88 65.638C129.276 65.734 129.654 65.782 130.014 65.782C130.674 65.782 131.184 65.572 131.544 65.152C131.916 64.744 132.108 64.216 132.12 63.568C131.868 63.88 131.58 64.114 131.256 64.27C130.932 64.426 130.596 64.504 130.248 64.504C129.732 64.504 129.276 64.408 128.88 64.216C128.496 64.024 128.13 63.724 127.782 63.316C127.434 62.896 127.17 62.404 126.99 61.84C126.81 61.276 126.72 60.706 126.72 60.13C126.72 58.702 127.038 57.568 127.674 56.728C128.31 55.888 129.15 55.468 130.194 55.468C130.494 55.468 130.776 55.51 131.04 55.594C131.316 55.666 131.562 55.798 131.778 55.99C132.006 56.17 132.174 56.356 132.282 56.548L132.264 55.882C132.252 55.786 132.258 55.726 132.282 55.702C132.306 55.666 132.366 55.648 132.462 55.648H133.758C133.878 55.648 133.938 55.732 133.938 55.9V62.812C133.938 64.324 133.602 65.494 132.93 66.322C132.258 67.162 131.28 67.582 129.996 67.582ZM130.392 57.232C129.84 57.232 129.414 57.514 129.114 58.078C128.826 58.63 128.682 59.314 128.682 60.13C128.682 60.55 128.724 60.934 128.808 61.282C128.904 61.63 129.03 61.912 129.186 62.128C129.354 62.344 129.528 62.518 129.708 62.65C129.888 62.77 130.092 62.83 130.32 62.83C130.584 62.83 130.812 62.77 131.004 62.65C131.208 62.518 131.382 62.35 131.526 62.146C131.67 61.942 131.79 61.66 131.886 61.3C131.994 60.94 132.048 60.55 132.048 60.13C132.048 59.302 131.904 58.612 131.616 58.06C131.328 57.508 130.92 57.232 130.392 57.232Z" fill="#A46FE2"/>
<path d="M179.28 40.358C179.28 40.586 179.268 40.706 179.244 40.718C179.22 40.73 179.13 40.658 178.974 40.502L172.026 33.518C171.954 33.446 171.894 33.386 171.846 33.338C171.81 33.29 171.78 33.248 171.756 33.212C171.744 33.164 171.732 33.11 171.72 33.05C171.72 32.99 171.72 32.912 171.72 32.816V32.348C171.72 32.252 171.72 32.174 171.72 32.114C171.732 32.054 171.744 32.006 171.756 31.97C171.78 31.922 171.81 31.874 171.846 31.826C171.894 31.778 171.954 31.718 172.026 31.646L178.902 24.662C179.094 24.47 179.202 24.38 179.226 24.392C179.262 24.404 179.28 24.548 179.28 24.824V25.508C179.28 25.628 179.274 25.724 179.262 25.796C179.262 25.868 179.25 25.928 179.226 25.976C179.214 26.024 179.184 26.072 179.136 26.12C179.1 26.168 179.04 26.234 178.956 26.318L173.052 32.312C172.92 32.444 172.848 32.534 172.836 32.582C172.836 32.618 172.896 32.696 173.016 32.816C173.484 33.284 173.97 33.776 174.474 34.292C174.978 34.796 175.488 35.312 176.004 35.84C176.52 36.356 177.03 36.872 177.534 37.388C178.05 37.904 178.542 38.396 179.01 38.864C179.142 39.008 179.22 39.11 179.244 39.17C179.268 39.23 179.28 39.368 179.28 39.584V40.358ZM187.47 37.658C187.638 37.658 187.722 37.742 187.722 37.91V38.522C187.722 38.69 187.638 38.774 187.47 38.774H181.728C181.56 38.774 181.476 38.69 181.476 38.522V37.91C181.476 37.742 181.56 37.658 181.728 37.658H184.032V30.872H181.926C181.758 30.872 181.674 30.788 181.674 30.62V30.008C181.674 29.84 181.758 29.756 181.926 29.756H185.076C185.244 29.756 185.328 29.84 185.328 30.008V37.658H187.47ZM183.474 26.84C183.474 26.564 183.57 26.33 183.762 26.138C183.966 25.934 184.206 25.832 184.482 25.832C184.758 25.832 184.992 25.934 185.184 26.138C185.388 26.33 185.49 26.564 185.49 26.84C185.49 27.116 185.388 27.356 185.184 27.56C184.992 27.752 184.758 27.848 184.482 27.848C184.206 27.848 183.966 27.752 183.762 27.56C183.57 27.356 183.474 27.116 183.474 26.84ZM196.002 34.256C196.002 33.788 195.948 33.326 195.84 32.87C195.732 32.414 195.564 32 195.336 31.628C194.88 30.908 194.262 30.548 193.482 30.548C192.666 30.548 192.048 30.908 191.628 31.628C191.4 32 191.232 32.414 191.124 32.87C191.028 33.326 190.98 33.788 190.98 34.256C190.98 34.772 191.028 35.258 191.124 35.714C191.22 36.17 191.388 36.56 191.628 36.884C192.156 37.616 192.774 37.982 193.482 37.982C194.31 37.982 194.928 37.616 195.336 36.884C195.576 36.56 195.744 36.17 195.84 35.714C195.948 35.258 196.002 34.772 196.002 34.256ZM197.244 34.256C197.244 34.916 197.166 35.54 197.01 36.128C196.866 36.704 196.638 37.19 196.326 37.586C195.966 38.054 195.552 38.414 195.084 38.666C194.616 38.93 194.082 39.062 193.482 39.062C192.882 39.062 192.348 38.93 191.88 38.666C191.412 38.414 190.998 38.054 190.638 37.586C190.35 37.154 190.128 36.656 189.972 36.092C189.828 35.528 189.756 34.916 189.756 34.256C189.756 32.9 190.05 31.79 190.638 30.926C191.322 29.954 192.27 29.468 193.482 29.468C194.094 29.468 194.628 29.588 195.084 29.828C195.552 30.056 195.966 30.422 196.326 30.926C196.938 31.802 197.244 32.912 197.244 34.256ZM199.638 37.586C200.406 37.886 201.198 38.036 202.014 38.036C202.698 38.036 203.274 37.868 203.742 37.532C204.222 37.184 204.462 36.836 204.462 36.488C204.462 36.164 204.33 35.882 204.066 35.642C203.802 35.402 203.478 35.186 203.094 34.994C202.686 34.778 202.284 34.574 201.888 34.382C201.504 34.178 201.114 33.974 200.718 33.77C200.262 33.542 199.926 33.266 199.71 32.942C199.506 32.606 199.404 32.282 199.404 31.97C199.404 31.586 199.488 31.244 199.656 30.944C199.824 30.644 200.052 30.38 200.34 30.152C200.628 29.924 200.976 29.756 201.384 29.648C201.804 29.528 202.248 29.468 202.716 29.468C203.148 29.468 203.544 29.492 203.904 29.54C204.264 29.588 204.636 29.672 205.02 29.792C205.104 29.816 205.17 29.852 205.218 29.9C205.278 29.948 205.302 30.008 205.29 30.08L205.236 30.656C205.224 30.752 205.182 30.812 205.11 30.836C205.05 30.86 204.99 30.86 204.93 30.836C204.582 30.704 204.246 30.614 203.922 30.566C203.598 30.518 203.238 30.494 202.842 30.494C201.39 30.494 200.664 30.986 200.664 31.97C200.664 32.15 200.76 32.342 200.952 32.546C201.144 32.738 201.474 32.936 201.942 33.14C202.398 33.356 202.806 33.554 203.166 33.734C203.538 33.902 203.946 34.106 204.39 34.346C204.918 34.658 205.278 34.982 205.47 35.318C205.674 35.654 205.776 36.038 205.776 36.47C205.776 36.818 205.674 37.172 205.47 37.532C205.266 37.892 204.99 38.18 204.642 38.396C204.306 38.612 203.916 38.774 203.472 38.882C203.028 39.002 202.578 39.062 202.122 39.062C201.834 39.062 201.576 39.056 201.348 39.044C201.132 39.032 200.922 39.014 200.718 38.99C200.526 38.966 200.328 38.936 200.124 38.9C199.932 38.864 199.728 38.816 199.512 38.756C199.32 38.696 199.23 38.594 199.242 38.45L199.332 37.748C199.368 37.568 199.47 37.514 199.638 37.586ZM214.686 38.756C214.182 38.96 213.594 39.062 212.922 39.062C211.83 39.062 211.128 38.744 210.816 38.108C210.612 37.676 210.51 36.914 210.51 35.822V31.214H208.17C208.002 31.214 207.918 31.13 207.918 30.962V30.422C207.918 30.254 208.002 30.17 208.17 30.17H210.51V27.632C210.51 27.452 210.588 27.362 210.744 27.362H211.5C211.656 27.362 211.734 27.452 211.734 27.632V30.17H214.632C214.8 30.17 214.884 30.254 214.884 30.422V30.962C214.884 31.13 214.8 31.214 214.632 31.214H211.734V36.632C211.734 37.532 212.226 37.982 213.21 37.982C213.702 37.982 214.17 37.88 214.614 37.676C214.674 37.652 214.728 37.652 214.776 37.676C214.836 37.7 214.866 37.748 214.866 37.82L214.902 38.396C214.926 38.564 214.854 38.684 214.686 38.756ZM221.472 37.658C221.64 37.658 221.724 37.742 221.724 37.91V38.522C221.724 38.69 221.64 38.774 221.472 38.774H217.422C217.254 38.774 217.17 38.69 217.17 38.522V37.91C217.17 37.742 217.254 37.658 217.422 37.658H218.484V30.872H217.098C216.93 30.872 216.846 30.788 216.846 30.62V30.008C216.846 29.84 216.93 29.756 217.098 29.756H219.276C219.444 29.756 219.528 29.84 219.528 30.008V31.772C220.26 30.26 221.316 29.504 222.696 29.504C223.404 29.504 224.04 29.642 224.604 29.918C224.724 29.966 224.79 30.026 224.802 30.098C224.814 30.17 224.802 30.248 224.766 30.332L224.55 30.98C224.514 31.064 224.466 31.106 224.406 31.106C224.358 31.094 224.292 31.064 224.208 31.016C223.68 30.764 223.116 30.638 222.516 30.638C221.532 30.686 220.752 31.22 220.176 32.24C219.852 32.864 219.69 33.68 219.69 34.688V37.658H221.472ZM231.912 33.68C231.912 33.308 231.864 32.93 231.768 32.546C231.684 32.162 231.552 31.826 231.372 31.538C230.952 30.842 230.352 30.494 229.572 30.494C228.792 30.494 228.18 30.848 227.736 31.556C227.532 31.904 227.376 32.264 227.268 32.636C227.16 33.008 227.1 33.356 227.088 33.68H231.912ZM227.07 34.706C227.058 35.09 227.124 35.51 227.268 35.966C227.424 36.41 227.634 36.776 227.898 37.064C228.162 37.34 228.462 37.562 228.798 37.73C229.134 37.898 229.542 37.982 230.022 37.982C230.442 37.982 230.832 37.94 231.192 37.856C231.552 37.772 231.912 37.634 232.272 37.442C232.416 37.382 232.494 37.424 232.506 37.568V38.396C232.506 38.492 232.44 38.57 232.308 38.63C231.936 38.774 231.57 38.882 231.21 38.954C230.862 39.026 230.436 39.062 229.932 39.062C228.648 39.062 227.628 38.636 226.872 37.784C226.116 36.92 225.738 35.762 225.738 34.31C225.738 32.99 226.11 31.838 226.854 30.854C227.634 29.93 228.546 29.468 229.59 29.468C230.238 29.468 230.772 29.582 231.192 29.81C231.624 30.038 232.008 30.386 232.344 30.854C232.944 31.658 233.244 32.75 233.244 34.13C233.244 34.274 233.238 34.388 233.226 34.472C233.226 34.544 233.208 34.598 233.172 34.634C233.136 34.67 233.07 34.694 232.974 34.706C232.89 34.706 232.764 34.706 232.596 34.706H227.07ZM240.66 34.058H240.318C239.646 34.034 239.082 34.058 238.626 34.13C238.17 34.202 237.78 34.316 237.456 34.472C237.06 34.64 236.754 34.904 236.538 35.264C236.322 35.612 236.214 35.972 236.214 36.344C236.214 36.56 236.262 36.794 236.358 37.046C236.454 37.286 236.604 37.472 236.808 37.604C237.156 37.892 237.546 38.036 237.978 38.036C238.398 38.036 238.746 37.958 239.022 37.802C239.298 37.634 239.568 37.382 239.832 37.046C240.096 36.698 240.3 36.308 240.444 35.876C240.588 35.444 240.66 35.024 240.66 34.616V34.058ZM236.034 31.25C235.974 31.286 235.914 31.298 235.854 31.286C235.806 31.262 235.782 31.22 235.782 31.16V30.458C235.782 30.302 235.866 30.188 236.034 30.116C236.442 29.876 236.856 29.708 237.276 29.612C237.708 29.516 238.17 29.468 238.662 29.468C239.706 29.444 240.504 29.744 241.056 30.368C241.608 30.992 241.884 31.766 241.884 32.69V36.884C241.884 37.22 241.89 37.52 241.902 37.784C241.914 38.048 241.932 38.3 241.956 38.54C241.956 38.696 241.872 38.774 241.704 38.774H241.056C240.888 38.774 240.804 38.696 240.804 38.54V37.262C240.552 37.826 240.168 38.264 239.652 38.576C239.136 38.9 238.53 39.062 237.834 39.062C236.802 39.062 236.004 38.726 235.44 38.054C235.248 37.838 235.104 37.58 235.008 37.28C234.912 36.98 234.864 36.686 234.864 36.398C234.864 35.774 235.032 35.204 235.368 34.688C235.716 34.16 236.244 33.764 236.952 33.5C237.636 33.188 238.794 33.032 240.426 33.032H240.66V32.618C240.66 32.006 240.486 31.502 240.138 31.106C239.802 30.698 239.31 30.494 238.662 30.494C238.146 30.494 237.684 30.554 237.276 30.674C236.88 30.782 236.466 30.974 236.034 31.25ZM243.756 32.042C243.756 31.538 243.75 31.142 243.738 30.854C243.726 30.554 243.708 30.272 243.684 30.008C243.684 29.84 243.768 29.756 243.936 29.756H244.602C244.77 29.756 244.854 29.84 244.854 30.008L244.836 30.782C244.92 30.398 245.088 30.098 245.34 29.882C245.592 29.654 245.844 29.54 246.096 29.54C246.54 29.54 246.894 29.72 247.158 30.08C247.434 30.44 247.608 30.866 247.68 31.358C247.716 30.962 247.848 30.572 248.076 30.188C248.304 29.804 248.676 29.588 249.192 29.54C249.648 29.54 250.008 29.624 250.272 29.792C250.536 29.948 250.746 30.176 250.902 30.476C251.058 30.776 251.166 31.124 251.226 31.52C251.286 31.916 251.316 32.336 251.316 32.78V38.522C251.316 38.69 251.232 38.774 251.064 38.774H250.38C250.212 38.774 250.128 38.696 250.128 38.54V33.032C250.128 31.448 249.81 30.656 249.174 30.656C248.934 30.656 248.742 30.752 248.598 30.944C248.454 31.136 248.346 31.376 248.274 31.664C248.214 31.952 248.166 32.312 248.13 32.744C248.106 33.176 248.1 33.632 248.112 34.112V38.522C248.112 38.69 248.028 38.774 247.86 38.774H247.212C247.044 38.774 246.96 38.69 246.96 38.522V33.032C246.924 31.448 246.588 30.656 245.952 30.656C245.616 30.656 245.358 30.896 245.178 31.376C245.01 31.856 244.932 32.546 244.944 33.446V38.522C244.944 38.69 244.86 38.774 244.692 38.774H244.008C243.84 38.774 243.756 38.69 243.756 38.522V32.042ZM252.702 39.62C252.702 39.512 252.702 39.428 252.702 39.368C252.702 39.308 252.708 39.254 252.72 39.206C252.744 39.158 252.774 39.11 252.81 39.062C252.858 39.014 252.918 38.954 252.99 38.882C253.458 38.414 253.944 37.922 254.448 37.406C254.964 36.89 255.48 36.374 255.996 35.858C256.512 35.33 257.022 34.808 257.526 34.292C258.042 33.776 258.534 33.284 259.002 32.816C259.11 32.696 259.164 32.618 259.164 32.582C259.164 32.534 259.098 32.444 258.966 32.312L253.026 26.3C252.942 26.216 252.876 26.15 252.828 26.102C252.792 26.054 252.762 26.006 252.738 25.958C252.726 25.91 252.714 25.85 252.702 25.778C252.702 25.706 252.702 25.61 252.702 25.49V24.788C252.702 24.512 252.714 24.368 252.738 24.356C252.774 24.344 252.882 24.434 253.062 24.626L259.992 31.646C260.064 31.718 260.118 31.778 260.154 31.826C260.202 31.874 260.232 31.922 260.244 31.97C260.268 32.006 260.28 32.054 260.28 32.114C260.292 32.174 260.298 32.252 260.298 32.348V32.816C260.298 32.912 260.292 32.99 260.28 33.05C260.28 33.11 260.268 33.164 260.244 33.212C260.232 33.248 260.202 33.29 260.154 33.338C260.118 33.386 260.064 33.446 259.992 33.518L253.008 40.538C252.852 40.694 252.762 40.766 252.738 40.754C252.714 40.742 252.702 40.622 252.702 40.394V39.62ZM151.866 64.522C151.866 64.69 151.782 64.774 151.614 64.774H150.894C150.726 64.774 150.642 64.69 150.642 64.522V59.572C150.642 58.468 150.492 57.688 150.192 57.232C149.892 56.764 149.382 56.53 148.662 56.53C148.026 56.53 147.492 56.788 147.06 57.304C146.628 57.808 146.412 58.576 146.412 59.608V64.522C146.412 64.69 146.328 64.774 146.16 64.774H145.44C145.272 64.774 145.188 64.69 145.188 64.522V58.042C145.188 57.526 145.182 57.124 145.17 56.836C145.17 56.548 145.158 56.272 145.134 56.008C145.122 55.924 145.14 55.864 145.188 55.828C145.248 55.78 145.314 55.756 145.386 55.756H146.034C146.202 55.756 146.286 55.84 146.286 56.008V57.016C146.574 56.5 146.922 56.122 147.33 55.882C147.75 55.63 148.23 55.504 148.77 55.504C149.826 55.504 150.606 55.834 151.11 56.494C151.614 57.154 151.866 58.084 151.866 59.284V64.522ZM159.66 60.058H159.318C158.646 60.034 158.082 60.058 157.626 60.13C157.17 60.202 156.78 60.316 156.456 60.472C156.06 60.64 155.754 60.904 155.538 61.264C155.322 61.612 155.214 61.972 155.214 62.344C155.214 62.56 155.262 62.794 155.358 63.046C155.454 63.286 155.604 63.472 155.808 63.604C156.156 63.892 156.546 64.036 156.978 64.036C157.398 64.036 157.746 63.958 158.022 63.802C158.298 63.634 158.568 63.382 158.832 63.046C159.096 62.698 159.3 62.308 159.444 61.876C159.588 61.444 159.66 61.024 159.66 60.616V60.058ZM155.034 57.25C154.974 57.286 154.914 57.298 154.854 57.286C154.806 57.262 154.782 57.22 154.782 57.16V56.458C154.782 56.302 154.866 56.188 155.034 56.116C155.442 55.876 155.856 55.708 156.276 55.612C156.708 55.516 157.17 55.468 157.662 55.468C158.706 55.444 159.504 55.744 160.056 56.368C160.608 56.992 160.884 57.766 160.884 58.69V62.884C160.884 63.22 160.89 63.52 160.902 63.784C160.914 64.048 160.932 64.3 160.956 64.54C160.956 64.696 160.872 64.774 160.704 64.774H160.056C159.888 64.774 159.804 64.696 159.804 64.54V63.262C159.552 63.826 159.168 64.264 158.652 64.576C158.136 64.9 157.53 65.062 156.834 65.062C155.802 65.062 155.004 64.726 154.44 64.054C154.248 63.838 154.104 63.58 154.008 63.28C153.912 62.98 153.864 62.686 153.864 62.398C153.864 61.774 154.032 61.204 154.368 60.688C154.716 60.16 155.244 59.764 155.952 59.5C156.636 59.188 157.794 59.032 159.426 59.032H159.66V58.618C159.66 58.006 159.486 57.502 159.138 57.106C158.802 56.698 158.31 56.494 157.662 56.494C157.146 56.494 156.684 56.554 156.276 56.674C155.88 56.782 155.466 56.974 155.034 57.25ZM162.756 58.042C162.756 57.538 162.75 57.142 162.738 56.854C162.726 56.554 162.708 56.272 162.684 56.008C162.684 55.84 162.768 55.756 162.936 55.756H163.602C163.77 55.756 163.854 55.84 163.854 56.008L163.836 56.782C163.92 56.398 164.088 56.098 164.34 55.882C164.592 55.654 164.844 55.54 165.096 55.54C165.54 55.54 165.894 55.72 166.158 56.08C166.434 56.44 166.608 56.866 166.68 57.358C166.716 56.962 166.848 56.572 167.076 56.188C167.304 55.804 167.676 55.588 168.192 55.54C168.648 55.54 169.008 55.624 169.272 55.792C169.536 55.948 169.746 56.176 169.902 56.476C170.058 56.776 170.166 57.124 170.226 57.52C170.286 57.916 170.316 58.336 170.316 58.78V64.522C170.316 64.69 170.232 64.774 170.064 64.774H169.38C169.212 64.774 169.128 64.696 169.128 64.54V59.032C169.128 57.448 168.81 56.656 168.174 56.656C167.934 56.656 167.742 56.752 167.598 56.944C167.454 57.136 167.346 57.376 167.274 57.664C167.214 57.952 167.166 58.312 167.13 58.744C167.106 59.176 167.1 59.632 167.112 60.112V64.522C167.112 64.69 167.028 64.774 166.86 64.774H166.212C166.044 64.774 165.96 64.69 165.96 64.522V59.032C165.924 57.448 165.588 56.656 164.952 56.656C164.616 56.656 164.358 56.896 164.178 57.376C164.01 57.856 163.932 58.546 163.944 59.446V64.522C163.944 64.69 163.86 64.774 163.692 64.774H163.008C162.84 64.774 162.756 64.69 162.756 64.522V58.042ZM177.912 59.68C177.912 59.308 177.864 58.93 177.768 58.546C177.684 58.162 177.552 57.826 177.372 57.538C176.952 56.842 176.352 56.494 175.572 56.494C174.792 56.494 174.18 56.848 173.736 57.556C173.532 57.904 173.376 58.264 173.268 58.636C173.16 59.008 173.1 59.356 173.088 59.68H177.912ZM173.07 60.706C173.058 61.09 173.124 61.51 173.268 61.966C173.424 62.41 173.634 62.776 173.898 63.064C174.162 63.34 174.462 63.562 174.798 63.73C175.134 63.898 175.542 63.982 176.022 63.982C176.442 63.982 176.832 63.94 177.192 63.856C177.552 63.772 177.912 63.634 178.272 63.442C178.416 63.382 178.494 63.424 178.506 63.568V64.396C178.506 64.492 178.44 64.57 178.308 64.63C177.936 64.774 177.57 64.882 177.21 64.954C176.862 65.026 176.436 65.062 175.932 65.062C174.648 65.062 173.628 64.636 172.872 63.784C172.116 62.92 171.738 61.762 171.738 60.31C171.738 58.99 172.11 57.838 172.854 56.854C173.634 55.93 174.546 55.468 175.59 55.468C176.238 55.468 176.772 55.582 177.192 55.81C177.624 56.038 178.008 56.386 178.344 56.854C178.944 57.658 179.244 58.75 179.244 60.13C179.244 60.274 179.238 60.388 179.226 60.472C179.226 60.544 179.208 60.598 179.172 60.634C179.136 60.67 179.07 60.694 178.974 60.706C178.89 60.706 178.764 60.706 178.596 60.706H173.07ZM181.638 63.586C182.406 63.886 183.198 64.036 184.014 64.036C184.698 64.036 185.274 63.868 185.742 63.532C186.222 63.184 186.462 62.836 186.462 62.488C186.462 62.164 186.33 61.882 186.066 61.642C185.802 61.402 185.478 61.186 185.094 60.994C184.686 60.778 184.284 60.574 183.888 60.382C183.504 60.178 183.114 59.974 182.718 59.77C182.262 59.542 181.926 59.266 181.71 58.942C181.506 58.606 181.404 58.282 181.404 57.97C181.404 57.586 181.488 57.244 181.656 56.944C181.824 56.644 182.052 56.38 182.34 56.152C182.628 55.924 182.976 55.756 183.384 55.648C183.804 55.528 184.248 55.468 184.716 55.468C185.148 55.468 185.544 55.492 185.904 55.54C186.264 55.588 186.636 55.672 187.02 55.792C187.104 55.816 187.17 55.852 187.218 55.9C187.278 55.948 187.302 56.008 187.29 56.08L187.236 56.656C187.224 56.752 187.182 56.812 187.11 56.836C187.05 56.86 186.99 56.86 186.93 56.836C186.582 56.704 186.246 56.614 185.922 56.566C185.598 56.518 185.238 56.494 184.842 56.494C183.39 56.494 182.664 56.986 182.664 57.97C182.664 58.15 182.76 58.342 182.952 58.546C183.144 58.738 183.474 58.936 183.942 59.14C184.398 59.356 184.806 59.554 185.166 59.734C185.538 59.902 185.946 60.106 186.39 60.346C186.918 60.658 187.278 60.982 187.47 61.318C187.674 61.654 187.776 62.038 187.776 62.47C187.776 62.818 187.674 63.172 187.47 63.532C187.266 63.892 186.99 64.18 186.642 64.396C186.306 64.612 185.916 64.774 185.472 64.882C185.028 65.002 184.578 65.062 184.122 65.062C183.834 65.062 183.576 65.056 183.348 65.044C183.132 65.032 182.922 65.014 182.718 64.99C182.526 64.966 182.328 64.936 182.124 64.9C181.932 64.864 181.728 64.816 181.512 64.756C181.32 64.696 181.23 64.594 181.242 64.45L181.332 63.748C181.368 63.568 181.47 63.514 181.638 63.586ZM190.116 55.99C190.116 55.834 190.2 55.756 190.368 55.756H191.07C191.238 55.756 191.322 55.834 191.322 55.99V57.304C191.814 56.152 192.654 55.576 193.842 55.576C194.394 55.576 194.892 55.708 195.336 55.972C195.792 56.236 196.182 56.62 196.506 57.124C196.83 57.616 197.058 58.15 197.19 58.726C197.334 59.302 197.406 59.908 197.406 60.544C197.406 61.672 197.094 62.71 196.47 63.658C195.846 64.594 194.97 65.062 193.842 65.062C193.242 65.062 192.726 64.912 192.294 64.612C191.874 64.312 191.55 63.946 191.322 63.514V67.294C191.322 67.45 191.238 67.528 191.07 67.528H190.368C190.2 67.528 190.116 67.45 190.116 67.294V55.99ZM196.128 60.346C196.14 59.974 196.104 59.572 196.02 59.14C195.936 58.696 195.792 58.282 195.588 57.898C195.396 57.502 195.15 57.19 194.85 56.962C194.55 56.734 194.178 56.62 193.734 56.62C193.29 56.62 192.918 56.734 192.618 56.962C192.318 57.19 192.066 57.502 191.862 57.898C191.67 58.282 191.538 58.696 191.466 59.14C191.394 59.572 191.358 59.974 191.358 60.346C191.358 60.694 191.394 61.096 191.466 61.552C191.538 61.996 191.67 62.41 191.862 62.794C192.066 63.178 192.318 63.484 192.618 63.712C192.918 63.94 193.29 64.054 193.734 64.054C194.178 64.054 194.55 63.94 194.85 63.712C195.15 63.484 195.402 63.178 195.606 62.794C195.81 62.41 195.948 61.996 196.02 61.552C196.104 61.096 196.14 60.694 196.128 60.346ZM204.66 60.058H204.318C203.646 60.034 203.082 60.058 202.626 60.13C202.17 60.202 201.78 60.316 201.456 60.472C201.06 60.64 200.754 60.904 200.538 61.264C200.322 61.612 200.214 61.972 200.214 62.344C200.214 62.56 200.262 62.794 200.358 63.046C200.454 63.286 200.604 63.472 200.808 63.604C201.156 63.892 201.546 64.036 201.978 64.036C202.398 64.036 202.746 63.958 203.022 63.802C203.298 63.634 203.568 63.382 203.832 63.046C204.096 62.698 204.3 62.308 204.444 61.876C204.588 61.444 204.66 61.024 204.66 60.616V60.058ZM200.034 57.25C199.974 57.286 199.914 57.298 199.854 57.286C199.806 57.262 199.782 57.22 199.782 57.16V56.458C199.782 56.302 199.866 56.188 200.034 56.116C200.442 55.876 200.856 55.708 201.276 55.612C201.708 55.516 202.17 55.468 202.662 55.468C203.706 55.444 204.504 55.744 205.056 56.368C205.608 56.992 205.884 57.766 205.884 58.69V62.884C205.884 63.22 205.89 63.52 205.902 63.784C205.914 64.048 205.932 64.3 205.956 64.54C205.956 64.696 205.872 64.774 205.704 64.774H205.056C204.888 64.774 204.804 64.696 204.804 64.54V63.262C204.552 63.826 204.168 64.264 203.652 64.576C203.136 64.9 202.53 65.062 201.834 65.062C200.802 65.062 200.004 64.726 199.44 64.054C199.248 63.838 199.104 63.58 199.008 63.28C198.912 62.98 198.864 62.686 198.864 62.398C198.864 61.774 199.032 61.204 199.368 60.688C199.716 60.16 200.244 59.764 200.952 59.5C201.636 59.188 202.794 59.032 204.426 59.032H204.66V58.618C204.66 58.006 204.486 57.502 204.138 57.106C203.802 56.698 203.31 56.494 202.662 56.494C202.146 56.494 201.684 56.554 201.276 56.674C200.88 56.782 200.466 56.974 200.034 57.25ZM214.38 64.81C214.056 64.894 213.762 64.948 213.498 64.972C213.234 65.008 212.898 65.026 212.49 65.026C211.794 65.026 211.17 64.9 210.618 64.648C210.078 64.408 209.604 64.072 209.196 63.64C208.788 63.208 208.482 62.704 208.278 62.128C208.074 61.54 207.972 60.91 207.972 60.238C207.972 59.554 208.08 58.924 208.296 58.348C208.512 57.772 208.818 57.274 209.214 56.854C209.61 56.434 210.078 56.104 210.618 55.864C211.17 55.612 211.794 55.486 212.49 55.486C212.862 55.486 213.186 55.504 213.462 55.54C213.738 55.564 214.05 55.618 214.398 55.702C214.554 55.738 214.626 55.84 214.614 56.008L214.56 56.62C214.536 56.764 214.452 56.818 214.308 56.782C214.02 56.686 213.744 56.62 213.48 56.584C213.228 56.536 212.952 56.512 212.652 56.512C212.148 56.512 211.674 56.614 211.23 56.818C210.798 57.01 210.444 57.274 210.168 57.61C209.892 57.946 209.676 58.342 209.52 58.798C209.376 59.242 209.304 59.722 209.304 60.238C209.304 60.706 209.382 61.168 209.538 61.624C209.694 62.068 209.904 62.47 210.168 62.83C210.444 63.178 210.798 63.46 211.23 63.676C211.674 63.892 212.148 64 212.652 64C212.952 64 213.222 63.982 213.462 63.946C213.702 63.91 213.978 63.838 214.29 63.73C214.422 63.694 214.512 63.736 214.56 63.856L214.614 64.504C214.626 64.672 214.548 64.774 214.38 64.81ZM222.912 59.68C222.912 59.308 222.864 58.93 222.768 58.546C222.684 58.162 222.552 57.826 222.372 57.538C221.952 56.842 221.352 56.494 220.572 56.494C219.792 56.494 219.18 56.848 218.736 57.556C218.532 57.904 218.376 58.264 218.268 58.636C218.16 59.008 218.1 59.356 218.088 59.68H222.912ZM218.07 60.706C218.058 61.09 218.124 61.51 218.268 61.966C218.424 62.41 218.634 62.776 218.898 63.064C219.162 63.34 219.462 63.562 219.798 63.73C220.134 63.898 220.542 63.982 221.022 63.982C221.442 63.982 221.832 63.94 222.192 63.856C222.552 63.772 222.912 63.634 223.272 63.442C223.416 63.382 223.494 63.424 223.506 63.568V64.396C223.506 64.492 223.44 64.57 223.308 64.63C222.936 64.774 222.57 64.882 222.21 64.954C221.862 65.026 221.436 65.062 220.932 65.062C219.648 65.062 218.628 64.636 217.872 63.784C217.116 62.92 216.738 61.762 216.738 60.31C216.738 58.99 217.11 57.838 217.854 56.854C218.634 55.93 219.546 55.468 220.59 55.468C221.238 55.468 221.772 55.582 222.192 55.81C222.624 56.038 223.008 56.386 223.344 56.854C223.944 57.658 224.244 58.75 224.244 60.13C224.244 60.274 224.238 60.388 224.226 60.472C224.226 60.544 224.208 60.598 224.172 60.634C224.136 60.67 224.07 60.694 223.974 60.706C223.89 60.706 223.764 60.706 223.596 60.706H218.07ZM235.638 63.586C236.406 63.886 237.198 64.036 238.014 64.036C238.698 64.036 239.274 63.868 239.742 63.532C240.222 63.184 240.462 62.836 240.462 62.488C240.462 62.164 240.33 61.882 240.066 61.642C239.802 61.402 239.478 61.186 239.094 60.994C238.686 60.778 238.284 60.574 237.888 60.382C237.504 60.178 237.114 59.974 236.718 59.77C236.262 59.542 235.926 59.266 235.71 58.942C235.506 58.606 235.404 58.282 235.404 57.97C235.404 57.586 235.488 57.244 235.656 56.944C235.824 56.644 236.052 56.38 236.34 56.152C236.628 55.924 236.976 55.756 237.384 55.648C237.804 55.528 238.248 55.468 238.716 55.468C239.148 55.468 239.544 55.492 239.904 55.54C240.264 55.588 240.636 55.672 241.02 55.792C241.104 55.816 241.17 55.852 241.218 55.9C241.278 55.948 241.302 56.008 241.29 56.08L241.236 56.656C241.224 56.752 241.182 56.812 241.11 56.836C241.05 56.86 240.99 56.86 240.93 56.836C240.582 56.704 240.246 56.614 239.922 56.566C239.598 56.518 239.238 56.494 238.842 56.494C237.39 56.494 236.664 56.986 236.664 57.97C236.664 58.15 236.76 58.342 236.952 58.546C237.144 58.738 237.474 58.936 237.942 59.14C238.398 59.356 238.806 59.554 239.166 59.734C239.538 59.902 239.946 60.106 240.39 60.346C240.918 60.658 241.278 60.982 241.47 61.318C241.674 61.654 241.776 62.038 241.776 62.47C241.776 62.818 241.674 63.172 241.47 63.532C241.266 63.892 240.99 64.18 240.642 64.396C240.306 64.612 239.916 64.774 239.472 64.882C239.028 65.002 238.578 65.062 238.122 65.062C237.834 65.062 237.576 65.056 237.348 65.044C237.132 65.032 236.922 65.014 236.718 64.99C236.526 64.966 236.328 64.936 236.124 64.9C235.932 64.864 235.728 64.816 235.512 64.756C235.32 64.696 235.23 64.594 235.242 64.45L235.332 63.748C235.368 63.568 235.47 63.514 235.638 63.586ZM250.686 64.756C250.182 64.96 249.594 65.062 248.922 65.062C247.83 65.062 247.128 64.744 246.816 64.108C246.612 63.676 246.51 62.914 246.51 61.822V57.214H244.17C244.002 57.214 243.918 57.13 243.918 56.962V56.422C243.918 56.254 244.002 56.17 244.17 56.17H246.51V53.632C246.51 53.452 246.588 53.362 246.744 53.362H247.5C247.656 53.362 247.734 53.452 247.734 53.632V56.17H250.632C250.8 56.17 250.884 56.254 250.884 56.422V56.962C250.884 57.13 250.8 57.214 250.632 57.214H247.734V62.632C247.734 63.532 248.226 63.982 249.21 63.982C249.702 63.982 250.17 63.88 250.614 63.676C250.674 63.652 250.728 63.652 250.776 63.676C250.836 63.7 250.866 63.748 250.866 63.82L250.902 64.396C250.926 64.564 250.854 64.684 250.686 64.756ZM259.92 64.54C259.92 64.696 259.836 64.774 259.668 64.774H258.966C258.798 64.774 258.714 64.696 258.714 64.54V63.226C258.222 64.378 257.382 64.954 256.194 64.954C255.642 64.954 255.138 64.822 254.682 64.558C254.238 64.294 253.854 63.916 253.53 63.424C253.206 62.92 252.972 62.38 252.828 61.804C252.696 61.228 252.63 60.622 252.63 59.986C252.63 58.858 252.942 57.826 253.566 56.89C254.19 55.942 255.066 55.468 256.194 55.468C256.794 55.468 257.304 55.618 257.724 55.918C258.156 56.218 258.486 56.602 258.714 57.07V51.706C258.714 51.55 258.798 51.472 258.966 51.472H259.668C259.836 51.472 259.92 51.55 259.92 51.706V64.54ZM253.908 60.184C253.896 60.556 253.932 60.964 254.016 61.408C254.1 61.84 254.238 62.254 254.43 62.65C254.634 63.034 254.886 63.34 255.186 63.568C255.486 63.796 255.858 63.91 256.302 63.91C256.746 63.91 257.118 63.796 257.418 63.568C257.718 63.34 257.964 63.034 258.156 62.65C258.36 62.254 258.498 61.84 258.57 61.408C258.642 60.964 258.678 60.556 258.678 60.184C258.678 59.836 258.642 59.44 258.57 58.996C258.498 58.54 258.36 58.12 258.156 57.736C257.964 57.352 257.718 57.046 257.418 56.818C257.118 56.59 256.746 56.476 256.302 56.476C255.858 56.476 255.486 56.59 255.186 56.818C254.886 57.046 254.634 57.352 254.43 57.736C254.226 58.12 254.082 58.54 253.998 58.996C253.926 59.44 253.896 59.836 253.908 60.184ZM264.582 55.162C264.582 54.838 264.702 54.55 264.942 54.298C265.194 54.046 265.494 53.92 265.842 53.92C266.166 53.92 266.448 54.046 266.688 54.298C266.94 54.55 267.066 54.838 267.066 55.162C267.066 55.498 266.94 55.792 266.688 56.044C266.448 56.284 266.166 56.404 265.842 56.404C265.494 56.404 265.194 56.284 264.942 56.044C264.702 55.792 264.582 55.498 264.582 55.162ZM266.976 61.372C267.108 61.372 267.186 61.402 267.21 61.462C267.234 61.522 267.216 61.588 267.156 61.66L264.618 65.62C264.546 65.728 264.486 65.794 264.438 65.818C264.39 65.854 264.318 65.872 264.222 65.872H263.34C263.172 65.872 263.136 65.782 263.232 65.602L264.924 61.696C264.972 61.624 265.02 61.552 265.068 61.48C265.128 61.408 265.23 61.372 265.374 61.372H266.976Z" fill="#303A66"/>
</svg>