<svg xmlns="http://www.w3.org/2000/svg" width="24" height="18"><path d="M11.5 16.96a.5.5 0 0 1 .5.497.5.5 0 0 1-.5.497h0-11a.5.5 0 0 1-.5-.497.5.5 0 0 1 .5-.497h0zM4.146.192a.5.5 0 0 1 .497-.124h0l8.568 2.557c.025-.017.05-.033.08-.046.137-.062 3.383-1.537 6.2-1.537 4.062 0 4.5 1.39 4.5 2 0 1.17-2.42 2.713-5.588 4.2.034.048.06.104.075.165h0l1.5 5.97c.057.226-.052.46-.26.565h0l-2 .995c-.074.037-.15.054-.226.054a.5.5 0 0 1-.387-.183h0l-4.33-5.265C8.846 10.95 5.12 11.985 4 11.985c-2.72 0-4-.098-4-.995 0-.194 0-.684 1.78-1.672h0L.084 6.79c-.132-.197-.106-.46.063-.628h0l1-.995a.5.5 0 0 1 .577-.093h0L5.5 6.952l2.007-1-5.255-2.987a.5.5 0 0 1-.227-.276l-.02-.1c-.02-.154.032-.308.142-.418h0zm13.37 7.435l-.314.14-3.43 1.388 3.862 4.694 1.284-.64-1.402-5.582zm1.983-5.59c-1.706 0-3.646.614-4.792 1.042.157.07.266.216.288.39a.5.5 0 0 1-.239.488h0l-5 2.984c-.08.047-.168.07-.257.07s-.17-.022-.248-.066h0l-.702-.4-2.827 1.407c-.113.056-.242.067-.36.033l-.087-.033L1.6 6.123l-.455.453L2.916 9.22c.08.117.104.264.068.4a.5.5 0 0 1-.255.317c-.587.3-1.175.667-1.503.923C1.932 11 3.438 11 4 11c3.346 0 19-6.103 19-7.96 0-.15-.143-.332-.466-.5l-.034.003c-1.73 0-2.616.82-2.653.856-.097.092-.222.137-.346.137a.5.5 0 0 1-.359-.151c-.19-.197-.188-.508.008-.7.025-.024.352-.335.968-.626-.193-.008-.4-.013-.618-.013zm-14.857-.93l-1.327 1.32 6.177 3.512 3.778-2.255-8.628-2.576z" fill="#abc1cf" fill-rule="nonzero"/></svg>