<svg xmlns="http://www.w3.org/2000/svg" width="100%" height="100%" viewBox="0 0 65 83" fill="#f2f7fa" fill-rule="nonzero"><path d="M64.9 18.424c-.1 0-.1-.1-.18-.18s-.1-.18-.18-.27L49.153.542c-.1-.1-.27-.18-.358-.27-.1 0-.1-.1-.18-.1a1.55 1.55 0 0 0-.716-.18H10.117C4.566 0 0 4.606 0 10.206v62.6C0 78.394 4.566 83 10.117 83h44.766C60.434 83 65 78.394 65 72.794V19.057c0-.18-.1-.452-.1-.632zM49.6 6.14l9.938 11.3H49.6V6.14zm11.997 66.563c0 3.793-2.955 6.864-6.715 6.864H10.117c-3.76 0-6.715-3.07-6.715-6.774v-62.68c0-3.793 3.044-6.774 6.715-6.774h36.08v15.715c0 .903.716 1.716 1.7 1.716h13.698V72.7zM11.76 21h15.48c.927 0 1.76-.842 1.76-2s-.74-2-1.76-2H11.76c-.927 0-1.76.842-1.76 2s.834 2 1.76 2zm15.48 41H11.76c-.927 0-1.76.842-1.76 2 0 1.053.74 2 1.76 2h15.48c.927 0 1.76-.842 1.76-2 0-1.053-.834-2-1.76-2zM9 30c0 1.053.727 2 1.727 2h40.545c.9 0 1.727-.842 1.727-2 0-1.053-.727-2-1.727-2H10.727C9.818 28 9 28.842 9 30zm42.273 7H10.727C9.818 37 9 37.842 9 39c0 1.053.727 2 1.727 2h40.545c.9 0 1.727-.842 1.727-2s-.727-2-1.727-2zm0 8H10.727C9.818 45 9 45.842 9 47c0 1.053.727 2 1.727 2h40.545c.9 0 1.727-.842 1.727-2s-.727-2-1.727-2zm0 9H10.727C9.818 54 9 54.842 9 56c0 1.053.727 2 1.727 2h40.545c.9 0 1.727-.842 1.727-2 0-1.053-.727-2-1.727-2z"/></svg>