<svg xmlns="http://www.w3.org/2000/svg" width="24" height="24" fill="#abc1cf" fill-rule="nonzero"><path d="M14.333 5.742v-.8c0-.904-.728-1.666-1.65-1.666h-.74V.548c0-.3-.25-.548-.556-.548s-.556.247-.556.548v2.74h-.628c-.917 0-1.65.762-1.65 1.666v.8c-3.913 1.236-6.57 4.83-6.57 8.886 0 5.15 4.244 9.337 9.467 9.337s9.456-4.186 9.456-9.337c.006-4.055-2.656-7.65-6.572-8.888zm3.844 4H16.1a10.66 10.66 0 0 0-.717-1.605 7.29 7.29 0 0 0-.772-1.145 8.41 8.41 0 0 1 3.567 2.75zM3.1 15.233h2.906c.04 1.107.194 2.214.472 3.288h-2.4a8.06 8.06 0 0 1-.967-3.288zm8.833-5.48v-3.3c.9.208 1.772.98 2.467 2.236a8.91 8.91 0 0 1 .506 1.074h-2.972zm3.34 1.096c.3 1.074.456 2.175.483 3.288h-3.822V10.85h3.34zm-4.45-4.378v3.282h-2.86c.144-.367.3-.73.506-1.074.667-1.2 1.483-1.962 2.356-2.208zm0 4.378v3.288h-3.7c.028-1.112.194-2.214.483-3.288h3.228zM6 14.137H3.1c.067-1.145.383-2.268.917-3.288h2.44c-.267 1.08-.417 2.18-.444 3.288zm1.117 1.096h3.706v3.288H7.64c-.306-1.074-.478-2.175-.5-3.288h0zm3.706 4.384V22.8c-.872-.247-1.7-1.008-2.356-2.203a9.04 9.04 0 0 1-.461-.964h2.817v-.005zm1.1 3.2v-3.2h2.928a9.04 9.04 0 0 1-.461.964c-.694 1.255-1.556 2.027-2.467 2.236zm0-4.296v-3.288h3.817a14.03 14.03 0 0 1-.511 3.288h-3.306zm4.928-3.288h2.906a8.14 8.14 0 0 1-.967 3.288h-2.4c.278-1.074.44-2.18.472-3.288h0zm.006-1.096a14.97 14.97 0 0 0-.45-3.288h2.44c.54 1.02.85 2.142.917 3.288h-2.906zm-7.2-9.184c0-.3.233-.57.54-.57H12.7c.306 0 .54.268.54.57v.504a9.45 9.45 0 0 0-3.556 0v-.504h-.006zm-1.394 2.05c-.3.362-.55.745-.772 1.145a10.66 10.66 0 0 0-.717 1.605H4.706a8.47 8.47 0 0 1 3.567-2.751h0zm-3.48 12.613h2.033a10.49 10.49 0 0 0 .672 1.496 7.29 7.29 0 0 0 .772 1.145 8.38 8.38 0 0 1-3.478-2.64zm9.822 2.64c.3-.362.55-.745.772-1.145a9.82 9.82 0 0 0 .672-1.496h2.033c-.9 1.167-2.1 2.082-3.478 2.64zM1.3 6.197a.56.56 0 0 0 .783 0l.5-.482.528.52a.56.56 0 0 0 .783 0 .54.54 0 0 0 0-.773h0l-.528-.52.528-.52a.54.54 0 0 0 0-.773.56.56 0 0 0-.783 0l-.528.52-.5-.482a.56.56 0 0 0-.783-.005.54.54 0 0 0-.006.773l.494.488-.5.482a.54.54 0 0 0 0 .773zm22.5 14.307a.56.56 0 0 0-.783 0l-.528.52-.5-.482a.55.55 0 0 0-.783-.01.54.54 0 0 0-.011.773l.5.493-.5.482a.54.54 0 0 0 0 .773.56.56 0 0 0 .783 0h0l.5-.482.528.52c.217.214.572.214.783-.005a.54.54 0 0 0 0-.773l-.528-.52.528-.52c.217-.208.217-.553 0-.767zm-21.027.548a.56.56 0 0 0-.783 0l-.528.52-.5-.482a.56.56 0 0 0-.783-.005.54.54 0 0 0-.006.773l.494.488-.5.482a.54.54 0 0 0-.006.773.56.56 0 0 0 .783.005l.494-.488.528.52a.56.56 0 0 0 .783.005.54.54 0 0 0 .006-.773l-.533-.526.528-.52a.54.54 0 0 0 0-.773z"/></svg>