<svg xmlns="http://www.w3.org/2000/svg" width="23" height="24" fill="#abc1cf" fill-rule="nonzero"><path d="M17.05 15.2H5.95a.4.4 0 0 0-.4.4V22a.4.4 0 0 0 .4.4h11.1a.4.4 0 0 0 .4-.4v-6.4a.4.4 0 0 0-.4-.4zm-.42.8a3.6 3.6 0 0 1-3.55 3.2h-1.2v-.4a.4.4 0 1 0-.8 0v.4H9.9A3.6 3.6 0 0 1 6.37 16h10.27zm.02 5.6H6.34v-3.48C7.16 19.3 8.5 20 9.9 20h1.2v.4a.4.4 0 1 0 .8 0V20h1.2c1.42 0 2.75-.7 3.57-1.88v3.48zm4.37-7.2h-1.2V7.96A2 2 0 0 0 21.41 6V3.6a2 2 0 0 0-1.98-2h-4.8A2 2 0 0 0 12.69 0h-2.4c-.94 0-1.75.67-1.94 1.6h-4.8a2 2 0 0 0-1.98 2V6a2 2 0 0 0 1.59 1.96v6.44h-1.2a2 2 0 0 0-1.98 2v3.2a2 2 0 0 0 1.98 2h1.2v.4a2 2 0 0 0 1.98 2h12.7a2 2 0 0 0 1.98-2v-.4h1.2a2 2 0 0 0 1.98-2v-3.2a2 2 0 0 0-1.98-2zm-.4-10.8V6a1.2 1.2 0 0 1-1.19 1.2h-1.98V2.4h1.98a1.2 1.2 0 0 1 1.19 1.2zm-3.97-1.2v4.8h-.8V2.4h.8zm-.8 8.8h.8v.4a.4.4 0 0 1-.8 0v-.4zm0-.8V8h.8v2.4h-.8zm-.8-8v4.8H7.93V2.4h7.14zM10.3.8h2.38c.5 0 .95.32 1.12.8H9.2c.17-.48.62-.8 1.12-.8zM7.14 2.4v4.8h-.8V2.4h.8zm-.8 8.8h.8v.4a.4.4 0 0 1-.8 0v-.4zm0-.8V8h.8v2.4h-.8zM2.38 6V3.6a1.2 1.2 0 0 1 1.19-1.2h1.98v4.8H3.57A1.2 1.2 0 0 1 2.38 6zm-.4 14.8a1.2 1.2 0 0 1-1.19-1.2v-3.2a1.2 1.2 0 0 1 1.19-1.2h1.2v5.6h-1.2zM19.03 22a1.2 1.2 0 0 1-1.19 1.2H5.16A1.2 1.2 0 0 1 3.97 22V8h1.6v2.4h-.4a.4.4 0 0 0 0 .8h.4v.4a1.2 1.2 0 0 0 1.19 1.2 1.2 1.2 0 0 0 1.19-1.2v-.4h.4a.4.4 0 0 0 0-.8h-.4V8h7.14v2.4h-.4a.4.4 0 0 0 0 .8h.4v.4a1.2 1.2 0 0 0 1.19 1.2 1.2 1.2 0 0 0 1.19-1.2v-.4h.4a.4.4 0 0 0 0-.8h-.4V8h1.6v14zm3.17-2.4a1.2 1.2 0 0 1-1.19 1.2h-1.2v-5.6H21a1.2 1.2 0 0 1 1.19 1.2v3.2z"/></svg>