<svg xmlns="http://www.w3.org/2000/svg" width="100%" height="100%" viewBox="0 0 99 112"><path d="M63.905.805L3.298 22.864c-1.944.707-2.953 2.855-2.25 4.787l29.6 81.323c.703 1.932 2.857 2.928 4.8 2.22l60.608-22.06c1.944-.707 2.953-2.855 2.25-4.787l-29.6-81.323c-.703-1.932-2.857-2.928-4.8-2.22zM95.283 85.45c.1.276-.044.583-.32.684l-60.608 22.06c-.278.1-.585-.042-.686-.317L4.07 26.55c-.1-.276.044-.583.32-.684L65 3.808c.277-.1.585.04.686.317l29.6 81.323zM64.85 42.626c-.765-.354-1.62-.333-2.265.058l-4.828 2.874-7.2-4.15 9.195-11.803c.405-.52.548-1.184.392-1.826a2.27 2.27 0 0 0-1.27-1.529l-2.55-1.18c-.746-.345-1.62-.274-2.276.182l-14.3 9.93-6.506-3.745c-2.26-1.137-6.016-1.284-8.738-.343-1.832.626-3.158 1.717-3.822 3.128s-.65 3.112.042 4.917c1.023 2.674 3.552 5.435 5.965 6.454l6.99 2.507 1.533 17.255c.07.793.575 1.5 1.323 1.848l2.55 1.18c.566.26 1.195.288 1.763.08.08-.03.158-.063.234-.1a2.15 2.15 0 0 0 1.156-1.47l3.203-14.575 7.84 2.812.886 5.513c.12.748.647 1.407 1.412 1.76l2.386 1.104c.624.29 1.318.326 1.91.11a2.13 2.13 0 0 0 .249-.108c.556-.29.938-.8 1.048-1.402l.72-3.953a3.91 3.91 0 0 0 2.01-.187c1.11-.404 2.092-1.287 2.67-2.517.913-1.947.497-4.1-.928-5.288l2.596-3.096c.395-.47.544-1.09.41-1.696-.155-.695-.673-1.308-1.39-1.64l-2.387-1.103zm-9.433-14.44l1.007.466-8.68 11.142-4.95-2.85 12.623-8.76zM39.35 64.98l-1.007-.466-1.352-15.222 5.382 1.93L39.35 64.98zm18.897-4.867l-1.006-.464-.527-3.282 2.08.746-.546 3zm5.39-6c-.32.68-.938 1.004-1.297.878l-34.49-12.37c-1.363-.577-3.336-2.5-4.146-4.626-.26-.682-.496-1.655-.136-2.422.344-.73 1.182-1.172 1.86-1.42l.096-.034c2.155-.744 4.915-.488 6.158.135l31.798 18.307c.328.188.473.872.155 1.55zm-.79-5.616l-1.913-1.1 2.874-1.7 1.006.465-1.967 2.346zM70.92 72.93c.302.83-.13 1.748-.964 2.052l-23.614 8.595c-.835.304-1.756-.123-2.057-.952s.13-1.748.964-2.052l23.614-8.595c.834-.304 1.756.123 2.057.952zm-1.947 8.426c.302.83-.13 1.748-.964 2.052L53.25 88.78c-.835.304-1.756-.123-2.057-.952s.13-1.748.964-2.052l14.76-5.372c.834-.304 1.756.123 2.057.952z" fill="#f2f7fa" fill-rule="nonzero"/></svg>