<svg xmlns="http://www.w3.org/2000/svg" width="176" height="104" fill="#a46fe2" fill-rule="evenodd"><path d="M19.5 41c-3.217 0-5.833 2.597-5.833 5.79s2.617 5.79 5.833 5.79 5.833-2.597 5.833-5.79S22.716 41 19.5 41zm0 9.263c-1.93 0-3.5-1.56-3.5-3.474s1.57-3.474 3.5-3.474 3.5 1.56 3.5 3.474-1.57 3.474-3.5 3.474zM30 61.842V63h-2.333v-1.158c0-3.192-2.617-5.79-5.833-5.79h-4.667c-3.216 0-5.833 2.597-5.833 5.79V63H9v-1.158c0-4.468 3.663-8.105 8.167-8.105h4.667c4.502 0 8.167 3.637 8.167 8.105z"/><g fill-rule="nonzero"><rect x="40" y="45" width="32" height="2" rx=".64"/><rect x="40" y="51" width="32" height="2" rx=".64"/><rect x="40" y="57" width="32" height="2" rx=".64"/><path d="M1.92 28h79.16A1.92 1.92 0 0 1 83 29.92v44.16A1.92 1.92 0 0 1 81.08 76H1.92A1.92 1.92 0 0 1 0 74.08V29.92A1.92 1.92 0 0 1 1.92 28zM4 32v40h75V32H4zm134 17a4 4 0 1 0 0-8 4 4 0 1 0 0 8z"/><rect x="149" y="40" width="11" height="2" rx="1"/><rect x="149" y="44" width="11" height="2" rx="1"/><rect x="149" y="48" width="11" height="2" rx="1"/><path d="M176 2.4v99.2a2.4 2.4 0 0 1-2.4 2.4h-53.2a2.4 2.4 0 0 1-2.4-2.4V2.4a2.4 2.4 0 0 1 2.4-2.4h53.2a2.4 2.4 0 0 1 2.4 2.4zM172 4h-50v96h50V4zm-25 92a3 3 0 1 0 0-6 3 3 0 1 0 0 6z"/></g><path d="M136 9.425c0-.787-.638-1.425-1.425-1.425H126v2.85h8.575c.787 0 1.425-.638 1.425-1.425zm-7.137 1.43h-2.85v5.72c0 .787.638 1.426 1.425 1.426s1.425-.638 1.425-1.426v-5.72zM127.426 65c-.787 0-1.426.638-1.426 1.425V75h2.85v-8.575c0-.787-.638-1.425-1.425-1.425zm1.43 7.137v2.85h5.72c.787 0 1.425-.638 1.425-1.425s-.638-1.425-1.425-1.425h-5.72zM166.575 18c.787 0 1.425-.638 1.425-1.425V8h-2.85v8.575c0 .787.638 1.425 1.426 1.425zm-1.43-7.137v-2.85h-5.72c-.787 0-1.426.638-1.426 1.425s.638 1.425 1.426 1.425h5.72zM158 73.574c0 .787.638 1.426 1.425 1.426H168v-2.85h-8.575c-.787 0-1.425.638-1.425 1.425zm7.137-1.43h2.85v-5.72c0-.787-.638-1.425-1.425-1.425s-1.425.638-1.425 1.425v5.72z"/><path d="M129 33h36a1 1 0 0 1 1 1v22a1 1 0 0 1-1 1h-36a1 1 0 0 1-1-1V34a1 1 0 0 1 1-1zm1 2v20h34V35h-34zM99.13 56.63L100.5 58l6.5-6.5-6.5-6.5-1.37 1.37 4.16 4.16H94v1.938h9.3z" fill-rule="nonzero"/></svg>