<?xml version="1.0" encoding="UTF-8"?>
<svg width="25" height="25" viewBox="0 0 25 25" fill="none" xmlns="http://www.w3.org/2000/svg">
  <path d="M5.91524 2.65C5.49829 2.65 5.18711 2.99932 5.18711 3.39584V21.6042C5.18711 22.0007 5.49829 22.35 5.91524 22.35C6.33219 22.35 6.64337 22.0007 6.64337 21.6042V3.39584C6.64337 2.99932 6.33219 2.65 5.91524 2.65Z" fill="#A46FE2" stroke="#A46FE2" stroke-width="0.7"/>
  <path d="M3.57004 12.4038L3.56899 12.4034C1.80315 11.6876 0.65 10.2227 0.65 8.54183C0.65 6.09894 3.08644 4.2335 5.91548 4.2335C8.74452 4.2335 11.181 6.0989 11.181 8.5418C11.181 8.93832 10.8698 9.28764 10.4528 9.28764C10.0359 9.28764 9.72471 8.93832 9.72471 8.5418C9.72471 7.80157 9.32994 7.10503 8.64293 6.58206C7.95579 6.05898 6.99203 5.72515 5.91548 5.72515C4.83893 5.72515 3.87517 6.05898 3.18802 6.58206C2.50101 7.10503 2.10621 7.80157 2.10618 8.5418L3.57004 12.4038ZM3.57004 12.4038C3.65603 12.4383 3.74562 12.4559 3.83734 12.4559C4.13667 12.4559 4.41026 12.2674 4.51797 11.974C4.6568 11.6018 4.48444 11.1704 4.10578 11.0168L4.10577 11.0168M3.57004 12.4038L4.10577 11.0168M4.10577 11.0168C2.8272 10.4981 2.10619 9.53002 2.10618 8.54181L4.10577 11.0168Z" fill="#A46FE2" stroke="#A46FE2" stroke-width="0.7"/>
  <path d="M7.72515 13.9835L7.72515 13.9835C9.00373 14.5022 9.72475 15.4703 9.72475 16.4585C9.72473 17.1987 9.32994 17.8953 8.64294 18.4182C7.95579 18.9413 6.99203 19.2752 5.91548 19.2752C4.83893 19.2752 3.87517 18.9413 3.18803 18.4182C2.50103 17.8953 2.10625 17.1987 2.10625 16.4585C2.10625 16.062 1.79508 15.7127 1.37812 15.7127C0.961174 15.7127 0.65 16.062 0.65 16.4585C0.65 18.9014 3.08644 20.7669 5.91548 20.7669C8.74452 20.7669 11.181 18.9014 11.181 16.4585C11.181 14.7779 10.0282 13.3132 8.26195 12.5981C7.87238 12.4384 7.45308 12.649 7.31325 13.0255C7.17388 13.3979 7.34621 13.8298 7.72515 13.9835Z" fill="#A46FE2" stroke="#A46FE2" stroke-width="0.7"/>
  <path d="M8.27039 12.602L8.27004 12.6019C7.15451 12.1309 6.62192 11.9468 6.0632 11.7537L6.0628 11.7535C6.06279 11.7535 6.06278 11.7535 6.06277 11.7535C5.57417 11.5846 5.07185 11.4104 4.10748 11.0182C3.71507 10.8545 3.29654 11.0718 3.15697 11.4436C3.01736 11.8154 3.1887 12.2486 3.56736 12.4029L3.5675 12.403C4.56044 12.807 5.08529 12.9885 5.58637 13.1618L5.59736 13.1656L5.59743 13.1656C6.1357 13.3516 6.6407 13.5262 7.71579 13.9798L7.71578 13.9798L7.71853 13.981C7.80562 14.0168 7.89847 14.0358 7.99325 14.0358C8.28965 14.0358 8.55942 13.8516 8.6698 13.5651C8.81362 13.1948 8.64644 12.7612 8.27039 12.602Z" fill="#A46FE2" stroke="#A46FE2" stroke-width="0.7"/>
  <path d="M19.0842 2.65C18.6672 2.65 18.3561 2.99932 18.3561 3.39584V21.6042C18.3561 22.0007 18.6672 22.35 19.0842 22.35C19.5011 22.35 19.8123 22.0007 19.8123 21.6042V3.39584C19.8123 2.99932 19.5011 2.65 19.0842 2.65Z" fill="#A46FE2" stroke="#A46FE2" stroke-width="0.7"/>
  <path d="M16.739 12.4038L16.7379 12.4034C14.9721 11.6876 13.8189 10.2227 13.8189 8.54183C13.8189 6.09894 16.2554 4.2335 19.0844 4.2335C21.9135 4.2335 24.3499 6.0989 24.3499 8.5418C24.3499 8.93832 24.0387 9.28764 23.6218 9.28764C23.2048 9.28764 22.8937 8.93832 22.8937 8.5418C22.8937 7.80157 22.4989 7.10503 21.8119 6.58206C21.1247 6.05898 20.161 5.72515 19.0844 5.72515C18.0079 5.72515 17.0441 6.05898 16.357 6.58206C15.67 7.10503 15.2752 7.80157 15.2751 8.5418L16.739 12.4038ZM16.739 12.4038C16.825 12.4383 16.9146 12.4559 17.0063 12.4559C17.3056 12.4559 17.5792 12.2674 17.6869 11.974C17.8257 11.6018 17.6534 11.1704 17.2747 11.0168L17.2747 11.0168M16.739 12.4038L17.2747 11.0168M17.2747 11.0168C15.9961 10.4981 15.2751 9.53002 15.2751 8.54181L17.2747 11.0168Z" fill="#A46FE2" stroke="#A46FE2" stroke-width="0.7"/>
  <path d="M20.8941 13.9832L20.8941 13.9832C22.1727 14.5019 22.8937 15.4701 22.8937 16.4583C22.8937 17.1985 22.4989 17.895 21.8119 18.418C21.1247 18.9411 20.161 19.2749 19.0844 19.2749C18.0079 19.2749 17.0441 18.9411 16.357 18.418C15.67 17.895 15.2752 17.1985 15.2752 16.4583C15.2752 16.0617 14.964 15.7124 14.5471 15.7124C14.1301 15.7124 13.8189 16.0617 13.8189 16.4583C13.8189 18.9012 16.2554 20.7666 19.0844 20.7666C21.9135 20.7666 24.3499 18.9012 24.3499 16.4583C24.3499 14.7776 23.1971 13.313 21.4309 12.5978C21.0413 12.4382 20.622 12.6488 20.4822 13.0253C20.3428 13.3977 20.5152 13.8295 20.8941 13.9832Z" fill="#A46FE2" stroke="#A46FE2" stroke-width="0.7"/>
  <path d="M21.4393 12.602L21.439 12.6019C20.3235 12.1309 19.7909 11.9468 19.2321 11.7537L19.2317 11.7535C19.2317 11.7535 19.2317 11.7535 19.2317 11.7535C18.7431 11.5846 18.2408 11.4104 17.2764 11.0182C16.884 10.8545 16.4655 11.0718 16.3259 11.4436C16.1863 11.8154 16.3576 12.2486 16.7363 12.4029L16.7364 12.403C17.7294 12.807 18.2542 12.9885 18.7553 13.1618L18.7663 13.1656L18.7664 13.1656C19.3046 13.3516 19.8096 13.5262 20.8847 13.9798L20.8847 13.9798L20.8875 13.981C20.9746 14.0168 21.0674 14.0358 21.1622 14.0358C21.4586 14.0358 21.7284 13.8516 21.8387 13.5651C21.9826 13.1948 21.8154 12.7612 21.4393 12.602Z" fill="#A46FE2" stroke="#A46FE2" stroke-width="0.7"/>
</svg>