<?xml version="1.0" encoding="UTF-8"?>
<svg width="25" height="25" viewBox="0 0 25 25" fill="none" xmlns="http://www.w3.org/2000/svg">
<g clip-path="url(#clip0)">
<path d="M13.0567 21.0615C14.6052 21.0615 15.8605 19.8061 15.8605 18.2577C15.8605 16.7092 14.6052 15.4539 13.0567 15.4539C11.5082 15.4539 10.2529 16.7092 10.2529 18.2577C10.2529 19.8061 11.5082 21.0615 13.0567 21.0615Z" fill="#A46FE2"/>
<path d="M19.7576 11.5024C19.716 11.4596 19.6721 11.4215 19.6293 11.3822L19.5034 11.2631C19.4825 11.2412 19.4594 11.225 19.4329 11.2042C15.8073 7.91036 10.2587 8.04096 6.79844 11.5012L6.39278 11.908L5.83109 12.4697C5.1469 13.1539 5.15037 14.2692 5.83572 14.9545C6.52222 15.6422 7.6375 15.6433 8.32053 14.9591L9.28903 13.9906C11.4895 11.7913 15.0688 11.7913 17.2682 13.9895L17.9674 14.6667C18.6446 15.344 19.7495 15.3429 20.4302 14.661C20.7596 14.3327 20.9411 13.8947 20.9422 13.429C20.9434 12.9655 20.7643 12.5275 20.4349 12.2004L19.7576 11.5024Z" fill="#A46FE2"/>
<path d="M24.5342 8.03629L23.9518 7.4538C23.9494 7.45149 23.9483 7.44803 23.9437 7.44687L23.4837 6.98458C23.4028 6.90483 23.3149 6.83549 23.2225 6.77539C17.3133 1.58733 8.32516 1.74682 2.6043 7.2504C2.57657 7.27582 2.54536 7.29316 2.51762 7.3209L1.46591 8.37376C0.841818 8.9967 0.845285 10.0103 1.47285 10.6378C2.09925 11.2642 3.11282 11.2689 3.73692 10.6436L4.78863 9.59306C4.79556 9.58381 4.80134 9.57572 4.80828 9.56994C9.43465 5.10074 16.7735 5.07301 21.4369 9.47864L22.2644 10.3073C22.8873 10.9302 23.9032 10.9279 24.5296 10.3015C25.1549 9.67396 25.1572 8.65923 24.5342 8.03629Z" fill="#A46FE2"/>
<line x1="3.41261" y1="1.06727" x2="22.0673" y2="21.5874" stroke="#A46FE2" stroke-width="2" stroke-linecap="round" stroke-linejoin="round"/>
</g>
<defs>
<clipPath id="clip0">
<path d="M0 0H25V25H0V0Z" fill="white"/>
</clipPath>
</defs>
</svg>