<svg xmlns="http://www.w3.org/2000/svg" width="52" height="56"><path d="M15.253 36.28l-2.027.144.018.954c.055 2.483 1.48 3.005 2.667 3.005.164 0 .274-.018.274-.018h.037l3.38-.324c.128-.396.146-.684.146-.684l-.566-23.605c-.018-.594-.2-1.06-.438-1.44l-3.196-.252-.384-.018c-.822 0-1.443.216-1.845.63-.603.63-.548 1.6-.548 1.6v.036l.037 1.493 2.85.162s1.88.396 1.972 2.303c.09 2.07.073 13.71.073 13.71s.22 1.89-2.447 2.303h0zm-6.484.45l-3.397.252s-2.794.378-2.867-2.645l-.33-14.843s-.2-2.34 2.685-2.14l3.543.216-.09-5.307-4.75-.396C-.234 11.452.003 14.6.003 14.6L.55 40.58c.1 3.382 3.8 2.825 3.8 2.825l4.566-.486-.146-6.19zM49.425 8.034C49.26 3.698 45.39 2.78 45.39 2.78L26.12.064c-5.88-.72-5.516 4.876-5.516 4.876l1.48 45.932c.164 6.027 5.863 5.074 5.863 5.074l20.2-3.436c3.67-.72 3.854-5.235 3.854-5.235l-2.575-39.24zm-4.51 34.705L29.9 44.27s-4.365.648-4.475-4.57c-.073-3.85-.93-25.943-.93-25.943s-.292-4.048 4.2-3.724l15.597 1.15s2.94.684 3.068 3.994c.146 3.598 1.406 23.57 1.406 23.57s.33 3.292-3.854 3.994h0zm-15.104.756l5.8-.594-1.443-31.7-5.534-.414c-.146-.018-.3-.018-.457-.018-.968 0-1.7.252-2.173.756-.804.828-.712 2.123-.712 2.14v.018c0 .018 0 .144.018.342l4.128.36s2.54.558 2.648 3.274l.84 18.927s.292 2.7-3.324 3.274l-3.36.324c.237 2.717 1.845 3.3 3.196 3.3.2 0 .33-.018.33-.018.037.018.055.018.055.018h0zm-8.84-2.79l-4.676.432s-3.78.54-3.854-3.742l-.438-21.068s-.256-3.3 3.616-3.04l4.475.342-.237-7.538-6.01-.612c-5.114-.576-4.803 3.886-4.803 3.886l.73 36.882c.146 4.804 5.114 4.03 5.114 4.03l6.356-.792-.274-8.78z" fill="#010101" fill-rule="nonzero"/></svg>