<svg xmlns="http://www.w3.org/2000/svg" width="100%" height="100%" viewBox="0 0 105 69" stroke="#f2f7fa" fill="none"><g stroke-linecap="round" stroke-width="4"><path d="M103 63.088V3.75c-.087-.795-.68-1.44-1.465-1.598A2.75 2.75 0 0 0 100.61 2H4.4a2.85 2.85 0 0 0-.943.152C2.67 2.315 2.085 2.96 2 3.75V65.1a2.19 2.19 0 0 0 2.374 1.901h96.253A2.19 2.19 0 0 0 103 65.09v-3.583" stroke-linejoin="round"/><path d="M65 24h21M65 34h21M65 44h21"/></g><g stroke-linejoin="round"><circle cx="33.5" cy="27.5" r="6.5" stroke-width="4"/><path d="M48 48H19c.274-7.97 6.745-14.217 14.492-13.994C41.245 33.773 47.726 40.024 48 48h0z" stroke-width="4"/></g></svg>