<svg xmlns="http://www.w3.org/2000/svg" width="76" height="104" fill-rule="evenodd"><g fill="#a46fe2"><g fill-rule="nonzero"><path d="M20 49a4 4 0 1 0 0-8 4 4 0 1 0 0 8z"/><rect x="31" y="40" width="11" height="2" rx="1"/><rect x="31" y="44" width="11" height="2" rx="1"/><rect x="31" y="48" width="11" height="2" rx="1"/><path d="M58 2.4v99.2a2.4 2.4 0 0 1-2.4 2.4H2.4a2.4 2.4 0 0 1-2.4-2.4V2.4A2.4 2.4 0 0 1 2.4 0h53.2A2.4 2.4 0 0 1 58 2.4zM54 4H4v96h50V4zM29 96a3 3 0 1 0 0-6 3 3 0 1 0 0 6z"/></g><path d="M18 9.425C18 8.638 17.362 8 16.575 8H8v2.85h8.575c.787 0 1.425-.638 1.425-1.425zm-7.137 1.43h-2.85v5.72c0 .787.638 1.426 1.425 1.426s1.425-.638 1.425-1.426v-5.72zM9.426 65C8.638 65 8 65.638 8 66.425V75h2.85v-8.575c0-.787-.638-1.425-1.425-1.425zm1.43 7.137v2.85h5.72c.787 0 1.425-.638 1.425-1.425s-.638-1.425-1.425-1.425h-5.72zM48.575 18c.787 0 1.425-.638 1.425-1.425V8h-2.85v8.575c0 .787.638 1.425 1.426 1.425zm-1.43-7.137v-2.85h-5.72c-.787 0-1.426.638-1.426 1.425s.638 1.425 1.426 1.425h5.72zM40 73.574c0 .787.638 1.426 1.425 1.426H50v-2.85h-8.575c-.787 0-1.425.638-1.425 1.425zm7.137-1.43h2.85v-5.72c0-.787-.638-1.425-1.425-1.425s-1.425.638-1.425 1.425v5.72z"/><path d="M11 33h36a1 1 0 0 1 1 1v22a1 1 0 0 1-1 1H11a1 1 0 0 1-1-1V34a1 1 0 0 1 1-1zm1 2v20h34V35H12z" fill-rule="nonzero"/></g><path d="M57 95c10.493 0 19-8.507 19-19s-8.507-19-19-19-19 8.507-19 19 8.507 19 19 19z" fill="#fbfbfb" fill-rule="nonzero"/><path d="M57 95c10.493 0 19-8.507 19-19s-8.507-19-19-19-19 8.507-19 19 8.507 19 19 19zm0-4c-8.284 0-15-6.716-15-15s6.716-15 15-15 15 6.716 15 15-6.716 15-15 15zm-1.873-13.852L52.1 74.185c-.708-.693-1.826-.693-2.534 0a1.9 1.9 0 0 0 0 2.703l4.98 4.872a.83.83 0 0 0 1.167 0l8.725-8.537a1.9 1.9 0 0 0 0-2.703c-.708-.693-1.826-.693-2.534 0l-6.774 6.628z" fill-rule="nonzero" fill="#a46fe2"/></svg>