<svg xmlns="http://www.w3.org/2000/svg" width="20" height="20" fill="#fd8f82" fill-rule="nonzero"><path d="M1.3 3.355C1.3 3.71 1 4 .655 4S0 3.7 0 3.355v-2.7A.65.65 0 0 1 .645 0h2.7A.65.65 0 0 1 4 .645C4 1 3.7 1.3 3.355 1.3H1.3v2.065zM10.5 3c3.186 0 5.57 2.512 5.57 5.598.502.447.748 1.137.772 1.82h2.564c.327 0 .593.26.593.58s-.265.58-.593.58h0-2.73c-.223.675-.696 1.33-1.4 1.596-.38.64-.87 1.2-1.43 1.685h0v1.348c0 .895.746 1.627 1.66 1.627.327 0 .593.26.592.58s-.265.58-.593.58c-1.966 0-2.844-1.502-2.844-3.24-.782.5-1.638.864-2.245.864-.627 0-1.425-.33-2.1-.725 0 1.688-1.002 3.1-2.844 3.1-.327 0-.593-.26-.593-.58s.265-.58.593-.58c.913 0 1.66-.732 1.66-1.627h0v-1.14a6.11 6.11 0 0 1-1.604-1.972c-.604-.303-1.012-.897-1.217-1.518h0-2.73A.58.58 0 0 1 1 11c0-.32.265-.58.593-.58h2.564c.024-.685.27-1.376.774-1.823C4.93 5.5 7.317 3 10.5 3zm4.894 8.58h-9.8c.124.215.337.45.53.515.166.044.312.16.386.326.298.663.74 1.22 1.307 1.7a7.58 7.58 0 0 0 1.484.987c.454.226.85.353 1.115.353.307 0 .826-.205 1.415-.558.905-.542 1.995-1.468 2.5-2.47a.59.59 0 0 1 .417-.315c.254-.05.478-.285.625-.54h0zm-4.6-4.67a6.02 6.02 0 0 1-4.688 1.605h0l.002.2c.002.263-.02.5-.296.67-.314.18-.462.655-.483 1.036h10.32l-.01-.12c-.04-.326-.17-.717-.44-.897a.58.58 0 0 1-.324-.518c0-.36.01-.65-.04-1.012a6.03 6.03 0 0 1-4.04-.963zm.388-2.694C8.95 3.864 6.83 5.258 6.262 7.364c2.186.188 4.224-1.116 4.93-3.148zm1.132.338a5.77 5.77 0 0 1-.75 1.469 4.88 4.88 0 0 0 2.94.718 4.38 4.38 0 0 0-2.192-2.187zm6.376 12.09c0-.356.3-.645.645-.645s.645.3.645.645v2.7c0 .356-.3.645-.645.645h-2.7c-.356 0-.645-.3-.645-.645s.3-.645.645-.645H18.7v-2.065zm-18.7 0C0 16.3.3 16 .645 16s.645.3.645.645V18.7h2.064c.356 0 .645.3.645.645S3.7 20 3.355 20h-2.7A.65.65 0 0 1 0 19.355v-2.7zm20-13.3c0 .356-.3.645-.645.645s-.645-.3-.645-.645V1.3h-2.064C16.3 1.3 16 1 16 .645S16.3 0 16.645 0h2.7C19.7 0 20 .3 20 .645v2.7z"/></svg>