<svg xmlns="http://www.w3.org/2000/svg" width="20" height="24" fill="#abc1cf" fill-rule="nonzero"><path d="M9.58 17.57h.8v.8h-.8zm1.6 0h.8v.8h-.8zm-3.2 0h.8v.8h-.8zM.4 23.95h19.15a.4.4 0 0 0 .4-.4V12.38a.4.4 0 0 0-.4-.4h-.88L16.75 3.5a.4.4 0 0 0-.39-.31h-1.2v-.87a1.2 1.2 0 1 0-.8 0v.87h-1.2a.4.4 0 0 0-.39.31l-1.93 8.47H7.18v-1.2a.4.4 0 0 0-.4-.4h-.55L5.4 8.7c.62-.6.98-1.4 1-2.27s-.3-1.7-.92-2.3a.4.4 0 0 0-.56 0l-1.04 1-2.16-.72a.4.4 0 0 0-.5.51l.72 2.16-1.02 1a.4.4 0 0 0 0 .56c.55.54 1.27.86 2.03.9l-.4.8H2a.4.4 0 0 0-.4.4v1.2H.4a.4.4 0 0 0-.4.4v11.18a.4.4 0 0 0 .4.4h0zM14.77.8a.4.4 0 1 1 0 .8.4.4 0 1 1 0-.8zm-6.8 22.36v-3.2h4v3.2h-4zm4.8 0v-3.6a.4.4 0 0 0-.4-.4h-4.8a.4.4 0 0 0-.4.4v3.6h-.8v-6.4h7.18v6.4h-.8zM16.9 7.78l.36 1.6-1.66-.9 1.3-.7zm-2.14.25l-1.7-.92 1.7-1.54 1.7 1.54-1.7.92zm.6-3l.76-.7.4 1.72L15.37 5zm-.6-.54L14.2 4h1.1l-.56.5zm-.6.54L13 6.07l.4-1.72.76.7zm-1.54 2.75l1.3.7-1.66.9.36-1.6zm2.14 1.15l1.2.65h-2.42l1.2-.65zm-2.73 1.45h5.46l.36 1.6h-6.18l.36-1.6zm-9.8-4.96l1.02.34-.68.68-.34-1.03zm.95 3.36a2.5 2.5 0 0 1-1.4-.42L5.16 5c.28.4.43.9.42 1.4 0 .57-.2 1.12-.58 1.56l-.26-.53a.4.4 0 0 0-.36-.2c-.16 0-.28.08-.36.2L3.34 8.8h-.18zm1.2-.3l.95 1.9h-1.9l.95-1.9zm-2 2.7h4v.8h-4v-.8zm-1.6 1.6h18.35v10.38h-4.8v-6.8a.4.4 0 0 0-.4-.4H6a.4.4 0 0 0-.4.4v6.8H.8V12.78z"/><path d="M1.6 13.58v7.98h3.2v-7.98H1.6zm2.4 7.2H2.4v-1.6H4v1.6zm0-2.4H2.4v-1.6H4v1.6zm-1.6-2.4v-1.6H4v1.6H2.4zm15.96-2.4h-3.2v7.98h3.2v-7.98zm-2.4.8h1.6v1.6h-1.6v-1.6zm0 2.4h1.6v1.6h-1.6v-1.6zm1.6 4h-1.6v-1.6h1.6v1.6zm-9.18-6.4a1.6 1.6 0 0 0 3.2 0 1.6 1.6 0 0 0-3.2 0zm1.6-.8a.8.8 0 0 1 0 1.6.8.8 0 0 1 0-1.6z"/></svg>