<svg xmlns="http://www.w3.org/2000/svg" xmlns:xlink="http://www.w3.org/1999/xlink" width="20" height="16"><g fill-rule="evenodd"><g fill="#a46fe2" fill-rule="nonzero"><path d="M15.937 13H2.063C.925 13 0 12.1 0 11.014V1.986C0 .9.925 0 2.063 0h13.875C17.075 0 18 .9 18 1.986v9.028C18 12.1 17.075 13 15.937 13zM2.063 1.083c-.517 0-.938.405-.938.903v9.028c0 .498.42.903.938.903h13.875c.517 0 .938-.405.938-.903V1.986c0-.498-.42-.903-.938-.903H2.063zM5.625 6.5C4.6 6.5 3.75 5.7 3.75 4.694S4.6 2.9 5.625 2.9 7.5 3.7 7.5 4.694 6.66 6.5 5.625 6.5zm0-2.528c-.413 0-.75.324-.75.722s.337.722.75.722.75-.324.75-.722-.337-.722-.75-.722zM8.438 10.1c-.3 0-.562-.243-.562-.542v-.36c0-.498-.42-.903-.938-.903H4.313c-.517 0-.938.405-.938.903v.36c0 .3-.252.542-.562.542s-.562-.243-.562-.542v-.36c0-1.096.925-1.986 2.063-1.986H6.94c1.136 0 2.06.89 2.06 1.986v.36c0 .3-.252.542-.562.542h0z"/><use xlink:href="#B"/><use xlink:href="#B" y="2.889"/><use xlink:href="#B" y="5.777"/></g><circle fill="#f6efff" cx="16" cy="12" r="4"/><path d="M16 8a4 4 0 1 1 0 8 4 4 0 1 1 0-8zm0 1a3 3 0 1 0 0 6 3 3 0 1 0 0-6zm-.468 3.287l-.757-.74a.45.45 0 0 0-.634 0c-.188.184-.188.492 0 .676l1.245 1.218c.082.08.2.08.292 0l2.18-2.134c.188-.184.188-.492 0-.676a.45.45 0 0 0-.634 0l-1.694 1.657z" fill="#a46fe2" fill-rule="nonzero"/></g><defs ><path id="B" d="M15.188 4.333h-4.125c-.31 0-.562-.243-.562-.542s.252-.542.563-.542h4.125c.31 0 .563.243.563.542s-.252.542-.562.542z"/></defs></svg>