<svg xmlns="http://www.w3.org/2000/svg" width="100%" height="100%" viewBox="0 0 87 105" fill="#f2f7fa" fill-rule="nonzero"><path d="M66.364 68.515l-37.76 10.112c-1.04.28-1.657 1.37-1.37 2.435s1.36 1.703 2.405 1.423L67.4 72.373c1.04-.28 1.657-1.37 1.37-2.435s-1.36-1.703-2.405-1.423zm-5.79 10.947L37.4 85.674a2 2 0 1 0 1.035 3.864l23.182-6.212a2 2 0 1 0-1.035-3.864zm-25.138-50.23c-11.45 3.068-18.27 14.88-15.203 26.332s14.88 18.27 26.332 15.203 18.27-14.88 15.203-26.332-14.88-18.27-26.332-15.203zM24.705 56.4l7.4-1.983c1.587 5.087 4.02 9.917 6.83 13.032-6.305-.755-11.83-4.927-14.23-11.05zm6.388-5.76l-7.4 1.983c-.98-6.502 1.716-12.878 6.8-16.684-.877 4.103-.568 9.502.6 14.7zM45.553 67c-2.163.58-6.773-4.454-9.635-13.606L47.095 50.4c2.097 9.357.622 16.02-1.54 16.6zM34.906 49.6c-2.097-9.357-.622-16.02 1.54-16.6s6.773 4.454 9.635 13.606L34.906 49.6zm16.602 14.46c.877-4.103.568-9.502-.6-14.7l7.4-1.983c.98 6.502-1.716 12.878-6.8 16.684zm-1.612-18.477c-1.587-5.087-4.02-9.917-6.83-13.032 6.305.755 11.83 4.927 14.23 11.05l-7.4 1.983zm9.554-36.14l-3.8 1.02-1.06-3.95c-1.12-4.177-5.548-6.618-9.635-5.478-.584.163-1.074.382-1.638.697L5.713 23.887C1.76 25.18-.554 29.348.538 33.425l17.416 64.998c1.13 4.217 5.466 6.73 9.67 5.605l53.34-14.293c4.203-1.126 6.7-5.47 5.57-9.7L69.12 15.048c-1.13-4.217-5.467-6.73-9.67-5.605zM45.277 5.165c2.07-1.165 4.865.023 5.494 2.37l1.06 3.95-31.684 8.5 25.132-14.8zm37.448 75.902c.565 2.108-.685 4.28-2.786 4.844L26.6 100.204c-2.1.563-4.27-.695-4.834-2.802L4.35 32.404c-.565-2.108.685-4.28 2.786-4.844l53.34-14.293c2.1-.563 4.27.695 4.834 2.802l17.416 64.998z"/></svg>