<?xml version="1.0" encoding="UTF-8"?>
<svg width="88" height="88" viewBox="0 0 88 88" fill="none" xmlns="http://www.w3.org/2000/svg">
  <rect width="88" height="88" rx="4" fill="#F6EFFF"/>
  <g clip-path="url(#clip0)">
  <path d="M62.8281 38.8444C63.4753 38.8444 64 38.3197 64 37.6725V32.985C64 32.5114 63.7148 32.0842 63.2773 31.9027L44.4491 24.0902C44.1616 23.9709 43.8384 23.9709 43.5509 24.0902L24.7227 31.9027C24.2852 32.0842 24 32.5114 24 32.985V37.6725C24 38.3197 24.5247 38.8444 25.1719 38.8444H27.2031V52.1257H26.8125C26.1653 52.1257 25.6406 52.6504 25.6406 53.2975V56.8132H25.1719C24.5247 56.8132 24 57.3379 24 57.985V62.8288C24 63.476 24.5247 64.0007 25.1719 64.0007H62.8281C63.4753 64.0007 64 63.476 64 62.8288V57.985C64 57.3379 63.4753 56.8132 62.8281 56.8132H62.3594V53.2975C62.3594 52.6504 61.8347 52.1257 61.1875 52.1257H60.7969V38.8444H62.8281ZM61.6562 59.1569V61.6569H26.3438V59.1569H61.6562ZM33.4531 54.4694V56.8132H27.9844V54.4694H33.4531ZM29.5469 52.1257V38.8444H31.8906V52.1257H29.5469ZM34.625 52.1257H34.2344V38.8444H53.7656V52.1257H53.375C52.7278 52.1257 52.2031 52.6504 52.2031 53.2975V56.8132H35.7969V53.2975C35.7969 52.6504 35.2722 52.1257 34.625 52.1257ZM60.0156 54.4694V56.8132H54.5469V54.4694H60.0156ZM56.1094 52.1257V38.8444H58.4531V52.1257H56.1094ZM26.3438 36.5007V33.7675L44 26.4413L61.6562 33.7675V36.5007H26.3438Z" fill="#A46FE2"/>
  <path d="M51.0312 31.8125H36.9688C36.3216 31.8125 35.7969 32.3372 35.7969 32.9844C35.7969 33.6316 36.3216 34.1562 36.9688 34.1562H51.0312C51.6784 34.1562 52.2031 33.6316 52.2031 32.9844C52.2031 32.3372 51.6784 31.8125 51.0312 31.8125Z" fill="#A46FE2"/>
  <path d="M44 51.3438C43.3538 51.3438 42.8281 50.818 42.8281 50.1719C42.8281 49.5247 42.3034 49 41.6562 49C41.0091 49 40.4844 49.5247 40.4844 50.1719C40.4844 51.6996 41.4641 53.0022 42.8281 53.4859V54.0781C42.8281 54.7253 43.3528 55.25 44 55.25C44.6472 55.25 45.1719 54.7253 45.1719 54.0781V53.4859C46.5359 53.0022 47.5156 51.6996 47.5156 50.1719C47.5156 48.2334 45.9385 46.6562 44 46.6562C43.3538 46.6562 42.8281 46.1305 42.8281 45.4844C42.8281 44.8382 43.3538 44.3125 44 44.3125C44.6462 44.3125 45.1719 44.8382 45.1719 45.4844C45.1719 46.1316 45.6966 46.6562 46.3438 46.6562C46.9909 46.6562 47.5156 46.1316 47.5156 45.4844C47.5156 43.9566 46.5359 42.6541 45.1719 42.1703V41.5781C45.1719 40.9309 44.6472 40.4062 44 40.4062C43.3528 40.4062 42.8281 40.9309 42.8281 41.5781V42.1703C41.4641 42.6541 40.4844 43.9566 40.4844 45.4844C40.4844 47.4229 42.0615 49 44 49C44.6462 49 45.1719 49.5257 45.1719 50.1719C45.1719 50.818 44.6462 51.3438 44 51.3438Z" fill="#A46FE2"/>
  </g>
  <defs>
  <clipPath id="clip0">
  <rect x="24" y="24" width="40" height="40" fill="white"/>
  </clipPath>
  </defs>
</svg>