<svg xmlns="http://www.w3.org/2000/svg" width="24" height="24" fill="#abc1cf" fill-rule="nonzero"><path d="M23.966 13.37l-.43-6.23c-.028-.403-.212-.772-.52-1.037a1.51 1.51 0 0 0-1.104-.365c-.796.058-1.414.726-1.406 1.52l.05 5.078-2.2 2.817c-.353.45-.938.63-1.47.495L19.3 12.54c.422-.545.352-1.336-.16-1.8a1.33 1.33 0 0 0-.995-.344 1.33 1.33 0 0 0-.937.478L13.56 15.23a3.94 3.94 0 0 0-.915 2.561l.056 5.782a.42.42 0 0 0 .422.416l6.048.008c.12 0 .232-.05.312-.136a.42.42 0 0 0 .11-.321l-.247-2.83 4.015-5.3a3.02 3.02 0 0 0 .605-2.03zm-1.28 1.524l-4.112 5.44a.42.42 0 0 0-.083.289l.22 2.533-5.17-.007-.052-5.366a3.1 3.1 0 0 1 .72-2.015l3.632-4.354a.49.49 0 0 1 .346-.176.49.49 0 0 1 .367.127c.2.17.215.463.06.664l-2.73 3.527a.42.42 0 0 0 .101.607c.976.645 2.306.43 3.027-.5l2.3-2.933a.42.42 0 0 0 .09-.263l-.052-5.225a.67.67 0 0 1 1.111-.511c.136.117.217.28.23.46l.43 6.23c.036.525-.12 1.046-.437 1.466zm-15.88-4.017a1.33 1.33 0 0 0-.937-.478 1.33 1.33 0 0 0-.995.344c-.512.463-.582 1.254-.16 1.8L7.12 15.65c-.53.135-1.116-.045-1.47-.495l-2.2-2.817.05-5.078c.008-.795-.6-1.463-1.406-1.52a1.51 1.51 0 0 0-1.104.365C.674 6.37.5 6.74.46 7.142l-.43 6.23a3.02 3.02 0 0 0 .605 2.03l4.015 5.3-.247 2.83a.42.42 0 0 0 .42.457l6.05-.008a.42.42 0 0 0 .422-.416l.056-5.782a3.94 3.94 0 0 0-.915-2.561l-3.632-4.354zm3.65 12.273l-5.17.007.22-2.533a.42.42 0 0 0-.083-.289l-4.112-5.44a2.18 2.18 0 0 1-.437-1.466l.43-6.23a.66.66 0 0 1 .23-.46.67.67 0 0 1 .439-.164l.05.002a.67.67 0 0 1 .623.673l-.052 5.225a.42.42 0 0 0 .09.263l2.3 2.933a2.29 2.29 0 0 0 3.027.5.42.42 0 0 0 .101-.607l-2.73-3.527a.49.49 0 0 1 .427-.791.49.49 0 0 1 .346.176l3.632 4.354a3.1 3.1 0 0 1 .72 2.015l-.052 5.366zm9.82-18.418a4.69 4.69 0 0 0-1.393-3.346C17.986.492 16.792 0 15.522 0s-2.464.492-3.362 1.386l-.16.16-.16-.16A4.74 4.74 0 0 0 8.477 0c-1.27 0-2.464.492-3.363 1.386C3.26 3.23 3.26 6.233 5.115 8.08l6.586 6.555c.083.082.2.123.3.123a.42.42 0 0 0 .3-.123l6.586-6.555a4.69 4.69 0 0 0 1.393-3.346zm-8.277 9L5.712 7.484c-1.524-1.517-1.524-3.986 0-5.503C6.45 1.246 7.432.84 8.477.84a3.89 3.89 0 0 1 2.764 1.14l.46.457a.42.42 0 0 0 .3.123c.113 0 .22-.044.3-.123l.46-.457A3.89 3.89 0 0 1 15.525.84a3.89 3.89 0 0 1 2.764 1.14 3.86 3.86 0 0 1 1.145 2.752 3.86 3.86 0 0 1-1.145 2.752L12 13.742z"/></svg>