<svg xmlns="http://www.w3.org/2000/svg" width="100%" height="100%" viewBox="0 0 91 70" fill="#f2f7fa" fill-rule="nonzero"><path d="M82.213 10.92H56.8V5.447C56.8 2.444 54.376 0 51.385 0h-11.77c-3 0-5.424 2.444-5.424 5.447v5.472H8.787C3.942 10.92 0 14.876 0 19.74v41.44C0 66.043 3.942 70 8.787 70h73.426C87.058 70 91 66.043 91 61.18V19.74c0-4.864-3.942-8.82-8.787-8.82zM37.83 5.447a1.79 1.79 0 0 1 1.784-1.793h11.77a1.79 1.79 0 0 1 1.784 1.793v10.826a3.22 3.22 0 0 1-1.125 2.45l-6.35 5.443a.3.3 0 0 1-.39 0l-6.35-5.443c-.714-.612-1.125-1.506-1.125-2.45V5.447zM87.36 61.18c0 2.85-2.3 5.167-5.147 5.167H8.787c-2.838 0-5.147-2.318-5.147-5.167V19.74c0-2.85 2.3-5.167 5.147-5.167H34.2v1.7a6.88 6.88 0 0 0 2.4 5.23l6.352 5.443a3.92 3.92 0 0 0 2.556.951 3.93 3.93 0 0 0 2.558-.951l6.35-5.443c1.527-1.308 2.4-3.215 2.4-5.23v-1.7H82.2c2.838 0 5.147 2.318 5.147 5.167v41.44zM43.838 11h3.324C48.178 11 49 10.33 49 9.5S48.178 8 47.162 8h-3.324C42.822 8 42 8.67 42 9.5s.822 1.5 1.838 1.5zM22.5 41a8.51 8.51 0 0 0 8.5-8.5 8.51 8.51 0 0 0-8.5-8.5 8.51 8.51 0 0 0-8.5 8.5 8.51 8.51 0 0 0 8.5 8.5zm0-13.373a4.88 4.88 0 0 1 4.873 4.873 4.88 4.88 0 0 1-4.873 4.873 4.88 4.88 0 0 1-4.873-4.873 4.88 4.88 0 0 1 4.873-4.873zM29.097 45H16.903C12.546 45 9 48.73 9 53.314V59.1c0 1.05.808 1.9 1.806 1.9h24.387C36.19 61 37 60.15 37 59.1v-5.786C37 48.73 33.454 45 29.097 45zm4.3 12.2H12.613v-3.886c0-2.5 1.925-4.513 4.3-4.513h12.194c2.366 0 4.3 2.025 4.3 4.513V57.2zM46.764 35h20.473C68.2 35 69 34.33 69 33.5s-.8-1.5-1.764-1.5H46.764C45.8 32 45 32.67 45 33.5s.8 1.5 1.764 1.5zM74.2 45H44.8c-1 0-1.8.67-1.8 1.5s.8 1.5 1.8 1.5h29.4c1 0 1.8-.67 1.8-1.5s-.8-1.5-1.8-1.5zm0 13H44.8c-1 0-1.8.67-1.8 1.5s.8 1.5 1.8 1.5h29.4c1 0 1.8-.67 1.8-1.5s-.8-1.5-1.8-1.5z"/></svg>