<svg xmlns="http://www.w3.org/2000/svg" xmlns:xlink="http://www.w3.org/1999/xlink" width="19" height="14"><g fill="#fd8f82" fill-rule="nonzero"><path d="M16.823 14H2.177C.976 14 0 13.04 0 11.86V2.14C0 .96.976 0 2.177 0h14.646C18.024 0 19 .96 19 2.14v9.722c0 1.18-.976 2.14-2.177 2.14zM2.177 1.167c-.545 0-1 .436-1 .972v9.722c0 .536.444.972 1 .972h14.646c.545 0 1-.436 1-.972V2.14c0-.536-.444-.972-1-.972H2.177zM5.938 7c-1.1 0-1.98-.873-1.98-1.944s.888-1.945 1.98-1.945 1.98.873 1.98 1.945S7.028 7 5.938 7zm0-2.722c-.436 0-.792.35-.792.778s.355.778.792.778.792-.35.792-.778-.355-.778-.792-.778zM8.906 10.9a.59.59 0 0 1-.594-.583v-.4c0-.536-.444-.972-1-.972h-2.77c-.545 0-1 .436-1 .972v.4a.59.59 0 0 1-.594.583.59.59 0 0 1-.594-.583v-.4c0-1.18.976-2.14 2.177-2.14H7.3c1.2 0 2.177.96 2.177 2.14v.4a.59.59 0 0 1-.594.583h0z"/><use xlink:href="#B"/><use xlink:href="#B" y="3.111"/><use xlink:href="#B" y="6.223"/></g><defs ><path id="B" d="M16.03 4.667h-4.354a.59.59 0 0 1-.594-.583.59.59 0 0 1 .594-.583h4.354a.59.59 0 0 1 .594.583.59.59 0 0 1-.594.583z"/></defs></svg>