<svg xmlns="http://www.w3.org/2000/svg" width="100%" height="100%" viewBox="0 0 88 75" fill="#f2f7fa" fill-rule="nonzero"><path d="M81.272 22.974l-18.13-6.598 2.703-7.428c.345-.95-.148-2-1.1-2.347L48.426.66a1.83 1.83 0 0 0-2.352 1.1L43.37 9.18l-18.128-6.6c-4.768-1.73-10.028.7-11.76 5.45L1.175 41.84c-1.72 4.745.742 9.994 5.506 11.734l56.03 20.393c4.768 1.73 10.028-.7 11.76-5.45l12.306-33.8c1.72-4.745-.742-9.994-5.506-11.734zM48.902 4.726L61.768 9.4l-2.703 7.428c-1.287 3.536-5.2 5.354-8.763 4.06s-5.4-5.207-4.103-8.743l2.703-7.428zm22.116 62.536c-1.04 2.845-4.195 4.307-7.056 3.27L7.932 50.138c-2.858-1.044-4.336-4.193-3.304-7.04l12.306-33.8C17.974 6.443 21.13 4.98 24 6.018l18.284 6.655c-.874 5 1.983 9.918 6.776 11.663s10.142-.186 12.687-4.58L80.02 26.4c2.858 1.044 4.336 4.193 3.304 7.04l-12.306 33.8zm-28.033-42.24l-19.112-6.956c-.95-.346-2.002.15-2.35 1.104l-8.318 22.852c-.348.955.14 2 1.1 2.356l19.113 6.957c.95.346 2.002-.148 2.35-1.104l8.318-22.852a1.84 1.84 0 0 0-1.09-2.356zM32.947 47.25l-15.673-5.705 7.06-19.394 15.673 5.705-7.06 19.394zm32.966 5.88l-18.177-6.616c-.95-.345-2.024.216-2.402 1.254s.085 2.16 1.034 2.505l18.177 6.616c.95.345 2.024-.216 2.402-1.254s-.085-2.16-1.034-2.505zm-15.8-14.312l9.685 3.525c.96.35 2.042-.2 2.42-1.248s-.093-2.162-1.05-2.5l-9.685-3.525c-.96-.35-2.042.2-2.42 1.248s.093 2.162 1.05 2.5z"/></svg>