<?xml version="1.0" encoding="UTF-8"?>
<svg width="42px" height="38px" viewBox="0 0 42 38" version="1.1" xmlns="http://www.w3.org/2000/svg" xmlns:xlink="http://www.w3.org/1999/xlink">
    <!-- Generator: sketchtool 62 (101010) - https://sketch.com -->
    <title>CC7871F9-311D-405C-8E9E-A8A72902EAFA</title>
    <desc>Created with sketchtool.</desc>
    <defs>
        <rect id="path-1" x="0" y="0" width="42" height="40"></rect>
    </defs>
    <g id="new-text-19.12" stroke="none" stroke-width="1" fill="none" fill-rule="evenodd">
        <g id="Industries/Fintech&amp;Banking" transform="translate(-455.000000, -5161.000000)">
            <g id="6-Advantages" transform="translate(266.000000, 4802.000000)">
                <g id="Speed-up-onboarding-and-avoid-abandonment" transform="translate(0.000000, 334.000000)">
                    <g id="speedup" transform="translate(189.000000, 24.000000)">
                        <g id="Mask" opacity="0" fill="#D8D8D8" fill-rule="nonzero">
                            <rect id="path-1" x="0" y="0" width="42" height="40"></rect>
                        </g>
                        <g id="Clipped">
                            <mask id="mask-2" fill="white">
                                <use xlink:href="#path-1"></use>
                            </mask>
                            <g id="path-1"></g>
                            <g id="Group" mask="url(#mask-2)">
                                <g transform="translate(-8.000000, -9.000000)">
                                    <g transform="translate(29.500000, 30.000000) rotate(135.000000) translate(-29.500000, -30.000000) translate(3.000000, 15.000000)">
                                        <path d="M32.6783641,10.4700691 L16.1622581,10.4700691 L19.3475115,7.28481567 C20.4092627,6.22306452 20.4092627,4.45347926 19.3475115,3.39172811 L16.8700922,0.796313364 C15.808341,-0.265437788 14.0387558,-0.265437788 12.9770046,0.796313364 L0.825829493,12.9474194 C0.353917051,13.5373272 -1.09139364e-11,14.2451613 -1.09139364e-11,14.9529954 C-1.09139364e-11,15.7788249 0.235921659,16.4865899 0.825829493,17.0764977 L12.9770046,29.1096774 C13.4489171,29.5815899 14.1567512,29.9355069 14.9825115,29.9355069 C15.6903456,29.9355069 16.3981797,29.6995853 16.8700922,29.1096774 L19.3475115,26.6322581 C20.4092627,25.5705069 20.4092627,23.8009217 19.3475115,22.7391705 L15.9262673,19.4359908 L32.6783641,19.4359908 C34.2119585,19.4359908 35.3917051,18.1382488 35.3917051,16.6046544 L35.3917051,13.1834793 C35.3917051,11.6498157 34.2119585,10.4700691 32.6783641,10.4700691 Z M33.1502765,16.6046544 L33.0322811,16.6046544 C33.0322811,16.840576 32.7963594,17.0765668 32.6783641,17.0765668 L13.0949309,17.0765668 C12.6230184,17.0765668 12.1511751,17.3124885 12.0331797,17.7844009 C11.7972581,18.2563134 11.9151843,18.7281567 12.2691014,19.0821429 L17.6958525,24.3908986 C17.8138479,24.508894 17.8138479,24.7448157 17.6958525,24.9808065 L15.2184332,27.4582258 C15.1004378,27.5762212 14.8645161,27.6941475 14.6285253,27.4582258 L2.47741935,15.3069124 C2.35949309,15.1889862 2.35949309,15.0709908 2.35949309,14.9530645 C2.35949309,14.8351382 2.35949309,14.7171429 2.47741935,14.5991475 L14.6285945,2.44797235 C14.7465899,2.33004608 14.8645161,2.33004608 14.8645161,2.33004608 C14.9825115,2.33004608 15.1004378,2.33004608 15.1004378,2.44797235 L17.6958525,4.92532258 C17.8138479,5.04324885 17.8138479,5.39723502 17.6958525,5.51516129 L12.5050922,10.8239171 C12.1511751,11.1778341 12.0331797,11.6496774 12.2691705,12.121659 C12.5050922,12.5935714 12.8590783,12.8294931 13.3309217,12.8294931 L32.7963594,12.8294931 C32.9142857,12.8294931 33.1502765,12.8294931 33.1502765,13.0654147 L33.1502765,16.6046544 L33.1502765,16.6046544 Z" id="Shape" fill="#A46FE2" fill-rule="nonzero"></path>
                                        <rect id="Rectangle" fill="#A46FE2" fill-rule="nonzero" transform="translate(45.223611, 17.442662) rotate(-90.000000) translate(-45.223611, -17.442662) " x="44.2236113" y="9.9426621" width="2" height="15" rx="1"></rect>
                                        <rect id="Rectangle-Copy-13" fill="#A46FE2" fill-rule="nonzero" transform="translate(42.395184, 13.200021) rotate(-90.000000) translate(-42.395184, -13.200021) " x="41.3951839" y="8.700021" width="2" height="9" rx="1"></rect>
                                    </g>
                                </g>
                            </g>
                        </g>
                    </g>
                </g>
            </g>
        </g>
    </g>
</svg>