<svg xmlns="http://www.w3.org/2000/svg" width="104" height="127" fill="#a46fe2" fill-rule="nonzero"><path d="M77.254 106.823l-27.17 15.365h2.624l-26.25-15.223-2.533-1.565a52.61 52.61 0 0 1-2.208-1.578c-.234-.168.13.103.143.116-.104-.052-.208-.168-.3-.233l-.533-.427L20 102.41a46.18 46.18 0 0 1-3.896-3.803L14.378 96.6l-.273-.336c.22.285-.208-.285-.26-.336l-.78-1.074a44.71 44.71 0 0 1-2.844-4.592 40.21 40.21 0 0 1-1.182-2.367l-.546-1.216c-.117-.272.078.168.078.18a2.75 2.75 0 0 1-.143-.35l-.247-.62a44.26 44.26 0 0 1-1.662-5.161 44.65 44.65 0 0 1-.584-2.613 23.4 23.4 0 0 1-.234-1.319l-.1-.57c-.013-.13-.052-.26-.052-.375l.013.116c-.35-2.845-.35-5.665-.35-8.523v-45.64l-2.598 2.587c8.572 0 17.196-1.487 25.25-4.423 7.65-2.794 14.65-6.777 21.04-11.77l4.923-3.84H50.16c4.117 3.208 8.157 6.52 12.625 9.235a74.24 74.24 0 0 0 23.989 9.351c4.793.944 9.702 1.45 14.6 1.45l-2.598-2.587V70c0 1.888-.13 3.75-.35 5.626-.078.66.1-.582-.013.078-.013.13-.04.26-.052.375l-.156.944a42.84 42.84 0 0 1-.364 1.862 41.99 41.99 0 0 1-.935 3.57c-.365 1.177-.766 2.328-1.22 3.466a6.29 6.29 0 0 1-.182.44c-.1.207-.312.414.013-.013-.17.233-.26.608-.377.867a41.25 41.25 0 0 1-.818 1.694c-1.104 2.186-2.4 4.28-3.832 6.247-.182.26-.377.504-.558.75-.286.375.013-.013.065-.078-.1.13-.195.246-.3.375a49.02 49.02 0 0 1-1.273 1.513 47.24 47.24 0 0 1-2.481 2.613 44.1 44.1 0 0 1-2.844 2.535 16.88 16.88 0 0 1-.753.595c-.104.078-.377.3.065-.052-.13.103-.26.194-.377.285l-1.65 1.177c-1.013.7-2.052 1.358-3.13 1.966-1.182.673-1.688 2.367-.935 3.544.766 1.2 2.286 1.643 3.56.93 9.26-5.264 16.443-13.503 20.534-23.294 2-4.786 3.13-9.894 3.468-15.055.104-1.552.1-3.117.1-4.682v-46.46c0-1.397-1.195-2.587-2.598-2.587a73.69 73.69 0 0 1-6.13-.26 80.71 80.71 0 0 1-3.039-.323c-.117-.013-.507-.04.04 0-.104-.013-.22-.026-.325-.052l-.753-.116c-.533-.078-1.078-.168-1.6-.272a72.04 72.04 0 0 1-11.949-3.195 80.84 80.84 0 0 1-2.935-1.138c-.104-.04-.455-.194.026.013-.104-.04-.195-.1-.3-.13-.234-.103-.468-.207-.7-.297l-1.48-.673a73.8 73.8 0 0 1-5.494-2.871c-1.792-1.035-3.546-2.16-5.247-3.35l-1.247-.892-.6-.453c-.13-.1-.753-.582-.35-.26l-.597-.466-4.86-3.773c-1.208-.944-2.455-.957-3.676 0l-5.156 4.022c-.065.052-.13.103-.195.142-.312.246.312-.233 0 0-.1.065-.17.13-.26.194l-.7.53c-1.675 1.23-3.403 2.393-5.17 3.48-1.792 1.1-3.637 2.108-5.52 3.052a75.91 75.91 0 0 1-2.753 1.293l-.7.3c-.13.052-.26.116-.403.168.026-.013.403-.168.117-.052l-1.507.608a71.35 71.35 0 0 1-11.975 3.492 63.37 63.37 0 0 1-3.429.595c-.104.013-.22.026-.325.052-.078.013-.675.1-.3.04.325-.052-.04 0-.1.013a7.81 7.81 0 0 1-.546.065l-1.74.194a72.2 72.2 0 0 1-6.897.336c-1.403 0-2.598 1.2-2.598 2.587V65.1c0 4.14-.038 8.226.546 12.34 1.4 9.687 6.014 18.87 12.82 25.907 3.052 3.156 6.572 5.872 10.365 8.084l3.715 2.16 21.43 12.417c.377.22.753.466 1.143.66 1.078.556 2.1.336 3.065-.207l26.756-15.133c1.182-.673 1.688-2.38.935-3.544-.727-1.23-2.247-1.694-3.52-.97zm-11.9-53.2c.866.827.846 2.287.032 3.14l-.264.287-.4.434-.948.978-12.74 13.326.132.138h-.263L49.54 73.34c-.84.88-2.256.876-3.094 0l-1.352-1.415h-.264l.132-.138-6.354-6.648c-.817-.855-.798-2.193-.03-3.072.813-.932 2.287-.9 3.125-.034l6.288 6.58.226-.232 14.076-14.726c.842-.88 2.195-.86 3.06-.032zM52.5 97C71.002 97 86 82.002 86 63.5S71.002 30 52.5 30 19 44.998 19 63.5 33.998 97 52.5 97zm0-5C36.76 92 24 79.24 24 63.5S36.76 35 52.5 35 81 47.76 81 63.5 68.24 92 52.5 92z"/></svg>