<svg xmlns="http://www.w3.org/2000/svg" width="20" height="20" fill="#fd8f82" fill-rule="nonzero"><path d="M18.976 12.1l-1.404.238a7.88 7.88 0 0 1-.564 1.362l.827 1.157a1.23 1.23 0 0 1-.134 1.592l-1.245 1.245c-.234.234-.543.363-.873.363a1.21 1.21 0 0 1-.714-.23L13.708 17a7.72 7.72 0 0 1-1.412.58l-.234 1.387c-.1.597-.614 1.032-1.22 1.032h-1.76c-.606 0-1.12-.435-1.22-1.032l-.242-1.42a7.73 7.73 0 0 1-1.358-.572l-1.15.827c-.2.15-.46.23-.72.23a1.22 1.22 0 0 1-.873-.363l-1.25-1.245c-.426-.426-.485-1.1-.134-1.592l.836-1.174c-.23-.44-.414-.894-.556-1.366l-1.387-.234C.435 11.957 0 11.443 0 10.838V9.08c0-.606.435-1.12 1.032-1.22l1.42-.242a7.73 7.73 0 0 1 .572-1.358L2.2 5.115a1.23 1.23 0 0 1 .134-1.592L3.58 2.277c.234-.234.543-.363.873-.363a1.21 1.21 0 0 1 .714.23l1.174.836c.422-.22.865-.4 1.32-.543l.234-1.404A1.23 1.23 0 0 1 9.116 0h1.763c.606 0 1.12.435 1.22 1.032l.238 1.404A7.88 7.88 0 0 1 13.699 3l1.157-.827c.2-.15.46-.23.72-.23h0a1.23 1.23 0 0 1 .873.363l1.245 1.245c.426.426.485 1.1.134 1.592L17 6.305a7.87 7.87 0 0 1 .564 1.362l1.404.234C19.565 8 20 8.515 20 9.12v1.76a1.22 1.22 0 0 1-1.024 1.22zm-.096-2.98c0-.054-.038-.1-.092-.1l-1.755-.292a.56.56 0 0 1-.451-.414 6.69 6.69 0 0 0-.727-1.751c-.113-.192-.104-.43.025-.614l1.032-1.454c.03-.042.025-.104-.013-.142L15.655 3.1c-.03-.03-.058-.033-.08-.033s-.046.008-.063.02l-1.45 1.032c-.18.13-.422.138-.614.025a6.69 6.69 0 0 0-1.751-.727c-.217-.054-.38-.234-.414-.45l-.297-1.755c-.008-.054-.054-.092-.1-.092H9.12c-.054 0-.1.038-.1.092l-.3 1.754a.56.56 0 0 1-.414.451c-.597.155-1.174.393-1.713.702a.58.58 0 0 1-.284.075.55.55 0 0 1-.326-.104L4.52 3.05c-.02-.013-.042-.02-.063-.02s-.05.004-.08.033L3.133 4.307c-.038.038-.042.096-.013.142L4.15 5.9a.57.57 0 0 1 .025.618c-.326.543-.577 1.132-.735 1.746-.058.213-.234.376-.45.414l-1.767.3c-.054.008-.092.054-.092.1v1.76c0 .054.038.1.092.1l1.742.292c.22.038.4.2.455.418a6.68 6.68 0 0 0 .714 1.755.56.56 0 0 1-.029.61l-1.04 1.462c-.03.042-.025.104.013.142L4.32 16.87c.03.03.058.033.08.033s.046-.008.063-.02l1.44-1.028a.57.57 0 0 1 .618-.025c.543.326 1.132.577 1.746.735.213.058.376.234.414.45l.3 1.767c.008.054.054.092.1.092h1.76c.054 0 .1-.038.1-.092l.292-1.742c.038-.22.2-.4.418-.455a6.78 6.78 0 0 0 1.792-.735c.192-.113.43-.104.614.025l1.44 1.036c.02.013.042.02.063.02s.05-.004.08-.033l1.245-1.245c.038-.038.042-.096.013-.142l-1.032-1.45c-.13-.18-.138-.422-.025-.614a6.69 6.69 0 0 0 .727-1.751c.054-.217.234-.38.45-.414l1.755-.297c.054-.008.092-.054.092-.1V9.12h-.004zM10 14.286A4.29 4.29 0 0 1 5.714 10 4.29 4.29 0 0 1 10 5.714 4.29 4.29 0 0 1 14.286 10 4.29 4.29 0 0 1 10 14.286zm0-7.45A3.17 3.17 0 0 0 6.834 10 3.17 3.17 0 0 0 10 13.166 3.17 3.17 0 0 0 13.166 10 3.17 3.17 0 0 0 10 6.834z"/></svg>