<svg xmlns="http://www.w3.org/2000/svg" width="59" height="56"><path d="M53.636 56h-9.554l.67-8H40.06l-.67 8H19.61l-.67-8h-4.693l.67 8H5.363L0 21.333 13.41 0H45.59L59 21.333 53.636 56zM42.91 10.667h-8.62l.575 4H24.136l.575-4h-8.62l-5.364 10.667 2.682 21.333H45.59l2.682-21.333-5.364-10.667zm-4.693 24.92c-.74 0-1.34-2.22-1.34-4.96s.6-4.96 1.34-4.96 1.34 2.22 1.34 4.96-.6 4.96-1.34 4.96zM21.287 36c-.74 0-1.34-2.22-1.34-4.96s.6-4.96 1.34-4.96 1.34 2.22 1.34 4.96-.6 4.96-1.34 4.96z" fill="#222" fill-rule="nonzero"/></svg>