<svg xmlns="http://www.w3.org/2000/svg" width="24" height="20" fill="#abc1cf" fill-rule="nonzero"><path d="M23.6 2.3a14.21 14.21 0 0 0-1.78-1.01l-.042-.023A11.16 11.16 0 0 0 12 1.306C8.914-.207 5.327-.218 2.233 1.277l-.056.026A13.64 13.64 0 0 0 .4 2.31a.43.43 0 0 0-.19.36v15.563c0 .237.187.43.42.43h.047l4.5-.53c.16 1.023 1.06 1.75 2.07 1.677s1.797-.926 1.813-1.963v-.16l.815-.097a1.55 1.55 0 0 0 1.331.766h1.568a1.57 1.57 0 0 0 1.33-.766l9.2 1.083h.047c.23 0 .42-.192.42-.43V2.67a.43.43 0 0 0-.19-.36zM13 17.45a.7.7 0 0 1-.223.04h-1.57c-.076-.001-.15-.015-.223-.04a.73.73 0 0 1-.424-.38.76.76 0 0 1-.073-.317v-.68c.37.123.733.268 1.088.43l.24.1.045.014h.03a.41.41 0 0 0 .103.014h0a.41.41 0 0 0 .103-.014h.03l.045-.014.24-.1c.355-.164.718-.308 1.088-.43v.674c-.001.1-.025.218-.073.317a.73.73 0 0 1-.43.38l.003.006zm-3.94-.64v-1.097l.586.12v.903l-.586.074zm-.837.96v.06a1.13 1.13 0 0 1-1.116 1.143A1.13 1.13 0 0 1 6 17.831V6.117h.767V17.82a.35.35 0 0 0 .325.352.35.35 0 0 0 .364-.31c.001-.014.001-.03 0-.043V6.13h.776v11.64zM1.058 2.914l.904-.534v13.857a.43.43 0 0 0 .204.368.41.41 0 0 0 .413.01 9.85 9.85 0 0 1 2.584-.857v1.514l-4.105.483V2.914zm10.524-.857v13.5h-.022l-1.066-.386-.42-.12-.42-.103-.586-.114v-9.16a.44.44 0 0 0 0-.049v-.08l-.017-.04v-.02L7.814 3.23a.79.79 0 0 0-.698-.43c-.293 0-.56.165-.698.43L5.2 5.494v.02l-.017.04v.077a.44.44 0 0 0 0 .049v9.177a11.45 11.45 0 0 0-2.403.703V1.957c4.4-1.957 7.92-.377 8.8.086v.014zm.837 0c2.775-1.35 6-1.385 8.8-.094V15.56a11.52 11.52 0 0 0-6.865-.609l-.42.103-.42.12c-.352.107-.707.235-1.066.386h-.022V2.057zM6.28 5.283l.837-1.55.837 1.55H6.28zm16.663 12.47l-8.598-1.014v-.903a10.8 10.8 0 0 1 7.074.766.41.41 0 0 0 .421-.001.43.43 0 0 0 .207-.376V2.37l.904.53-.008 14.85zm-9.02-13.656c.107.118.272.16.42.1h.042a5.24 5.24 0 0 1 1.52-.42c.488-.052.98-.052 1.468 0a7.64 7.64 0 0 1 1.794.386c.213.073.444-.04.524-.253s-.02-.456-.226-.547c-.114-.046-2.8-1.06-5.302 0l-.103.04a.43.43 0 0 0-.225.24.44.44 0 0 0 .008.332c.02.042.046.08.078.114h0zm5.545 2.253a6.68 6.68 0 0 0-.781-.234c-.96-.234-2.668-.47-4.342.166l-.28.114a.43.43 0 0 0-.225.24.44.44 0 0 0 .008.332.42.42 0 0 0 .092.131c.107.116.27.157.42.106h.042c.48-.218.987-.362 1.507-.43.488-.052.98-.052 1.468 0l.804.117a6.87 6.87 0 0 1 .991.269c.213.073.444-.04.524-.253s-.02-.456-.226-.547v-.01zm0 2.987a8.34 8.34 0 0 0-2.595-.48c-.86-.03-1.718.1-2.528.4l-.28.114a.43.43 0 0 0-.225.24.44.44 0 0 0 .008.332.42.42 0 0 0 .092.131c.107.116.27.157.42.106h.042c.48-.218.987-.362 1.507-.43l.4-.034a7.12 7.12 0 0 1 1.08.023 7.62 7.62 0 0 1 1.792.386c.213.073.444-.04.524-.253s-.02-.456-.226-.547v.003zm0 2.986c-.106-.04-2.408-.917-4.744-.197l-.366.126-.28.114a.43.43 0 0 0-.225.24.44.44 0 0 0 .211.544.37.37 0 0 0 .307.023h.042a5.24 5.24 0 0 1 1.493-.423c.5-.053.982-.053 1.47 0a7.62 7.62 0 0 1 1.794.386c.213.073.444-.04.524-.253s-.02-.456-.226-.547l-.003-.01z"/></svg>