<?xml version="1.0" encoding="UTF-8"?>
<svg width="33px" height="40px" viewBox="0 0 33 40" version="1.1" xmlns="http://www.w3.org/2000/svg" xmlns:xlink="http://www.w3.org/1999/xlink">
    <!-- Generator: sketchtool 60 (101010) - https://sketch.com -->
    <title>F0DCBE6F-B391-48A4-8FB6-AA65AEEFB2B5</title>
    <desc>Created with sketchtool.</desc>
    <g id="Asset-Artboard-Page" stroke="none" stroke-width="1" fill="none" fill-rule="evenodd">
        <g id="insurance-insurance-purple" fill="#A46FE2" fill-rule="nonzero">
            <g id="insurance">
                <path d="M32.327155,6.63703682 L16.9110958,0.0838362545 C16.6489709,-0.0272599051 16.3510309,-0.0272599051 16.0889059,0.0838362545 L0.672846748,6.63703682 C0.298487894,6.79570096 0.0562043798,7.15459078 0.0562043798,7.55125121 L0.0562043798,23.2206464 C0.0617759491,26.742091 1.80429063,30.047782 4.74268638,32.1112816 L15.3972388,39.5737063 C16.0552701,40.036242 16.9447317,40.036242 17.602763,39.5737063 L28.2573153,32.1122796 C31.1957111,30.0487801 32.9382258,26.743089 32.9437973,23.2216444 L32.9437973,7.55125121 C32.9437973,7.15459078 32.7015138,6.79570096 32.327155,6.63703682 Z M30.8883214,23.2216458 C30.883614,26.1019292 29.4582793,28.8056864 27.0548615,30.4934433 L16.5000002,37.8860049 L5.94513881,30.4934433 C3.54172103,28.8056864 2.11638639,26.1019292 2.11167894,23.2216458 L2.11167894,8.2039768 L16.5000002,2.08792206 L30.8883214,8.2039768 L30.8883214,23.2216458 Z" id="Shape"></path>
                <path d="M16.0889051,4.44132552 L4.78379545,9.24793739 C4.40943661,9.40660153 4.1671531,9.76549134 4.1671531,10.1621518 L4.1671531,23.2216443 C4.1703247,25.4609238 5.27862667,27.5630261 7.1475911,28.8746031 L15.8987737,35.0046301 C16.2577691,35.2560946 16.7422309,35.2560946 17.1012263,35.0046301 L25.8524089,28.8746031 C27.7213733,27.5630261 28.8296753,25.4609238 28.8328469,23.2216443 L28.8328469,10.1621518 C28.8328469,9.76549134 28.5905634,9.40660153 28.2162046,9.24793739 L16.9110949,4.44132552 C16.64897,4.33022936 16.35103,4.33022936 16.0889051,4.44132552 Z M26.7773728,10.8138791 L26.7773728,23.221645 C26.7742261,24.8195658 25.9832879,26.3193854 24.6499567,27.2557658 L16.5000002,32.9646156 L8.35004378,27.2557658 C7.01671255,26.3193854 6.22577439,24.8195658 6.22262766,23.221645 L6.22262766,10.8138791 L16.5000002,6.44541133 L26.7773728,10.8138791 Z" id="Shape"></path>
                <path d="M10.9502193,21.1586739 C10.4961364,20.8279491 9.85194933,20.9173175 9.51138711,21.3582841 C9.170825,21.7992506 9.26285167,22.42483 9.71693456,22.755555 L13.8278835,25.749707 C14.005781,25.879276 14.2221542,25.9493171 14.4445259,25.9493171 C14.5027112,25.9491292 14.5607895,25.9444569 14.6182135,25.9353444 C14.8965558,25.8889627 15.1429798,25.7333958 15.2996033,25.5051845 L23.5215012,13.5285766 C23.7252835,13.2319111 23.7506092,12.8522046 23.5879384,12.532489 C23.4252676,12.2127734 23.099314,12.001621 22.732861,11.9785709 C22.366408,11.9555208 22.0151287,12.1240748 21.8113465,12.4207404 L14.1917025,23.5200618 L10.9502193,21.1586739 Z" id="Shape"></path>
            </g>
        </g>
    </g>
</svg>