<?xml version="1.0" encoding="UTF-8"?>
<svg width="88" height="88" viewBox="0 0 88 88" fill="none" xmlns="http://www.w3.org/2000/svg">
<rect width="88" height="88" rx="4" fill="#F6EFFF"/>
<g clip-path="url(#clip0)">
<path d="M29.8333 49.1999H39.8333C40.4038 49.1999 40.8667 48.737 40.8667 48.1666C40.8667 47.5961 40.4038 47.1333 39.8333 47.1333H29.8333C29.2629 47.1333 28.8 47.5961 28.8 48.1666C28.8 48.737 29.2629 49.1999 29.8333 49.1999Z" fill="#A46FE2" stroke="#A46FE2" stroke-width="0.4"/>
<path d="M29.8333 54.1999H38.1667C38.7371 54.1999 39.2 53.737 39.2 53.1666C39.2 52.5961 38.7371 52.1333 38.1667 52.1333H29.8333C29.2629 52.1333 28.8 52.5961 28.8 53.1666C28.8 53.737 29.2629 54.1999 29.8333 54.1999Z" fill="#A46FE2" stroke="#A46FE2" stroke-width="0.4"/>
<path d="M34.6333 32.3333C34.6333 34.2821 36.2178 35.8667 38.1666 35.8667C40.1154 35.8667 41.6999 34.2821 41.6999 32.3333C41.6999 30.3845 40.1154 28.8 38.1666 28.8C36.2178 28.8 34.6333 30.3845 34.6333 32.3333ZM36.6999 32.3333C36.6999 31.5255 37.3587 30.8667 38.1666 30.8667C38.9745 30.8667 39.6332 31.5255 39.6332 32.3333C39.6332 33.1412 38.9745 33.8 38.1666 33.8C37.3587 33.8 36.6999 33.1412 36.6999 32.3333Z" fill="#A46FE2" stroke="#A46FE2" stroke-width="0.4"/>
<path d="M42.9667 43.1666C42.9667 43.737 43.4295 44.1999 44 44.1999C44.5704 44.1999 45.0333 43.737 45.0333 43.1666V41.4999C45.0333 39.0928 43.0738 37.1333 40.6667 37.1333H35.6667C33.2595 37.1333 31.3 39.0928 31.3 41.4999V43.1666C31.3 43.737 31.7629 44.1999 32.3333 44.1999C32.9038 44.1999 33.3667 43.737 33.3667 43.1666V41.4999C33.3667 40.232 34.3988 39.1999 35.6667 39.1999H40.6667C41.9345 39.1999 42.9667 40.232 42.9667 41.4999V43.1666Z" fill="#A46FE2" stroke="#A46FE2" stroke-width="0.4"/>
<path d="M28.1667 59.2H39.8333C40.4038 59.2 40.8667 58.7371 40.8667 58.1667C40.8667 57.5962 40.4038 57.1333 39.8333 57.1333H28.1667C26.8988 57.1333 25.8667 56.1012 25.8667 54.8333V28.1667C25.8667 26.8988 26.8988 25.8667 28.1667 25.8667H48.1667C49.4345 25.8667 50.4667 26.8988 50.4667 28.1667V38.2667C50.4667 38.8371 50.9295 39.3 51.5 39.3C52.0705 39.3 52.5333 38.8371 52.5333 38.2667V28.1667C52.5333 25.7595 50.5738 23.8 48.1667 23.8H28.1667C25.7595 23.8 23.8 25.7595 23.8 28.1667V54.8333C23.8 57.2405 25.7595 59.2 28.1667 59.2Z" fill="#A46FE2" stroke="#A46FE2" stroke-width="0.4"/>
<path d="M42.1333 53.1666C42.1333 59.2504 47.0828 64.1999 53.1666 64.1999C59.2504 64.1999 64.1999 59.2504 64.1999 53.1666C64.1999 47.0828 59.2504 42.1333 53.1666 42.1333C47.0828 42.1333 42.1333 47.0828 42.1333 53.1666ZM44.1999 53.1666C44.1999 48.222 48.222 44.1999 53.1666 44.1999C58.1111 44.1999 62.1332 48.222 62.1332 53.1666C62.1332 58.1111 58.1111 62.1333 53.1666 62.1333C48.222 62.1333 44.1999 58.1111 44.1999 53.1666Z" fill="#A46FE2" stroke="#A46FE2" stroke-width="0.4"/>
<path d="M50.7687 57.2314L50.7694 57.2322C50.9632 57.4239 51.227 57.5334 51.5001 57.5334H51.5001H51.5002H51.5002H51.5003H51.5003H51.5004H51.5004H51.5005H51.5005H51.5006H51.5006H51.5007H51.5007H51.5008H51.5008H51.5009H51.5009H51.501H51.501H51.5011H51.5011H51.5012H51.5012H51.5013H51.5013H51.5014H51.5014H51.5015H51.5015H51.5016H51.5016H51.5017H51.5017H51.5018H51.5018H51.5019H51.5019H51.502H51.502H51.5021H51.5021H51.5022H51.5022H51.5023H51.5023H51.5024H51.5024H51.5025H51.5025H51.5026H51.5026H51.5027H51.5027H51.5028H51.5028H51.5029H51.5029H51.503H51.503H51.5031H51.5031H51.5032H51.5032H51.5033H51.5033H51.5034H51.5034H51.5035H51.5035H51.5036H51.5037H51.5037H51.5038H51.5038H51.5039H51.5039H51.504H51.504H51.5041H51.5041H51.5042H51.5042H51.5043H51.5043H51.5044H51.5044H51.5045H51.5045H51.5046H51.5046H51.5047H51.5047H51.5048H51.5048H51.5049H51.5049H51.505H51.505H51.5051H51.5051H51.5052H51.5052H51.5053H51.5054H51.5054H51.5055H51.5055H51.5056H51.5056H51.5057H51.5057H51.5058H51.5058H51.5059H51.5059H51.506H51.506H51.5061H51.5061H51.5062H51.5062H51.5063H51.5063H51.5064H51.5064H51.5065H51.5066H51.5066H51.5067H51.5067H51.5068H51.5068H51.5069H51.5069H51.507H51.507H51.5071H51.5071H51.5072H51.5072H51.5073H51.5073H51.5074H51.5074H51.5075H51.5076H51.5076H51.5077H51.5077H51.5078H51.5078H51.5079H51.5079H51.508H51.508H51.5081H51.5081H51.5082H51.5082H51.5083H51.5083H51.5084H51.5085H51.5085H51.5086H51.5086H51.5087H51.5087H51.5088H51.5088H51.5089H51.5089H51.509H51.509H51.5091H51.5091H51.5092H51.5093H51.5093H51.5094H51.5094H51.5095H51.5095H51.5096H51.5096H51.5097H51.5097H51.5098H51.5098H51.5099H51.5099H51.51H51.5101H51.5101H51.5102H51.5102H51.5103H51.5103H51.5104H51.5104H51.5105H51.5105H51.5106H51.5106H51.5107H51.5107H51.5108H51.5109H51.5109H51.511H51.511H51.5111H51.5111H51.5112H51.5112H51.5113H51.5113H51.5114H51.5114H51.5115H51.5116H51.5116H51.5117H51.5117H51.5118H51.5118H51.5119H51.5119H51.512H51.512H51.5121H51.5121H51.5122H51.5122H51.5123H51.5124H51.5124H51.5125H51.5125H51.5126H51.5126H51.5127H51.5127H51.5128H51.5128H51.5129H51.5129H51.513H51.5131H51.5131H51.5132H51.5132H51.5133H51.5133H51.5134H51.5134H51.5135H51.5135H51.5136H51.5136H51.5137H51.5138H51.5138H51.5139H51.5139H51.514H51.514H51.5141H51.5141H51.5142H51.5142H51.5143H51.5143H51.5144H51.5145H51.5145H51.5146H51.5146H51.5147H51.5147H51.5148H51.5148H51.5149H51.5149H51.515H51.515H51.5151H51.5151H51.5152H51.5153H51.5153H51.5154H51.5154H51.5155H51.5155H51.5156H51.5156H51.5157H51.5157H51.5158H51.5158H51.5159H51.516H51.516H51.5161H51.5161H51.5162H51.5162H51.5163H51.5163H51.5164H51.5164H51.5165H51.5165H51.5166H51.5166H51.5167H51.5168H51.5168H51.5169H51.5169H51.517H51.517H51.5171H51.5171H51.5172H51.5172H51.5173H51.5173H51.5174H51.5174H51.5175H51.5176H51.5176H51.5177H51.5177H51.5178H51.5178H51.5179H51.5179H51.518H51.518H51.5181H51.5181H51.5182H51.5182H51.5183H51.5184H51.5184H51.5185H51.5185H51.5186H51.5186H51.5187H51.5187H51.5188H51.5188H51.5189H51.5189H51.519H51.519H51.5191H51.5191H51.5192H51.5193H51.5193H51.5194H51.5194H51.5195H51.5195H51.5196H51.5196H51.5197H51.5197H51.5198H51.5198H51.5199H51.5199H51.52H51.52H51.5201H51.5201H51.5202H51.5203H51.5203H51.5204H51.5204H51.5205H51.5205H51.5206H51.5206H51.5207H51.5207H51.5208H51.5208H51.5209H51.5209H51.521H51.521H51.5211H51.5211H51.5212H51.5212H51.5213H51.5214H51.5214H51.5215H51.5215H51.5216H51.5216H51.5217H51.5217H51.5218H51.5218H51.5219H51.5219H51.522H51.522H51.5221H51.5221H51.5222H51.5222H51.5223H51.5223H51.5224H51.5224H51.5225H51.5225H51.5226H51.5226H51.5227H51.5227H51.5228H51.5229H51.5229H51.523H51.523H51.5231H51.5231H51.5232H51.5232H51.5233H51.5233H51.5234H51.5234H51.5235H51.5235H51.5236H51.5236H51.5237H51.5237H51.5238H51.5238H51.5239H51.5239H51.524H51.524H51.5241H51.5241H51.5242H51.5242H51.5243H51.5243H51.5244H51.5244H51.5245H51.5245H51.5246H51.5246H51.5247H51.5247H51.5248H51.5248H51.5249H51.5249H51.525H51.525H51.5251H51.5251H51.5252H51.5252H51.5253H51.5253H51.5254H51.5254H51.5255H51.5255H51.5256H51.5256H51.5257H51.5257H51.5258H51.5258H51.5259H51.5259H51.526H51.526H51.5261H51.5261H51.5262H51.5262H51.5263H51.5263H51.5264H51.5264H51.5265H51.5265H51.5266H51.5266H51.5267H51.5267H51.5268V57.5334L51.5326 57.5333C51.8185 57.525 52.0891 57.3967 52.2773 57.1817L58.1106 50.5151C58.4866 50.0854 58.4433 49.4325 58.0137 49.0564C57.5838 48.6784 56.9306 48.7218 56.5545 49.1535C56.5544 49.1535 56.5543 49.1536 56.5543 49.1537L51.4487 54.9891L48.8965 52.4369C48.4934 52.0338 47.8384 52.0338 47.4353 52.4369C47.0322 52.84 47.0322 53.495 47.4353 53.8981L50.7687 57.2314Z" fill="#A46FE2" stroke="#A46FE2" stroke-width="0.4"/>
</g>
<defs>
<clipPath id="clip0">
<rect x="24" y="24" width="40" height="40" fill="white"/>
</clipPath>
</defs>
</svg>