<svg xmlns="http://www.w3.org/2000/svg" width="100%" height="100%" viewBox="0 0 368 368" fill="#B73B43"><path d="M184 224c-29.824 0-58.232 12.632-77.96 34.664-2.944 3.296-2.664 8.344.624 11.296A7.95 7.95 0 0 0 112 272c2.192 0 4.384-.896 5.96-2.664C134.656 250.688 158.728 240 184 240c25.28 0 49.352 10.688 66.04 29.336a8 8 0 0 0 11.296.624c3.288-2.944 3.568-8 .624-11.296C242.24 236.64 213.832 224 184 224zm0-224C82.536 0 0 82.544 0 184s82.536 184 184 184 184-82.544 184-184S285.464 0 184 0zm0 352c-92.632 0-168-75.36-168-168S91.368 16 184 16s168 75.36 168 168-75.368 168-168 168zm96-224a8 8 0 0 0-8 8c0 13.232-10.768 24-24 24s-24-10.768-24-24a8 8 0 1 0-16 0c0 22.056 17.944 40 40 40s40-17.944 40-40a8 8 0 0 0-8-8zm-120 8a8 8 0 1 0-16 0c0 13.232-10.768 24-24 24s-24-10.768-24-24a8 8 0 1 0-16 0c0 22.056 17.944 40 40 40s40-17.944 40-40z"/></svg>