<?xml version="1.0" encoding="UTF-8"?>
<svg width="25" height="25" viewBox="0 0 25 25" fill="none" xmlns="http://www.w3.org/2000/svg">
<g clip-path="url(#clip0)">
<path d="M24.6308 1.03388C24.6495 0.481908 24.2172 0.0192869 23.6652 0.000583172L14.6704 -0.304219C14.1184 -0.322923 13.6558 0.109372 13.6371 0.66134C13.6184 1.21331 14.0507 1.67593 14.6026 1.69463L22.598 1.96557L22.3271 9.96098C22.3084 10.5129 22.7407 10.9756 23.2927 10.9943C23.8446 11.013 24.3073 10.5807 24.326 10.0287L24.6308 1.03388ZM14.6828 10.7306L24.3141 1.73066L22.9486 0.269361L13.3172 9.26935L14.6828 10.7306Z" fill="#A46FE2"/>
<path d="M0.000583172 23.6652C0.0192869 24.2172 0.481908 24.6495 1.03388 24.6308L10.0287 24.326C10.5807 24.3073 11.013 23.8446 10.9943 23.2927C10.9756 22.7407 10.5129 22.3084 9.96098 22.3271L1.96557 22.598L1.69463 14.6026C1.67593 14.0507 1.21331 13.6184 0.66134 13.6371C0.109372 13.6558 -0.322923 14.1184 -0.304219 14.6704L0.000583172 23.6652ZM9.26935 13.3172L0.269361 22.9486L1.73066 24.3141L10.7306 14.6828L9.26935 13.3172Z" fill="#A46FE2"/>
</g>
<defs>
<clipPath id="clip0">
<path d="M0 0H25V25H0V0Z" fill="white"/>
</clipPath>
</defs>
</svg>