<?xml version="1.0" encoding="UTF-8"?>
<svg width="25" height="25" viewBox="0 0 25 25" fill="none" xmlns="http://www.w3.org/2000/svg">
  <path d="M12.9999 0.65C12.5536 0.65 12.1915 1.01204 12.1915 1.45835V22.5417C12.1915 22.988 12.5536 23.35 12.9999 23.35C13.4462 23.35 13.8082 22.988 13.8082 22.5417V1.45835C13.8082 1.01204 13.4462 0.65 12.9999 0.65Z" fill="#A46FE2" stroke="#A46FE2" stroke-width="0.7"/>
  <path d="M10.1898 11.839L10.1888 11.8386C8.07544 11.0204 6.69175 9.34488 6.69175 7.4166C6.69175 6.02155 7.43027 4.78074 8.57552 3.89979C9.72052 3.01902 11.2867 2.48325 13.0001 2.48325C14.7135 2.48325 16.2797 3.01901 17.4247 3.89976C18.5699 4.7807 19.3084 6.02151 19.3084 7.41656C19.3084 7.86286 18.9464 8.2249 18.5001 8.2249C18.0538 8.2249 17.6917 7.86286 17.6917 7.41656C17.6917 6.54542 17.205 5.7244 16.3573 5.108C15.5102 4.49196 14.3236 4.0999 13.0001 4.0999C11.6766 4.0999 10.49 4.49196 9.64284 5.108C8.79515 5.7244 8.3084 6.54542 8.30836 7.41656L10.1898 11.839ZM10.1898 11.839C10.2842 11.8753 10.3817 11.8934 10.4811 11.8934C10.8026 11.8934 11.1105 11.6994 11.2346 11.3765C11.3976 10.9591 11.1886 10.4924 10.7734 10.3316L10.7734 10.3316M10.1898 11.839L10.7734 10.3316M10.7734 10.3316C9.19825 9.72115 8.30836 8.58033 8.30836 7.41657L10.7734 10.3316Z" fill="#A46FE2" stroke="#A46FE2" stroke-width="0.7"/>
  <path d="M15.8112 12.1626C15.3942 11.9993 14.9277 12.2076 14.7662 12.6219C14.602 13.0397 14.811 13.5074 15.2267 13.6685L15.3532 13.3421L15.2267 13.6685C16.8019 14.2789 17.6918 15.4197 17.6918 16.5835C17.6918 17.4546 17.205 18.2756 16.3573 18.892C15.5102 19.5081 14.3236 19.9001 13.0001 19.9001C11.6766 19.9001 10.49 19.5081 9.64285 18.892C8.79517 18.2756 8.30844 17.4546 8.30844 16.5835C8.30844 16.1372 7.9464 15.7751 7.5001 15.7751C7.0538 15.7751 6.69175 16.1372 6.69175 16.5835C6.69175 17.9785 7.43027 19.2193 8.57552 20.1003C9.72052 20.9811 11.2867 21.5168 13.0001 21.5168C14.7135 21.5168 16.2797 20.9811 17.4247 20.1003C18.5699 19.2193 19.3084 17.9785 19.3084 16.5835C19.3084 14.6554 17.9251 12.9801 15.8112 12.1626Z" fill="#A46FE2" stroke="#A46FE2" stroke-width="0.7"/>
  <path d="M15.8206 12.1669L15.8202 12.1667C14.4706 11.6225 13.8269 11.4099 13.1509 11.1867L13.1499 11.1864C13.1499 11.1864 13.1499 11.1864 13.1499 11.1864C12.5567 10.9905 11.9463 10.7883 10.7752 10.3333C10.3552 10.1657 9.88912 10.3811 9.72792 10.7912C9.56403 11.2082 9.77197 11.677 10.1871 11.8385L10.1872 11.8386C11.3887 12.3056 12.0234 12.5153 12.6299 12.7156L12.6435 12.7201L12.6436 12.7201C13.2972 12.9359 13.9112 13.1386 15.2166 13.6648L15.2166 13.6648L15.2192 13.6658C15.315 13.7035 15.4161 13.7231 15.5188 13.7231C15.8374 13.7231 16.1406 13.5336 16.2676 13.2185C16.4364 12.8036 16.2334 12.3339 15.8206 12.1669Z" fill="#A46FE2" stroke="#A46FE2" stroke-width="0.7"/>
</svg>