<svg xmlns="http://www.w3.org/2000/svg" width="103" height="108" fill-rule="evenodd"><g fill="#a46fe2" fill-rule="nonzero"><path d="M87.787 13.805l.008-.007 1.414 1.415c18.424 19.193 18.39 49.575-.106 68.72h1.363c.847 0 1.534.687 1.534 1.534 0 .8-.612 1.457-1.394 1.527l-.14.006h-4.932c-.8 0-1.457-.613-1.528-1.394l-.006-.14v-4.933c0-.847.687-1.534 1.534-1.534.8 0 1.457.613 1.528 1.394l.006.14.001 1.024c17.17-17.995 17.092-46.402-.23-64.304l-.538-.547-.547-.538C67.6-1.417 38.633-1.238 20.7 16.706 2.842 34.572 2.586 63.378 19.93 81.557l.001-1.024.006-.14c.07-.78.727-1.394 1.528-1.394.847 0 1.534.687 1.534 1.534h0v4.933l-.006.14c-.07.78-.727 1.394-1.528 1.394h0-4.932l-.14-.006c-.782-.07-1.394-.728-1.394-1.527 0-.847.687-1.534 1.534-1.534h1.363C-.6 64.787-.632 34.405 17.798 15.22l-.007-.007 1.414-1.415.008.007c19.14-18.406 49.433-18.406 68.574 0z"/><path d="M15.5 36C24.06 36 31 29.06 31 20.5S24.06 5 15.5 5 0 11.94 0 20.5 6.94 36 15.5 36z"/></g><path d="M11.1 20.5H10a5.5 5.5 0 0 1 .43-2.144 5.46 5.46 0 0 1 2.926-2.925 5.57 5.57 0 0 1 4.2-.032 1.37 1.37 0 0 1 2.345.976 1.37 1.37 0 0 1-1.375 1.375 1.37 1.37 0 0 1-1.37-1.328c-1.072-.432-2.307-.426-3.37.023a4.35 4.35 0 0 0-1.398.94c-.403.403-.72.873-.94 1.398a4.37 4.37 0 0 0-.345 1.717zm7.515 3.115c.403-.403.72-.874.94-1.398.23-.543.345-1.12.345-1.717H21a5.5 5.5 0 0 1-.43 2.144 5.47 5.47 0 0 1-2.926 2.925A5.49 5.49 0 0 1 15.5 26a5.48 5.48 0 0 1-2.055-.399 1.37 1.37 0 1 1-.97-2.351 1.37 1.37 0 0 1 1.37 1.328 4.47 4.47 0 0 0 3.372-.023 4.36 4.36 0 0 0 1.398-.94zM13 20.5c0-1.378 1.122-2.5 2.5-2.5s2.5 1.122 2.5 2.5-1.122 2.5-2.5 2.5-2.5-1.122-2.5-2.5zm1.102 0a1.4 1.4 0 0 0 1.398 1.398 1.4 1.4 0 0 0 1.398-1.398 1.4 1.4 0 0 0-1.398-1.398 1.4 1.4 0 0 0-1.398 1.398z" fill="#fff"/><g fill="#a46fe2" fill-rule="nonzero"><path d="M54 70c8.284 0 15-6.716 15-15s-6.716-15-15-15-15 6.716-15 15 6.716 15 15 15zm0-4c-6.075 0-11-4.925-11-11s4.925-11 11-11 11 4.925 11 11-4.925 11-11 11z"/><path d="M29 90.937C29 77.162 40.196 66 54 66s25 11.162 25 24.936V108H29V90.937zm4 0V104h42V90.937C75 79.374 65.598 70 54 70s-21 9.374-21 20.936z"/></g></svg>